<svg width="351" height="143" viewBox="0 0 351 143" fill="none" xmlns="http://www.w3.org/2000/svg">
<path opacity="0.5" d="M52.3573 61.2415C72.4701 57.1626 90.7344 56.8808 104.495 60.424C120.147 64.3014 132.546 73.0529 138.745 84.4376L141.965 90.3352L150.164 89.7762C167.621 88.5881 191.105 85.1228 212.304 80.4718C224.787 77.7427 255.497 68.3283 266.487 63.8444L276.448 59.814L269.367 59.8889C248.772 60.284 225.623 50.7019 212.161 36.2954C207.834 31.767 208.621 30.9029 217.957 29.0629C243.551 24.2769 271.123 30.6545 291.621 46.2849L297.512 50.7673L307.726 45.4652C329.619 33.9603 357.172 16.2573 372.181 3.9694C376.57 0.381636 377.89 -0.370108 379.253 0.146663C380.172 0.520581 380.798 1.1927 380.686 1.72508C380.434 2.99672 358.064 19.7006 346.723 27.1689C330.837 37.4888 305.315 51.9241 295.414 56.131C252.992 74.2275 223.812 83.2126 187.462 89.4405C177.652 91.0494 153.63 93.812 146.283 93.9783C141.623 94.2047 141.623 94.2047 141.559 96.5958C141.061 110.884 122.254 126.754 94.5558 136.313C68.269 145.386 41.9432 145.192 35.1751 135.879C33.0784 132.951 32.6997 127.849 34.4569 123.788L36.0104 119.994L27.5234 121.146C19.1247 122.268 18.9482 122.329 17.6743 124.644C15.7922 128.058 12.9757 129.622 9.13657 129.368C2.99461 129.019 0.106285 123.797 2.79084 118.132C5.13193 113.474 8.8368 112.195 13.5526 114.418C15.451 115.342 17.2067 116.71 17.4198 117.328C17.7242 118.21 20.4681 118.151 26.1261 117.383C37.2352 115.82 37.0587 115.881 34.2867 113.283C33.0939 112.116 31.4413 109.33 30.6498 107.036C29.3711 103.331 29.4499 102.416 31.5326 98.4391L33.8464 93.9879L24.3064 93.2331C16.0076 92.6422 14.4744 92.7765 12.5736 94.4197C8.41911 97.8279 2.082 95.7702 0.224882 90.3893C-0.840678 87.302 2.00547 82.9632 5.97495 81.5932C10.0326 80.1928 14.1551 82.1264 15.5556 86.1841C16.2863 88.3011 17.2628 88.5564 25.7107 89.2933C30.8793 89.6812 35.2203 89.9599 35.3358 89.7226C35.3936 89.604 34.3163 88.1988 32.8831 86.6204C31.2094 84.6314 30.065 82.4597 29.6263 80.0444C27.8683 70.0883 34.1578 64.8574 52.3573 61.2415ZM34.805 73.025C32.9229 76.4387 33.9463 81.1201 37.3787 84.7727C40.6621 88.2792 46.1717 90.2276 54.1146 90.6453C59.4291 90.8841 61.4798 92.2494 59.433 94.0418C58.9068 94.5195 55.8101 94.6998 52.6798 94.4969C49.4917 94.4126 45.096 94.5476 42.8876 95.0137C35.3772 96.4212 32.2548 102.533 36.211 108.276C38.46 111.646 45.2475 114.436 48.5113 113.31C51.6869 112.214 60.6547 111.883 61.8444 112.756C64.0473 114.562 61.4346 115.859 52.893 117.425C42.9369 119.183 40.3272 120.774 38.4366 126.165C35.1993 135.377 45.431 140.138 65.3346 138.6C73.2377 138.044 89.4356 134.921 90.1046 134C90.2201 133.762 88.9907 131.916 87.3748 129.808C85.7893 127.789 82.8159 122.892 80.944 118.898C73.6178 104.25 73.1408 84.2761 79.6465 68.8025L82.4676 62.1032L79.9883 62.0704C63.9293 61.5911 37.584 67.9197 34.805 73.025ZM84.7689 67.6269C77.168 82.7874 77.2281 102.412 84.9197 118.119C88.9313 126.31 94.6128 133.332 96.2216 131.987C96.836 131.479 97.8914 130.818 98.5088 130.605C99.3909 130.301 98.4596 128.747 95.1396 124.562C91.3419 119.851 90.1366 117.503 87.5457 109.71C82.4919 95.0667 83.4473 84.9638 91.2614 70.4207L95.4572 62.5559L92.0896 62.2374C90.1701 62.1102 88.3996 62.1289 88.0163 62.1625C87.7517 62.2538 86.2435 64.7487 84.7689 67.6269ZM216.954 34.7396C217.442 36.151 225.742 42.467 232.454 46.4685C243.145 52.8478 260.568 56.7064 274.102 55.5892C283.331 54.8718 283.854 54.099 276.431 52.6135C263.389 50.007 243.554 44.0197 239.157 41.2922C237.435 40.307 237.237 38.3024 238.825 37.7544C239.266 37.6022 243.321 38.7692 247.854 40.4623C260.592 45.0493 286.065 51.0655 288.888 50.0913C290.034 49.6955 277.472 42.1851 270.593 39.1298C256.984 33.165 242.497 30.6624 227.488 31.7951C219.232 32.4727 216.437 33.2401 216.954 34.7396ZM106.9 78.5478C107.058 79.579 109.398 80.351 114.627 80.9154C118.764 81.4618 124.061 82.7928 126.376 84.0668C129.285 85.6296 130 86.2713 128.582 86.1682C114.498 85.4025 107.516 86.6273 108.551 89.6264C108.947 90.7732 109.985 91.2049 111.694 91.0097C118.295 90.1135 127.622 90.2509 130.023 91.1993L132.66 92.2633L119.453 96.3281C106.982 100.237 106.364 100.451 106.912 102.038C107.734 104.42 110.858 104.033 122.767 99.9229C132.677 96.6013 132.765 96.5708 131.315 98.9471C129.487 101.947 121.978 109.08 117.495 112.108C114.156 114.445 113.563 117.019 116.544 117.076C119.054 117.197 128.595 109.659 132.962 104.006C136.398 99.6605 137.176 97.9111 136.938 94.9331C136.4 85.9379 132.542 81.0504 123.865 78.2207C118.386 76.3605 109.08 75.4261 107.498 76.5642C107 76.8351 106.833 77.7812 106.9 78.5478Z" fill="white"/>
</svg>
