<svg width="464" height="205" viewBox="0 0 464 205" fill="none" xmlns="http://www.w3.org/2000/svg">
<path opacity="0.5" d="M389.041 87.5035C360.303 81.6756 334.207 81.2728 314.546 86.3355C292.182 91.8756 274.466 104.38 265.608 120.647L261.007 129.073L249.293 128.275C224.349 126.577 190.795 121.626 160.505 114.98C142.668 111.081 98.7893 97.6294 83.087 91.2226L68.8536 85.4639L78.9723 85.571C108.398 86.1354 141.475 72.4442 160.71 51.8599C166.892 45.3896 165.767 44.1549 152.428 41.5259C115.858 34.6874 76.4628 43.8 47.174 66.1332L38.7574 72.5377L24.1638 64.962C-7.11814 48.5235 -46.4865 23.2288 -67.9319 5.67157C-74.2025 0.545278 -76.0886 -0.528834 -78.0361 0.209542C-79.3489 0.743807 -80.2446 1.70414 -80.0839 2.46483C-79.7237 4.28179 -47.7614 28.1487 -31.5561 38.8196C-8.85814 53.565 27.608 74.1907 41.7544 80.2015C102.369 106.058 144.061 118.896 196 127.795C210.017 130.094 244.341 134.041 254.837 134.279C261.496 134.602 261.496 134.602 261.587 138.019C262.298 158.435 289.171 181.109 328.747 194.768C366.306 207.731 403.921 207.455 413.592 194.148C416.587 189.963 417.128 182.674 414.618 176.871L412.398 171.45L424.525 173.097C436.525 174.699 436.777 174.786 438.597 178.095C441.286 182.972 445.311 185.207 450.796 184.844C459.572 184.346 463.699 176.885 459.863 168.79C456.518 162.135 451.224 160.308 444.486 163.483C441.774 164.804 439.265 166.759 438.961 167.641C438.526 168.902 434.605 168.818 426.521 167.721C410.648 165.486 410.9 165.573 414.861 161.863C416.565 160.194 418.926 156.213 420.057 152.936C421.884 147.643 421.772 146.334 418.796 140.652L415.49 134.293L429.121 133.214C440.979 132.37 443.169 132.562 445.885 134.909C451.821 139.779 460.876 136.839 463.529 129.151C465.052 124.739 460.985 118.54 455.314 116.583C449.516 114.582 443.626 117.344 441.625 123.142C440.581 126.167 439.185 126.532 427.115 127.585C419.73 128.139 413.527 128.537 413.362 128.198C413.279 128.029 414.819 126.021 416.866 123.766C419.258 120.924 420.893 117.821 421.52 114.37C424.032 100.144 415.045 92.67 389.041 87.5035ZM414.12 104.34C416.81 109.218 415.347 115.907 410.443 121.126C405.752 126.136 397.879 128.92 386.53 129.516C378.937 129.858 376.007 131.809 378.931 134.369C379.683 135.052 384.108 135.31 388.58 135.02C393.136 134.899 399.416 135.092 402.572 135.758C413.303 137.769 417.764 146.503 412.111 154.707C408.898 159.522 399.2 163.51 394.536 161.9C389.999 160.334 377.186 159.861 375.486 161.108C372.338 163.689 376.071 165.542 388.276 167.78C402.501 170.291 406.23 172.566 408.932 180.269C413.557 193.431 398.938 200.234 370.499 198.035C359.207 197.241 336.063 192.78 335.107 191.462C334.942 191.123 336.698 188.485 339.007 185.474C341.273 182.588 345.521 175.592 348.196 169.885C358.664 148.955 359.345 120.416 350.05 98.307L346.019 88.7348L349.561 88.6879C372.507 88.0031 410.15 97.0456 414.12 104.34ZM342.731 96.6272C353.591 118.289 353.505 146.329 342.515 168.771C336.783 180.475 328.665 190.509 326.367 188.587C325.489 187.861 323.981 186.917 323.099 186.613C321.838 186.178 323.169 183.957 327.913 177.977C333.339 171.246 335.061 167.891 338.763 156.756C345.984 135.834 344.619 121.399 333.454 100.619L327.459 89.3816L332.271 88.9266C335.013 88.7448 337.543 88.7716 338.091 88.8195C338.469 88.95 340.624 92.5148 342.731 96.6272ZM153.86 49.637C153.164 51.6536 141.304 60.6781 131.714 66.3955C116.438 75.5103 91.5438 81.0236 72.2065 79.4275C59.0193 78.4024 58.272 77.2982 68.8782 75.1756C87.5128 71.4514 115.855 62.8965 122.136 58.9994C124.597 57.5918 124.88 54.7275 122.612 53.9445C121.981 53.727 116.187 55.3945 109.71 57.8137C91.5093 64.3676 55.1133 72.9638 51.0801 71.5718C49.4416 71.0063 67.3914 60.2753 77.2202 55.9097C96.6646 47.3871 117.364 43.8113 138.809 45.4297C150.605 46.3979 154.6 47.4943 153.86 49.637ZM311.11 112.231C310.883 113.705 307.54 114.808 300.068 115.614C294.157 116.395 286.589 118.297 283.281 120.117C279.125 122.35 278.103 123.267 280.129 123.12C300.254 122.025 310.228 123.775 308.749 128.061C308.184 129.699 306.701 130.316 304.259 130.037C294.827 128.757 281.501 128.953 278.071 130.308L274.302 131.828L293.173 137.636C310.992 143.222 311.875 143.527 311.092 145.795C309.917 149.198 305.453 148.645 288.438 142.773C274.279 138.027 274.152 137.983 276.225 141.378C278.836 145.665 289.565 155.856 295.97 160.183C300.742 163.522 301.589 167.199 297.329 167.281C293.743 167.454 280.111 156.684 273.871 148.606C268.961 142.398 267.849 139.898 268.19 135.643C268.958 122.79 274.472 115.807 286.869 111.764C294.698 109.106 307.994 107.771 310.254 109.397C310.967 109.784 311.205 111.136 311.11 112.231Z" fill="white"/>
</svg>
