<svg width="139" height="163" viewBox="0 0 139 163" fill="none" xmlns="http://www.w3.org/2000/svg">
<path opacity="0.5" d="M77.7816 14.4171C83.3824 12.6788 99.2422 13.5307 108.243 16.0434C112.466 17.1879 118.515 19.4553 121.7 21.0409C127.089 23.7728 127.651 23.8706 130.276 22.2644C137.29 18.0875 157.601 10.2475 170.705 6.63562C185.476 2.62141 207.04 -0.973778 209.302 0.239165C211.26 1.24399 210.166 3.63909 207.559 3.92035C192.951 5.29256 166.852 10.7549 160.033 13.8073C158.469 14.5949 158.093 16.5923 157.67 27.5533C157.15 41.0973 155.093 48.8634 150.718 54.2766C147.717 57.8802 142.981 59.9244 139.297 59.2552C135.864 58.6015 131.532 54.1036 130.515 50.1259C128.949 43.778 132.125 33.2393 137.972 25.4543C141.553 20.6237 141.168 20.7262 127.705 28.1046C117.245 33.9002 103.155 43.2605 97.4112 48.3367L93.6712 51.6421L97.042 58.417C104.063 72.5524 105.634 84.9624 101.663 94.0629C96.8797 105.071 85.8194 108.303 80.9575 100.111C78.0403 95.1948 79.8846 76.5546 84.615 63.3335L86.4584 58.0168L82.9856 61.0861C74.0364 68.9955 59.5801 87.3628 51.1903 101.558C46.4007 109.598 46.3106 110.034 45.7131 119.722C44.7354 135.574 39.4768 147.12 28.9247 156.446C24.183 160.637 22.3441 161.787 18.8851 162.584C14.4632 163.637 9.17444 162.364 6.75441 159.625C2.15044 154.416 4.72823 143.335 13.8262 129.942C18.4871 122.967 30.3205 113.342 37.5598 110.631C42.5316 108.854 42.7987 108.618 44.5925 105.129C45.6564 103.237 48.7501 98.124 51.4789 93.8091C55.8135 87.0042 56.1195 86.1391 54.0289 87.273C38.9865 95.6906 15.1621 100.094 6.05389 96.2483C-1.81949 92.858 -2.08243 83.8122 5.67239 76.8394C11.2901 71.7555 19.4816 69.9876 33.5133 70.7899C39.8038 71.1779 48.4382 72.4681 52.8462 73.6872C57.1285 74.8985 61.2849 76.102 62.1578 76.2821C63.5262 76.6191 64.4612 75.7928 69.5632 69.8562C75.4076 63.1445 97.3674 42.9035 103.359 38.9162C105.006 37.818 107.78 35.8421 109.493 34.6849L112.719 32.5475L104.936 33.8355C95.6787 35.4746 83.0791 36.0235 77.4487 35.1711C64.0056 33.0159 64.2021 18.568 77.7816 14.4171ZM71.6842 24.2073C70.254 29.9915 77.8788 32.293 94.6254 31.0527C103.25 30.4481 115.389 28.1658 114.621 27.2976C114.09 26.6965 101.745 26.1877 96.2296 26.5421C93.6902 26.7643 92.2627 26.3606 91.8806 25.3898C91.6165 24.5527 91.6708 23.672 92.0048 23.3769C92.7394 22.7276 102.697 22.0157 109.38 22.1754L114.11 22.2777L110.213 20.9638C99.5717 17.4029 86.3771 16.3365 78.7992 18.3948C74.1769 19.6252 72.4482 21.0341 71.6842 24.2073ZM4.40233 86.1696C4.09193 91.202 6.82566 92.9492 15.2705 93.2175C23.8411 93.4936 33.8685 91.6494 43.2574 87.8716C52.7644 84.2273 53.805 82.7128 46.4304 83.5209C37.2044 84.6567 27.7531 84.3264 27.5201 82.9859C27.1333 81.0678 29.4319 79.6309 32.192 79.9275C35.8918 80.3451 53.4523 79.2181 53.5578 78.5301C53.6199 77.5236 38.8752 74.9724 30.4382 74.5783C15.577 73.9143 4.86792 78.621 4.40233 86.1696ZM84.5662 80.5058C82.9699 90.0053 83.1287 96.6452 85.0765 98.8491C86.7292 100.719 92.0365 100.668 94.2405 98.7197C97.0454 96.2407 100.015 88.0256 99.9322 83.2216C99.7673 78.7281 96.5096 66.0246 95.152 64.4886C94.6798 63.9543 94.4252 65.012 94.5604 66.9147C94.7034 68.6916 94.7937 73.3698 94.6867 77.1519C94.5068 83.1395 94.1854 84.2563 92.5188 84.6586C90.8522 85.061 90.6984 84.4832 90.6453 77.1552C90.5641 69.2571 90.0792 62.7865 89.4299 62.0519C88.7806 61.3172 86.2137 71.1989 84.5662 80.5058ZM14.1931 136.279C8.11593 146.765 7.20308 155.422 11.8442 157.982C19.4194 162.111 31.0447 152.788 37.6839 137.286C40.1128 131.689 42.6889 118.588 41.4308 118.51C41.1792 118.495 38.3169 122.928 35.074 128.411C31.7722 133.827 28.7763 138.378 28.2653 138.473C25.3919 138.99 26.274 135.95 31.9271 126.196C35.3113 120.469 37.894 115.451 37.6579 115.183C36.7725 114.182 30.0536 118.693 23.8861 124.5C19.3214 128.891 16.4621 132.251 14.1931 136.279ZM136.455 35.7165C133.905 42.2525 134.1 49.3367 136.874 52.4755C141.36 57.5512 147.333 54.8887 150.97 46.0834C152.677 41.958 154.965 18.1674 153.648 18.023C152.323 18.0045 148.113 27.911 147.508 32.6095C146.832 38.4403 145.375 40.5605 143.605 38.5569C142.896 37.7555 142.949 34.8541 143.826 30.867C144.614 27.3163 145.118 24.2534 144.941 24.053C144.307 23.0668 138.162 31.5911 136.455 35.7165Z" fill="#094C3B"/>
</svg>
