<svg width="234" height="231" viewBox="0 0 234 231" fill="none" xmlns="http://www.w3.org/2000/svg">
<g opacity="0.5">
<path d="M188.568 150.47C188.459 149.811 186.585 147.191 184.304 144.805C181.039 141.182 180.017 140.508 179.001 141.094C178.324 141.485 177.736 142.186 177.689 142.574C177.645 143.593 184.945 151.388 186.383 152.002C187.957 152.539 188.798 151.963 188.568 150.47Z" fill="#094C3B"/>
<path d="M107.774 184.294C107.186 178.583 105.596 176.611 104.096 179.644C103.529 180.695 104.271 188.393 105.053 189.747C105.366 190.289 106.21 190.344 106.955 189.913C107.971 189.327 108.197 187.842 107.774 184.294Z" fill="#094C3B"/>
<path d="M129.298 173.402C129.959 171.576 130.195 167.918 129.903 165.378C129.61 162.838 129.513 160.636 129.716 160.519C129.919 160.402 131.29 161.055 132.817 161.98C138.896 165.784 145.437 164.445 146.22 159.388C147.049 153.943 138.423 144.476 128.626 140.019C123.407 137.704 119.777 137.362 116.798 139.082C111.651 142.054 112.981 164.221 118.896 174.622C120.186 176.857 121.033 177.542 123.081 177.804C126.614 178.293 127.958 177.337 129.298 173.402Z" fill="#094C3B"/>
<path d="M200.565 132.617C200.794 131.763 192.205 126.427 190.887 126.646C190.403 126.746 189.736 127.311 189.418 127.856C188.947 128.76 189.726 129.484 193.189 131.729C197.265 134.252 200.05 134.54 200.565 132.617Z" fill="#094C3B"/>
<path d="M93.4304 186.976C94.377 181.734 93.7849 179.457 91.8209 180.591C90.06 181.608 88.7267 191.498 90.3005 192.034C92.1661 192.763 92.4837 192.218 93.4304 186.976Z" fill="#094C3B"/>
<path d="M211.351 119.708C211.385 118.514 198.865 112.469 197.646 113.173C195.614 114.346 196.891 115.776 202.85 118.746C208.635 121.728 211.245 122.026 211.351 119.708Z" fill="#094C3B"/>
<path d="M80.4558 185.618C82.1817 181.1 82.0092 179.394 79.8574 179.733C79.0914 179.814 77.9171 181.846 76.8629 184.713C75.4834 188.579 75.3717 189.637 76.4113 190.03C78.2769 190.759 78.5373 190.428 80.4558 185.618Z" fill="#094C3B"/>
<path d="M156.343 117.333C157.363 113.313 158.128 108.537 158.013 106.617L157.91 103.155L159.229 105.283C161.497 109.211 165.773 113.334 167.831 113.771C170.598 114.34 175.029 111.692 175.88 108.943C176.263 107.729 176.476 105.439 176.41 103.761C176.211 100.445 172.993 90.0222 171.155 86.8392C170.529 85.7556 170.292 84.7188 170.698 84.4842C171.037 84.2887 171.61 84.4995 171.884 84.9736C172.158 85.4476 173.781 86.2261 175.451 86.6164C181.248 88.0552 185.923 83.6404 185.507 77.2889C185.206 72.8575 182.302 67.6713 173.099 55.0153C163.974 42.4948 155.841 28.4082 153.744 21.4919C151.963 15.7479 150.87 3.37588 151.035 -9.63222C151.085 -15.8015 150.894 -17.2265 149.769 -17.2991C149.032 -17.3249 148.276 -17.0693 147.909 -16.767C147.224 -15.9201 147.101 0.133543 147.771 8.95733C148.627 20.2925 150.671 26.3361 157.553 38.2555C160.798 43.8766 166.395 52.4748 169.947 57.3767C173.5 62.2787 177.621 68.4779 179.174 71.0123C183.084 77.7847 182.947 81.9271 178.782 83.1581C176.37 83.8284 173.159 81.7088 169.55 77.0205C165.52 71.7618 162.153 69.3712 160.549 70.6587C159.312 71.6439 159.518 72.1571 164.116 81.0604C169.195 90.9509 172.464 99.8989 172.768 104.961C172.944 107.298 172.55 108.337 171.003 109.411C167.745 111.744 165.941 109.715 159.435 97.0373C150.931 80.2752 151.244 80.817 149.686 81.7163C148.535 82.381 148.626 83.3215 150.519 88.0077C153.541 95.7444 154.598 102.268 153.991 109.662C153.368 117.967 151.76 122.688 149.301 123.747C146.261 125.051 145.057 122.495 143.198 110.204C140.684 94.5892 138.849 85.6251 138.052 85.1824C136.457 84.2971 135.408 86.0769 135.636 89.2865C135.83 93.6893 133.206 101.344 130.599 104.023C127.596 107.112 122.535 109.763 118.919 110.225C112.211 111.118 103.347 107.026 100.179 101.54C98.459 98.5601 98.1608 94.7591 99.6508 93.8989C100.057 93.6643 102.678 94.1376 105.495 94.9495C115.479 97.8538 124.408 92.518 126.062 82.7139C127.669 73.298 121.46 64.4212 111.526 61.7592C106.825 60.4998 102.918 60.7694 96.1367 62.788C90.0436 64.5902 87.7535 64.3773 86.3068 61.8715C84.1954 58.2144 87.7707 52.9897 95.9911 47.5213C100.508 44.5525 102.831 43.5721 107.559 42.3774C117.568 39.8497 117.115 40.4725 115.809 30.3906C113.762 14.9577 109.065 -7.25319 107.783 -7.59668C105.433 -8.2264 105.259 -5.86859 107.242 3.82233C109.442 14.201 111.713 27.5183 112.468 33.6743L112.891 37.2225L107.204 38.7901C102.689 40.0421 99.8918 41.2961 94.4271 44.8123C83.12 51.9726 79.6752 58.2055 83.468 64.7747C85.1102 67.6191 88.4113 68.3319 93.1967 66.9235C104.492 63.6529 110.565 63.849 115.946 67.6952C123.779 73.2862 124.856 84.2227 118.131 90.0919C115.204 92.6851 111.054 93.0042 105.827 91.1457C101.708 89.6412 100.796 89.6259 98.5608 90.9162C96.5291 92.0892 95.7192 93.1889 95.1 95.7136C94.2308 98.7438 94.1344 98.8897 93.3524 97.5352C92.8832 96.7225 91.1035 95.6732 89.3943 95.2152C85.0145 94.0416 82.1128 95.8975 79.6734 101.369C75.4377 110.768 72.8565 112.71 68.0724 110.054C62.4232 106.994 59.8593 97.5486 62.6183 89.8153C64.0551 85.735 68.2219 80.4398 71.4726 78.563C74.5879 76.7643 78.8719 71.6723 79.4912 69.1476C80.9482 63.0691 76.2052 58.7641 68.8742 59.2041C65.18 59.531 63.6405 60.1489 57.1676 63.7957C51.0047 67.3539 49.1971 68.7587 46.5538 72.0005C41.1423 78.7368 41.5877 78.5699 35.764 75.521C24.3693 69.5482 13.1666 60.9362 5.57208 52.3179C2.83298 49.294 1.95743 48.716 0.941563 49.3025C-1.02244 50.4364 -0.0449225 52.1295 6.11331 58.4166C15.1461 67.6493 30.4215 78.1541 39.9812 81.5743L42.8865 82.6962L45.6233 78.678C49.0632 73.5316 53.5923 69.0204 57.6557 66.6744C67.9498 60.7311 77.7902 61.8222 75.5415 68.719C74.4796 72.041 74.1514 72.4111 68.9318 76.5082C66.2543 78.5959 63.2305 81.335 62.2565 82.6197C54.0404 93.4133 57.5737 111.42 68.4879 114.058C71.6145 114.781 75.8581 113.686 78.1369 111.377C78.9678 110.626 80.642 107.583 81.8994 104.599C84.2892 98.885 85.9117 97.3162 88.4183 98.2168C94.1896 100.393 93.5141 114.237 87.1237 123.345C81.1864 131.83 73.3995 132.262 59.8159 124.844C56.6656 123.141 54.7037 122.558 53.8232 123.066C53.146 123.457 52.732 124.148 52.9666 124.554C53.2012 124.961 61.2767 130.502 70.8686 136.793C88.9242 148.673 90.0058 149.764 87.6906 152.636C83.9379 157.24 63.732 150.395 53.506 141.129C51.3143 139.053 48.7638 139.171 48.6472 141.315C48.6396 141.771 54.0444 146.597 60.6739 151.98C67.2357 157.402 73.0001 162.381 73.4302 163.126C75.3461 166.445 69.9665 167.293 62.0119 164.933C55.8056 163.098 50.6801 160.007 45.9448 155.246C41.9888 151.21 40.5505 150.595 39.978 152.732C39.6736 154.081 40.6979 155.386 47.354 162.379C53.8927 169.169 55.0734 170.745 54.7586 171.92C54.1288 174.27 51.7996 173.989 47.4219 171.099C41.8481 167.545 35.9741 161.906 30.1516 154.793C24.973 148.482 21.5398 142.066 15.5587 127.64C9.04837 111.985 3.25176 104.135 -6.93438 97.2834C-14.6007 92.1379 -28.0355 85.4467 -29.3223 86.1896C-31.4217 87.4017 -29.7356 89.2274 -23.7087 92.159C-3.47052 101.875 3.89703 109.631 12.3003 129.973C16.2425 139.617 23.8099 153.036 28.4621 158.748C35.387 167.302 46.4648 176.166 51.0945 176.835C56.0057 177.521 60.2639 173.166 58.1915 169.577C57.2531 167.951 57.4277 167.941 62.7871 169.091C71.0593 170.906 76.6574 169.029 77.5182 164.107C77.773 162.515 76.6104 160.658 73.0349 157.124C71.7683 155.869 72.1174 155.848 76.2054 156.829C80.7206 157.924 85.9676 157.784 88.2025 156.494C90.1665 155.36 92.476 151.227 92.2826 149.172C92.0186 146.525 90.4602 145.077 81.306 139.075C77.181 136.309 73.9602 134.015 74.0956 133.937C74.2311 133.859 75.7915 133.59 77.5656 133.378C86.9885 132.182 95.1836 121.039 96.0393 108.445L96.3841 103.099L98.4327 105.709C102.676 111.025 112.043 114.737 118.566 113.68C125.506 112.562 132.026 108.527 135.484 103.1C136.505 101.427 137.421 100.356 137.578 100.627C137.734 100.897 138.522 105.86 139.431 111.657C140.272 117.492 141.597 123.228 142.34 124.515C144.256 127.834 147.692 128.468 151.485 126.279C154.262 124.676 154.647 124.092 156.343 117.333Z" fill="#094C3B"/>
</g>
</svg>
