<svg width="324" height="246" viewBox="0 0 324 246" fill="none" xmlns="http://www.w3.org/2000/svg">
<g opacity="0.5">
<path d="M279.708 13.783C279.813 17.0349 280.017 20.5326 280.207 21.5295C280.524 23.1909 280.722 23.3253 281.815 22.6663C282.871 22.0937 283.134 20.6262 283.045 15.6494C282.869 8.34468 282.454 6.79466 280.794 7.46915C279.872 7.84386 279.671 9.28642 279.708 13.783Z" fill="#094C3B"/>
<path d="M123.404 84.6896C116.132 92.8734 109.873 99.4993 109.614 99.3899C109.329 99.219 107.274 97.3331 105.093 95.1399C102.888 92.8853 100.673 91.1358 100.168 91.1263C99.6624 91.1168 97.0659 93.8909 94.362 97.2815C76.1683 120.002 52.2214 151.649 52.2658 152.992C52.2717 154.064 71.4 170.996 86.3133 183.196C105.422 198.848 126.279 214.218 127.692 213.643C128.123 213.469 132.664 208.257 137.792 202.019C148.5 189.073 146.816 189.686 154.033 195.991C156.459 198.084 158.859 199.758 159.512 199.779C160.079 199.764 166.863 192.495 175.091 183.135C189.144 166.967 189.659 166.472 192.281 166.05C193.906 165.82 214.95 157.338 244.34 145.249C295.756 123.921 297.821 123.01 305.88 116.584C310.001 113.333 312.307 109.316 312.299 105.596C312.263 99.165 299.516 68.6822 290.724 53.9224C286.458 46.7758 282.741 42.9157 278.246 41.0187C272.108 38.4286 269.214 38.5309 260.557 41.548L253.032 44.1769L251.399 40.6871L249.79 37.2588L240.781 40.9924C229.066 45.8253 228.809 46.0731 229.839 49.6648L230.656 52.5555L202.227 64.5403C173.822 76.5867 166.523 80.126 163.007 83.6321C161.978 84.6234 161.021 85.4418 160.873 85.4303C160.762 85.3324 157.953 83.1797 154.613 80.5987C144.318 72.5369 138.716 68.7981 137.696 69.2842C137.082 69.5341 130.713 76.4193 123.404 84.6896ZM145.838 77.863C159.695 88.3444 159.806 88.4423 159.622 90.8088C159.53 91.992 159.578 94.0492 159.807 95.3169L160.103 97.6314L153.199 92.2735C149.413 89.3008 145.181 85.9363 143.807 84.8474C142.408 83.6971 140.889 82.954 140.397 83.1539C138.431 83.9532 123.277 101.643 113.909 114.187C108.357 121.671 101.575 131.59 101.383 132.527C101.323 132.909 112.618 143.429 126.411 155.87C140.266 168.286 152.722 179.551 154.109 180.849C155.831 182.441 157.029 183.1 157.828 182.775C160.225 181.801 170.707 170.236 177.616 160.982C179.182 158.842 180.662 157.023 180.847 156.948C181.031 156.873 181.344 157.82 181.634 159.062C181.913 160.453 182.847 162.222 184.05 163.595C185.141 164.87 186.009 165.95 185.948 165.975C184.775 167.669 159.629 196.366 159.456 196.293C157.59 195.404 100.953 146.094 92.1101 137.728C88.3083 134.189 88.0719 133.784 88.6691 132.61C89.8999 130.176 101.249 115.107 108.8 106.023C115.433 98.027 137.372 73.0683 138.208 72.6571C138.367 72.5207 141.842 74.9038 145.838 77.863ZM104.251 98.7051C106.331 100.652 107.954 102.356 107.857 102.467C107.82 102.554 105.018 106.056 101.592 110.313C98.2277 114.545 92.8949 121.511 89.8262 125.766C84.8871 132.643 84.2649 133.755 84.8644 135.23C85.464 136.706 84.8418 137.818 79.7798 144.745C76.5882 149.05 74.1706 152.969 74.3454 153.399C74.5203 153.829 78.2222 157.123 82.5658 160.585C92.7877 168.82 101.144 176.166 111.709 186.123C116.427 190.508 120.661 194.229 121.278 194.337C121.894 194.444 124.074 192.054 127.792 187.106C130.849 182.999 133.503 179.485 133.637 179.287C133.797 179.151 136.444 181.083 139.514 183.702L145.158 188.426L136.445 199.057C131.586 204.899 127.573 209.825 127.377 210.048C126.826 210.63 102.64 192.531 86.9465 179.645C77.3181 171.813 78.3884 173.742 71.5908 152.084C68.3928 141.925 67.2723 137.583 67.6371 136.718C67.9539 136.088 72.9315 129.482 78.754 121.959C84.6016 114.497 91.5495 105.515 94.2899 102.037C97.0053 98.4989 99.5268 95.5404 99.8706 95.3291C100.178 95.2042 102.145 96.6963 104.251 98.7051ZM248.652 43.0924L249.527 45.2436L241.844 48.3662L234.161 51.4888L233.437 49.7064C232.538 47.4938 232.918 47.196 241.534 43.5508L247.778 40.9413L248.652 43.0924ZM144.77 89.6838C146.899 91.3968 148.595 92.9274 148.497 93.0388C148.461 93.1253 147.345 94.0801 146.143 94.9984C144.744 96.1396 143.437 98.0318 142.684 100.056C141.313 103.908 138.037 106.242 134.549 105.941C129.408 105.452 124.256 109.337 122.856 114.704C122.206 117.332 123.501 122.105 125.386 124.275C126.725 125.808 126.738 126.017 125.428 127.552C124.645 128.443 124.123 129.801 124.152 130.577C124.231 131.476 123.729 132.181 122.746 132.581L121.271 133.18L118.442 125.164C116.251 118.893 115.809 116.924 116.358 115.984C117.847 113.303 139.336 87.2377 140.479 86.7016C140.663 86.6266 142.642 87.9708 144.77 89.6838ZM264.484 43.1032C265.974 43.0703 267.269 45.5517 277.271 67.3395C283.22 80.3903 286.392 88.1959 291.11 101.389C294.488 110.758 297.108 118.789 296.925 119.221C295.831 121.814 194.631 163.376 189.825 163.181C187.545 163.034 185.092 160.522 184.535 157.74C184.344 156.744 182.728 151.886 180.914 146.894C179.161 141.878 175.343 130.897 172.462 122.4C169.52 113.928 166.213 104.029 164.948 100.389C160.603 87.7603 161.701 85.8816 178.805 77.5693C186.791 73.6072 262.759 43.0881 264.484 43.1032ZM274.819 42.9842C282.597 45.9102 286.382 50.8172 295.246 69.6299C298.624 76.7074 301.493 83.061 301.62 83.7255C301.835 84.7838 300.825 84.7648 294.757 83.5788L287.751 82.2009L280.232 65.9925C276.105 57.0711 271.891 48.1133 270.832 46.0371C268.479 41.4794 269.239 40.8838 274.819 42.9842ZM156.871 99.0168C161.114 102.233 162.019 103.226 163.23 106.029L164.604 109.409L161.428 107.763C150.531 102.095 138.775 112.817 144.035 123.642L145.568 126.886L142.31 128.21C138.438 129.783 135.805 132.644 134.325 136.755C131.718 144.26 137.303 151.658 145.979 152.213C149.024 152.48 149.95 152.82 149.942 153.682C149.958 156.54 154.18 166.927 157.212 171.567C160.255 176.059 160.38 176.367 159.635 177.529C158.206 179.828 157.194 179.452 152.785 175.3C150.37 173.059 141.752 165.247 133.655 158.01C117.435 143.477 117.001 142.937 119.366 138.538C120.378 136.623 121.016 136.077 122.923 135.66C128.128 134.547 128.534 134.311 127.896 132.565C126.983 130.143 127.384 129.192 129.733 128.452C130.926 128.039 131.982 127.466 132.153 127.182C132.238 126.861 131.294 125.597 129.957 124.422C121.673 116.904 127.169 105.933 137.354 109.671L139.205 110.351L140.167 108.313C141.031 106.386 141.216 106.311 142.635 106.808C144.833 107.634 144.967 107.436 145.23 103.677C145.381 99.8198 147.384 96.6424 150.065 95.8391C151.676 95.3989 152.714 95.8367 156.871 99.0168ZM116.662 126.245C118.04 130.34 119.07 133.932 118.899 134.216C118.814 134.537 118.165 135.23 117.564 135.69C116.448 136.644 116.337 136.547 113.996 129.907C111.756 123.513 111.642 123.058 112.654 121.142C113.251 119.969 113.862 119.004 113.923 118.979C114.046 118.929 115.309 122.212 116.662 126.245ZM65.7516 141.065C66.3511 142.54 74.3498 167.505 74.5901 168.625C74.667 169.167 73.5912 168.458 72.1177 167.124L69.4551 164.625L66.1302 153.802C63.4569 144.934 62.9648 142.842 63.6119 141.792C64.6009 140.172 65.3019 139.959 65.7516 141.065ZM112.867 132.944C114.27 137.1 115.275 140.63 115.03 140.73C113.985 141.155 111.737 137.915 109.813 133.182C107.94 128.573 107.813 127.908 108.692 126.548C109.205 125.695 109.756 125.113 109.929 125.186C110.102 125.259 111.439 128.726 112.867 132.944ZM63.8637 153.864C64.9573 157.788 65.8261 161.159 65.7531 161.332C65.6802 161.504 64.7523 160.807 63.6995 159.803C62.2376 158.32 61.4402 156.711 60.2486 152.898C58.9936 148.753 58.8897 147.793 59.7962 146.852C60.4453 146.158 60.9985 145.933 61.3327 146.227C61.5805 146.485 62.7087 149.965 63.8637 153.864ZM156.988 108.995C160.86 109.713 162.868 111.833 164.534 116.814C165.851 120.934 166.087 121.339 167.355 121.11C168.586 120.968 168.797 121.311 169.564 124.079C170.029 125.752 171.82 131.04 173.448 135.749C175.162 140.495 176.404 144.431 176.219 144.506C176.096 144.556 174.258 144.085 172.11 143.383C169.988 142.742 167.508 142.102 166.621 142.033C165.141 141.918 164.732 141.44 163.358 138.06C162.359 135.601 161.865 133.152 161.94 131.045C162.112 126.535 161.503 125.565 159.342 126.945C157.746 127.952 153.272 127.693 150.863 126.524C148.603 125.366 147.859 124.594 146.86 122.135C143.962 115.006 149.723 107.508 156.988 108.995ZM107.522 133.183L107.912 134.671L106.538 133.583C105.388 132.69 105.213 132.259 105.564 131.186C105.927 129.964 105.988 129.939 106.548 130.786C106.895 131.289 107.345 132.395 107.522 133.183ZM57.6113 152.753C58.2493 154.499 58.2378 154.647 57.31 153.949C56.6914 153.485 56.1938 152.613 56.1783 152.046C56.1319 150.346 56.762 150.663 57.6113 152.753ZM94.7716 144.452C98.2142 147.636 100.952 150.319 100.89 150.344C100.792 150.456 100.057 151.113 99.1369 151.845C96.8073 153.866 96.6083 157.957 98.8542 160.84C101.361 164.189 107.72 166.618 114.769 167.047L120.722 167.421L126.095 172.183C129.042 174.853 131.395 177.119 131.286 177.378C130.812 178.502 121.515 190.516 121.231 190.345C121.058 190.272 116.303 185.974 110.644 180.684C101.591 172.332 87.4176 160.189 80.1176 154.562L77.6798 152.617L82.6074 145.887C85.3093 142.139 87.7559 138.997 87.9768 138.835C88.2226 138.735 91.2425 141.232 94.7716 144.452ZM147.251 130.498C150.864 131.107 153.575 133.371 155.049 136.997C155.687 138.743 156.092 140.798 155.851 141.613C155.634 142.489 155.503 143.401 155.628 143.708C155.728 143.954 158.317 144.334 161.312 144.477C164.837 144.692 168.845 145.569 172.34 146.942C177.167 148.775 177.958 149.313 178.758 151.28C179.632 153.431 179.523 153.69 176.074 158.243C169.506 166.928 164.046 173.229 163.061 173.272C160.708 173.297 154.911 160.972 152.639 151.154C152.108 148.791 152.047 148.816 149.129 149.214C139.231 150.588 133.227 140.925 139.359 133.635C141.525 131.035 144.107 129.986 147.251 130.498ZM158.115 130.093C158.374 130.203 158.703 131.716 158.897 133.428C159.03 135.164 159.636 137.711 160.16 139.002C160.86 140.722 160.864 141.437 160.297 141.452C159.817 141.504 159.346 141.051 159.356 140.546C159.34 139.979 158.489 137.532 157.49 135.074C156.016 131.448 155.814 130.599 156.675 130.249C157.166 130.049 157.831 129.922 158.115 130.093ZM303.904 89.1706C304.779 91.3217 305.234 91.2083 296.899 90.0842C290.451 89.1959 290.278 89.123 289.379 86.9104L288.455 84.6363L295.817 86.0123C302.329 87.2328 303.255 87.5726 303.904 89.1706ZM306.502 95.5626C306.952 96.6689 307.094 97.9001 306.862 98.2094C306.299 98.9394 300.752 98.3295 296.211 97.0241C293.62 96.287 292.976 95.7608 292.177 93.794L291.202 91.397L298.44 92.4657C305.234 93.4998 305.728 93.6573 306.502 95.5626ZM301.699 100.308C304.202 100.651 306.63 100.81 306.999 100.66C307.798 100.336 309.431 103.825 309.143 105.231C309.072 105.762 306.694 105.725 302.292 104.937C295.596 103.791 295.509 103.755 294.51 101.296C293.511 98.8378 293.511 98.8378 295.324 99.2466C296.261 99.4386 299.135 99.9893 301.699 100.308ZM305.584 107.752L308.938 108.251L307.828 110.278C306.425 112.638 305.528 113.075 303.897 112.234C303.267 111.917 301.811 111.506 300.627 111.414C298.853 111.276 298.382 110.823 297.533 108.733L296.508 106.213L299.418 106.678C300.972 106.977 303.796 107.405 305.584 107.752ZM302.034 113.993C303.133 114.406 303.38 114.664 302.941 115.344C301.608 117.174 300.215 117.096 299.416 115.129C298.617 113.162 299.047 112.987 302.034 113.993Z" fill="#094C3B"/>
<path d="M226.465 74.3112C214.708 82.3844 210.807 98.8655 217.916 110.013C228.021 125.886 249.036 127.729 261.156 113.851C269.543 104.355 270.291 90.5152 263.031 80.9336C256.503 72.2719 246.773 68.4205 236.299 70.3143C230.958 71.2679 230.958 71.2679 226.465 74.3112ZM238.468 72.6553C242.642 72.1764 249.081 73.5698 252.777 75.7915C266.324 83.7489 268.712 101.255 257.9 113.24C255.586 115.828 254.272 116.649 249.934 118.484C245.447 120.307 244.118 120.561 240.655 120.321C232.693 119.762 224.98 115.234 220.742 108.506C213.458 96.9289 219.092 79.9577 232.097 74.6003C234.285 73.6395 237.176 72.8227 238.468 72.6553Z" fill="#094C3B"/>
<path d="M230.019 86.4019C223.846 93.0642 224.764 103.075 232.003 108.727C240.824 115.454 255.064 108.377 256.796 96.4296C257.332 92.9894 257.166 92.054 255.533 88.5641C254.025 85.3816 253.131 84.2408 250.893 82.7872C244.921 78.841 235.505 80.5194 230.019 86.4019ZM234.274 94.0536C234.474 94.5453 234.617 95.7765 234.536 96.8118C234.483 98.2659 234.844 98.9784 236.231 100.277C238.089 102.028 238.515 103.43 237.225 103.955C234.95 104.879 230.964 99.1231 231.301 95.5485C231.489 93.8966 233.725 92.7014 234.274 94.0536Z" fill="#094C3B"/>
<path d="M180.247 97.6793L177.324 99.2971L178.704 103.749C179.619 106.529 180.491 108.322 181.035 108.603C181.986 109.004 193.438 103.705 195.142 102.081C195.62 101.672 195.28 100.306 193.833 97.0988L191.825 92.6871L187.498 94.3743C185.137 95.2621 181.893 96.7955 180.247 97.6793ZM190.908 98.3594C191.857 100.695 191.857 100.695 189.205 102.274C187.682 103.108 185.667 104.142 184.745 104.517C183.086 105.191 182.888 105.057 181.988 102.844L180.989 100.386L184.147 98.8158C185.818 97.9934 187.857 97.0211 188.631 96.6349C189.749 96.0373 190.058 96.2697 190.908 98.3594Z" fill="#094C3B"/>
<path d="M292.935 15.1388C290.374 22.0522 290.309 23.6541 292.522 22.7548C293.444 22.3801 297.735 11.9706 298.138 9.08548C298.33 8.14809 296.958 7.41651 295.888 7.77972C295.704 7.85466 294.404 11.1759 292.935 15.1388Z" fill="#094C3B"/>
<path d="M16.5201 129.708C16.4971 130.004 16.6779 131.506 16.9816 132.958C18.0947 138.163 16.4764 144.049 12.9141 148.146C10.9188 150.461 11.7162 152.071 14.4974 151.513C19.5067 150.623 24.0691 153.567 27.2202 159.734C29.9602 165.066 30.5308 165.765 31.8829 165.215C32.6819 164.89 32.9488 164.137 32.72 162.87C31.2454 154.661 31.7014 148.03 34.3355 140.944C35.4644 137.907 36.1151 135.279 35.7194 135.01C35.4101 134.778 33.8716 135.045 32.335 135.669C27.2338 137.743 23.2709 136.274 20.3235 131.313C19.3033 129.508 18.4734 128.699 17.6859 128.876C17.0828 128.978 16.6045 129.387 16.5201 129.708ZM29.2144 139.444C30.3591 139.265 31.3445 139.223 31.3945 139.346C31.4694 139.53 31.0087 140.863 30.4749 142.369C29.8797 143.9 29.208 147.181 28.9511 149.721C28.7806 152.296 28.3737 154.467 28.1893 154.542C27.9435 154.642 27.2865 153.906 26.591 152.9C25.8455 151.771 23.8054 150.451 21.2371 149.418L16.965 147.717L18.0653 146.196C18.6645 145.379 19.5015 143.034 20.0083 141.109L20.8259 137.483L23.9493 138.648C25.7147 139.291 28.0696 139.623 29.2144 139.444Z" fill="#094C3B"/>
<path d="M301.597 23.9372C299.06 26.329 298.192 27.5412 298.516 28.3402C299.116 29.8153 299.828 29.454 304.34 25.4004C307.159 22.8222 307.991 21.6965 307.641 20.836C307.016 19.2995 305.898 19.897 301.597 23.9372Z" fill="#094C3B"/>
</g>
</svg>
