<svg width="213" height="241" viewBox="0 0 213 241" fill="none" xmlns="http://www.w3.org/2000/svg">
<path opacity="0.5" d="M99.1732 72.8389C93.5725 71.1005 77.7126 71.9525 68.7116 74.4651C64.4884 75.6096 58.4401 77.877 55.2544 79.4627C49.8662 82.1945 49.3039 82.2923 46.6791 80.6862C39.665 76.5092 19.3541 68.6692 6.24989 65.0573C-8.52091 61.0431 -30.0855 57.4479 -32.347 58.6609C-34.3056 59.6657 -33.2107 62.0608 -30.6045 62.3421C-15.9966 63.7143 10.1032 69.1766 16.9216 72.229C18.4857 73.0166 18.8614 75.014 19.2849 85.975C19.8046 99.519 21.8622 107.285 26.2373 112.698C29.2379 116.302 33.9736 118.346 37.6578 117.677C41.0904 117.023 45.4225 112.525 46.4401 108.548C48.006 102.2 44.8302 91.661 38.9828 83.8761C35.4013 79.0454 35.7865 79.1479 49.2494 86.5264C59.7099 92.3219 73.8002 101.682 79.5437 106.758L83.2836 110.064L79.9128 116.839C72.8916 130.974 71.3207 143.384 75.2918 152.485C80.0752 163.492 91.1354 166.725 95.9973 158.532C98.9145 153.616 97.0702 134.976 92.3398 121.755L90.4964 116.438L93.9692 119.508C102.918 127.417 117.375 145.785 125.764 159.98C130.554 168.019 130.644 168.456 131.242 178.143C132.219 193.995 137.478 205.542 148.03 214.868C152.772 219.059 154.611 220.208 158.07 221.005C162.492 222.059 167.78 220.785 170.2 218.047C174.804 212.838 172.227 201.757 163.129 188.363C158.468 181.389 146.634 171.763 139.395 169.053C134.423 167.276 134.156 167.039 132.362 163.551C131.298 161.659 128.205 156.546 125.476 152.231C121.141 145.426 120.835 144.561 122.926 145.695C137.968 154.112 161.793 158.515 170.901 154.67C178.774 151.28 179.037 142.234 171.282 135.261C165.665 130.177 157.473 128.409 143.442 129.212C137.151 129.6 128.517 130.89 124.109 132.109C119.826 133.32 115.67 134.524 114.797 134.704C113.429 135.041 112.494 134.214 107.392 128.278C101.547 121.566 79.5874 101.325 73.5954 97.3379C71.949 96.2397 69.1751 94.2639 67.462 93.1066L64.236 90.9693L72.0191 92.2573C81.2761 93.8964 93.8757 94.4453 99.5061 93.5928C112.949 91.4376 112.753 76.9897 99.1732 72.8389ZM105.271 82.629C106.701 88.4132 99.0761 90.7147 82.3294 89.4744C73.7045 88.8698 61.5663 86.5875 62.3336 85.7193C62.8649 85.1183 75.2098 84.6094 80.7252 84.9638C83.2647 85.1861 84.6921 84.7823 85.0742 83.8116C85.3383 82.9744 85.284 82.0937 84.9501 81.7986C84.2154 81.1493 74.2579 80.4375 67.5744 80.5971L62.8449 80.6994L66.7419 79.3856C77.3831 75.8246 90.5777 74.7582 98.1557 76.8166C102.778 78.0469 104.507 79.4558 105.271 82.629ZM172.553 144.591C172.863 149.624 170.129 151.371 161.684 151.639C153.114 151.915 143.086 150.071 133.697 146.293C124.19 142.649 123.15 141.135 130.524 141.943C139.75 143.078 149.202 142.748 149.435 141.408C149.822 139.489 147.523 138.053 144.763 138.349C141.063 138.767 123.503 137.64 123.397 136.952C123.335 135.945 138.08 133.394 146.517 133C161.378 132.336 172.087 137.043 172.553 144.591ZM92.3887 138.927C93.9849 148.427 93.8261 155.067 91.8783 157.271C90.2256 159.141 84.9183 159.089 82.7144 157.141C79.9094 154.662 76.9401 146.447 77.0226 141.643C77.1875 137.15 80.4452 124.446 81.8028 122.91C82.275 122.376 82.5297 123.434 82.3945 125.336C82.2515 127.113 82.1611 131.792 82.2681 135.574C82.448 141.561 82.7695 142.678 84.436 143.08C86.1026 143.483 86.2564 142.905 86.3096 135.577C86.3907 127.679 86.8756 121.208 87.5249 120.474C88.1742 119.739 90.7412 129.621 92.3887 138.927ZM162.762 194.7C168.839 205.186 169.752 213.844 165.111 216.403C157.535 220.533 145.91 211.21 139.271 195.707C136.842 190.111 134.266 177.01 135.524 176.932C135.776 176.916 138.638 181.349 141.881 186.832C145.183 192.249 148.179 196.8 148.69 196.894C151.563 197.412 150.681 194.372 145.028 184.618C141.644 178.891 139.061 173.872 139.297 173.605C140.182 172.603 146.901 177.114 153.069 182.922C157.633 187.313 160.493 190.673 162.762 194.7ZM40.4998 94.1382C43.0498 100.674 42.8553 107.758 40.0811 110.897C35.5952 115.973 29.6217 113.31 25.9845 104.505C24.2778 100.38 21.9895 76.5891 23.3067 76.4448C24.6315 76.4262 28.8418 86.3327 29.4473 91.0312C30.1227 96.862 31.5795 98.9822 33.3502 96.9786C34.0585 96.1772 34.0059 93.2758 33.1285 89.2887C32.3412 85.738 31.8366 82.6751 32.0136 82.4747C32.6474 81.4885 38.793 90.0128 40.4998 94.1382Z" fill="#094C3B"/>
<path opacity="0.5" d="M21.6895 124.431C17.581 123.156 5.94696 123.781 -0.65571 125.624C-3.75367 126.464 -8.19041 128.127 -10.5273 129.29C-14.4798 131.294 -14.8923 131.366 -16.8177 130.187C-21.9629 127.123 -36.862 121.372 -46.4747 118.723C-57.3098 115.778 -73.1285 113.141 -74.7875 114.031C-76.2243 114.768 -75.4211 116.525 -73.5093 116.731C-62.7937 117.738 -43.6481 121.745 -38.6464 123.984C-37.4991 124.561 -37.2234 126.027 -36.9128 134.067C-36.5316 144.002 -35.0222 149.699 -31.8129 153.67C-29.6117 156.313 -26.1379 157.813 -23.4353 157.322C-20.9173 156.843 -17.7395 153.543 -16.9931 150.625C-15.8444 145.969 -18.174 138.238 -22.4634 132.527C-25.0906 128.984 -24.808 129.059 -14.9323 134.472C-7.25894 138.723 3.07698 145.589 7.29014 149.313L10.0336 151.737L7.56095 156.707C2.41054 167.076 1.25819 176.18 4.1712 182.855C7.68002 190.93 15.7933 193.302 19.3598 187.292C21.4997 183.686 20.1468 170.012 16.6768 160.314L15.3245 156.414L17.872 158.665C24.4367 164.467 35.0412 177.941 41.1955 188.353C44.709 194.251 44.7751 194.571 45.2134 201.677C45.9306 213.306 49.788 221.776 57.5285 228.617C61.0068 231.691 62.3558 232.534 64.8931 233.119C68.1368 233.892 72.0164 232.957 73.7916 230.949C77.1688 227.128 75.2779 218.999 68.604 209.174C65.1851 204.058 56.5047 196.997 51.1942 195.009C47.5472 193.705 47.3512 193.532 46.0354 190.973C45.255 189.585 42.9856 185.834 40.9839 182.669C37.8042 177.678 37.5798 177.043 39.1133 177.875C50.1477 184.049 67.6241 187.279 74.3055 184.458C80.081 181.972 80.2739 175.336 74.5853 170.221C70.4644 166.492 64.4555 165.195 54.1625 165.783C49.5481 166.068 43.2144 167.015 39.9808 167.909C36.8396 168.797 33.7906 169.68 33.1503 169.812C32.1465 170.059 31.4606 169.453 27.7181 165.098C23.4309 160.175 7.32225 145.327 2.92674 142.402C1.71906 141.597 -0.31576 140.147 -1.57243 139.299L-3.9388 137.731L1.77048 138.675C8.561 139.878 17.8035 140.28 21.9337 139.655C31.7949 138.074 31.6507 127.476 21.6895 124.431ZM26.1622 131.613C27.2114 135.856 21.6182 137.544 9.33364 136.634C3.00681 136.191 -5.8972 134.516 -5.33432 133.88C-4.94464 133.439 4.111 133.065 8.15685 133.325C10.0197 133.488 11.0668 133.192 11.3471 132.48C11.5408 131.866 11.501 131.22 11.256 131.004C10.7171 130.527 3.41272 130.005 -1.48995 130.122L-4.95929 130.197L-2.10059 129.233C5.70528 126.621 15.3842 125.839 20.943 127.349C24.3337 128.251 25.6018 129.285 26.1622 131.613ZM75.517 177.065C75.7447 180.757 73.7393 182.038 67.5446 182.235C61.2576 182.438 53.902 181.085 47.0147 178.314C40.0408 175.64 39.2775 174.53 44.6872 175.122C51.4549 175.955 58.3879 175.713 58.5589 174.73C58.8427 173.323 57.1564 172.269 55.1318 172.486C52.4178 172.793 39.5363 171.966 39.4588 171.461C39.4133 170.723 50.2293 168.852 56.4183 168.562C67.3197 168.075 75.1754 171.528 75.517 177.065ZM16.7126 172.911C17.8835 179.879 17.7671 184.75 16.3382 186.366C15.1259 187.738 11.2327 187.7 9.61602 186.271C7.55844 184.453 5.38028 178.427 5.44084 174.903C5.56177 171.607 7.95147 162.288 8.94733 161.161C9.29371 160.769 9.48052 161.545 9.38134 162.941C9.27645 164.244 9.21019 167.676 9.28867 170.45C9.42062 174.843 9.65643 175.662 10.8789 175.957C12.1015 176.252 12.2143 175.828 12.2533 170.453C12.3128 164.659 12.6685 159.913 13.1448 159.374C13.6211 158.835 15.5041 166.083 16.7126 172.911ZM68.3349 213.823C72.7928 221.515 73.4625 227.866 70.058 229.743C64.5012 232.773 55.9734 225.934 51.1032 214.561C49.3215 210.456 47.4317 200.846 48.3546 200.789C48.5392 200.777 50.6389 204.029 53.0177 208.051C55.4398 212.024 57.6374 215.363 58.0122 215.432C60.12 215.812 59.473 213.582 55.3261 206.427C52.8436 202.226 50.9491 198.544 51.1223 198.348C51.7717 197.614 56.7004 200.922 61.2246 205.183C64.573 208.404 66.6705 210.868 68.3349 213.823ZM-21.3506 140.055C-19.48 144.85 -19.6227 150.046 -21.6577 152.349C-24.9483 156.072 -29.3302 154.119 -31.9983 147.66C-33.2503 144.634 -34.9288 127.182 -33.9626 127.076C-32.9908 127.063 -29.9023 134.33 -29.4582 137.776C-28.9627 142.053 -27.8941 143.609 -26.5952 142.139C-26.0756 141.551 -26.1142 139.423 -26.7578 136.498C-27.3353 133.893 -27.7055 131.646 -27.5756 131.499C-27.1107 130.776 -22.6026 137.029 -21.3506 140.055Z" fill="#094C3B"/>
</svg>
