<svg width="131" height="137" viewBox="0 0 131 137" fill="none" xmlns="http://www.w3.org/2000/svg">
<path opacity="0.5" d="M65.0194 12.0516C69.7013 10.5985 82.9589 11.3107 90.483 13.4111C94.0133 14.3678 99.0692 16.2631 101.732 17.5886C106.236 19.8722 106.706 19.954 108.901 18.6114C114.764 15.1198 131.742 8.56611 142.696 5.54688C155.044 2.19129 173.07 -0.814007 174.96 0.199922C176.598 1.03988 175.682 3.042 173.504 3.27712C161.293 4.42417 139.475 8.9903 133.776 11.5419C132.468 12.2002 132.154 13.8699 131.8 23.0325C131.366 34.3542 129.646 40.8461 125.988 45.3711C123.48 48.3834 119.521 50.0923 116.442 49.5329C113.572 48.9864 109.951 45.2265 109.1 41.9014C107.791 36.5951 110.446 27.7855 115.334 21.2779C118.328 17.2398 118.006 17.3256 106.752 23.4933C98.0078 28.338 86.2294 36.1625 81.4283 40.4058L78.3019 43.1689L81.1197 48.8322C86.9889 60.6483 88.302 71.0222 84.9825 78.6294C80.984 87.8311 71.7385 90.5335 67.6743 83.6848C65.2357 79.5756 66.7774 63.9939 70.7317 52.942L72.2726 48.4976L69.3696 51.0633C61.8887 57.675 49.8043 73.0287 42.7912 84.8948C38.7873 91.6154 38.7121 91.9802 38.2126 100.078C37.3953 113.329 32.9995 122.982 24.1788 130.777C20.2151 134.281 18.6779 135.241 15.7864 135.908C12.09 136.788 7.66905 135.724 5.64608 133.435C1.79752 129.08 3.95234 119.818 11.5576 108.621C15.4537 102.792 25.3455 94.7451 31.3971 92.4791C35.5531 90.9936 35.7764 90.7962 37.2759 87.88C38.1652 86.2986 40.7513 82.0242 43.0323 78.4173C46.6558 72.729 46.9115 72.0058 45.164 72.9537C32.5897 79.9901 12.6743 83.6707 5.06049 80.4563C-1.52105 77.6223 -1.74085 70.0606 4.74159 64.232C9.43756 59.9822 16.2851 58.5043 28.0145 59.175C33.2729 59.4993 40.4906 60.5779 44.1754 61.5969C47.755 62.6095 51.2295 63.6155 51.9592 63.7661C53.103 64.0478 53.8846 63.357 58.1495 58.3945C63.035 52.784 81.3917 35.8641 86.4006 32.531C87.7768 31.6129 90.0956 29.9613 91.5277 28.994L94.2243 27.2073L87.7182 28.2839C79.9801 29.6541 69.4478 30.1129 64.7412 29.4004C53.5037 27.5988 53.668 15.5214 65.0194 12.0516ZM59.9225 20.2355C58.7269 25.0706 65.1007 26.9945 79.0996 25.9577C86.3094 25.4523 96.456 23.5445 95.8146 22.8187C95.3705 22.3163 85.0511 21.8909 80.4406 22.1872C78.3178 22.373 77.1246 22.0354 76.8051 21.224C76.5844 20.5242 76.6298 19.788 76.9089 19.5413C77.523 18.9985 85.8468 18.4035 91.4337 18.5369L95.3872 18.6224L92.1296 17.5242C83.2343 14.5475 72.2047 13.656 65.87 15.3767C62.0062 16.4052 60.5611 17.5829 59.9225 20.2355ZM3.67991 72.0313C3.42046 76.238 5.70564 77.6985 12.7649 77.9228C19.9293 78.1535 28.3114 76.612 36.1599 73.454C44.107 70.4076 44.9768 69.1417 38.8122 69.8171C31.1 70.7666 23.1994 70.4904 23.0046 69.37C22.6813 67.7665 24.6028 66.5654 26.91 66.8133C30.0027 67.1624 44.682 66.2204 44.7702 65.6452C44.8221 64.8038 32.4966 62.6712 25.4439 62.3418C13.0211 61.7867 4.06912 65.7212 3.67991 72.0313ZM70.6908 67.2967C69.3565 75.2376 69.4892 80.7881 71.1175 82.6304C72.499 84.1935 76.9355 84.1505 78.7778 82.5222C81.1225 80.4499 83.6047 73.5828 83.5357 69.5669C83.3978 65.8108 80.6747 55.1916 79.5398 53.9076C79.1451 53.4609 78.9322 54.3451 79.0452 55.9356C79.1648 57.421 79.2403 61.3316 79.1508 64.4931C79.0005 69.4983 78.7318 70.4319 77.3386 70.7682C75.9455 71.1046 75.8169 70.6216 75.7725 64.4959C75.7047 57.8937 75.2993 52.4848 74.7565 51.8707C74.2138 51.2566 72.068 59.5169 70.6908 67.2967ZM11.8643 113.919C6.78422 122.684 6.02114 129.921 9.90075 132.061C16.233 135.513 25.9509 127.72 31.5008 114.76C33.5312 110.082 35.6846 99.1304 34.633 99.0656C34.4226 99.0526 32.0299 102.758 29.3192 107.342C26.5591 111.869 24.0547 115.673 23.6275 115.753C21.2256 116.185 21.9629 113.644 26.6886 105.49C29.5175 100.703 31.6765 96.5079 31.4791 96.2846C30.739 95.4472 25.1224 99.2179 19.9669 104.073C16.1512 107.743 13.761 110.552 11.8643 113.919ZM114.066 29.8563C111.934 35.3199 112.097 41.2417 114.416 43.8656C118.166 48.1085 123.159 45.8828 126.2 38.5222C127.626 35.0737 129.539 15.1866 128.438 15.0659C127.331 15.0504 123.811 23.3315 123.305 27.2591C122.741 32.1332 121.523 33.9055 120.043 32.2307C119.45 31.5607 119.494 29.1354 120.228 25.8025C120.886 22.8344 121.308 20.274 121.16 20.1065C120.63 19.2821 115.493 26.4077 114.066 29.8563Z" fill="#094C3B"/>
</svg>
