<svg width="211" height="241" viewBox="0 0 211 241" fill="none" xmlns="http://www.w3.org/2000/svg">
<path opacity="0.5" d="M113.04 72.8389C118.641 71.1006 134.501 71.9525 143.502 74.4652C147.725 75.6097 153.773 77.8771 156.959 79.4627C162.347 82.1945 162.91 82.2924 165.535 80.6862C172.549 76.5093 192.86 68.6693 205.964 65.0574C220.735 61.0432 242.299 57.448 244.561 58.6609C246.519 59.6658 245.424 62.0609 242.818 62.3421C228.21 63.7143 202.11 69.1767 195.292 72.2291C193.728 73.0166 193.352 75.0141 192.929 85.9751C192.409 99.5191 190.351 107.285 185.976 112.698C182.976 116.302 178.24 118.346 174.556 117.677C171.123 117.023 166.791 112.525 165.774 108.548C164.208 102.2 167.383 91.6611 173.231 83.8761C176.812 79.0455 176.427 79.148 162.964 86.5264C152.504 92.3219 138.413 101.682 132.67 106.758L128.93 110.064L132.301 116.839C139.322 130.974 140.893 143.384 136.922 152.485C132.138 163.492 121.078 166.725 116.216 158.532C113.299 153.617 115.143 134.976 119.874 121.755L121.717 116.439L118.244 119.508C109.295 127.417 94.8389 145.785 86.4491 159.98C81.6594 168.019 81.5694 168.456 80.9719 178.143C79.9941 193.995 74.7355 205.542 64.1835 214.868C59.4418 219.059 57.6028 220.208 54.1439 221.005C49.722 222.059 44.4332 220.785 42.0132 218.047C37.4092 212.838 39.987 201.757 49.085 188.363C53.7459 181.389 65.5793 171.763 72.8186 169.053C77.7904 167.276 78.0575 167.04 79.8513 163.551C80.9151 161.659 84.0089 156.546 86.7376 152.231C91.0723 145.426 91.3783 144.561 89.2877 145.695C74.2453 154.112 50.4209 158.515 41.3127 154.67C33.4393 151.28 33.1764 142.234 40.9312 135.261C46.5489 130.177 54.7404 128.409 68.7721 129.212C75.0626 129.6 83.697 130.89 88.105 132.109C92.3873 133.32 96.5437 134.524 97.4166 134.704C98.785 135.041 99.72 134.215 104.822 128.278C110.666 121.566 132.626 101.325 138.618 97.3379C140.265 96.2397 143.039 94.2639 144.752 93.1067L147.978 90.9693L140.195 92.2573C130.937 93.8964 118.338 94.4453 112.707 93.5929C99.2644 91.4377 99.4609 76.9898 113.04 72.8389ZM106.943 82.6291C105.513 88.4133 113.138 90.7148 129.884 89.4745C138.509 88.8699 150.647 86.5876 149.88 85.7194C149.349 85.1183 137.004 84.6095 131.488 84.9639C128.949 85.1861 127.522 84.7824 127.139 83.8116C126.875 82.9745 126.93 82.0938 127.264 81.7987C127.998 81.1494 137.956 80.4375 144.639 80.5972L149.369 80.6995L145.472 79.3856C134.83 75.8247 121.636 74.7583 114.058 76.8166C109.436 78.047 107.707 79.4558 106.943 82.6291ZM39.6611 144.591C39.3507 149.624 42.0844 151.371 50.5293 151.639C59.0999 151.915 69.1273 150.071 78.5162 146.293C88.0232 142.649 89.0638 141.135 81.6892 141.943C72.4632 143.079 63.0119 142.748 62.7789 141.408C62.3921 139.49 64.6907 138.053 67.4508 138.349C71.1505 138.767 88.7111 137.64 88.8166 136.952C88.8787 135.945 74.134 133.394 65.6969 133C50.8358 132.336 40.1267 137.043 39.6611 144.591ZM119.825 138.928C118.229 148.427 118.387 155.067 120.335 157.271C121.988 159.141 127.295 159.089 129.499 157.142C132.304 154.662 135.274 146.447 135.191 141.643C135.026 137.15 131.768 124.446 130.411 122.91C129.939 122.376 129.684 123.434 129.819 125.336C129.962 127.113 130.052 131.792 129.945 135.574C129.766 141.561 129.444 142.678 127.778 143.08C126.111 143.483 125.957 142.905 125.904 135.577C125.823 127.679 125.338 121.208 124.689 120.474C124.039 119.739 121.472 129.621 119.825 138.928ZM49.4519 194.7C43.3747 205.186 42.4619 213.844 47.103 216.404C54.6782 220.533 66.3035 211.21 72.9427 195.707C75.3716 190.111 77.9477 177.01 76.6896 176.932C76.438 176.916 73.5757 181.349 70.3328 186.832C67.031 192.249 64.0351 196.8 63.5241 196.894C60.6507 197.412 61.5327 194.372 67.1859 184.618C70.5701 178.891 73.1528 173.872 72.9167 173.605C72.0313 172.603 65.3124 177.114 59.1449 182.922C54.5802 187.313 51.7209 190.673 49.4519 194.7ZM171.714 94.1382C169.164 100.674 169.358 107.758 172.132 110.897C176.618 115.973 182.592 113.31 186.229 104.505C187.936 100.38 190.224 76.5892 188.907 76.4448C187.582 76.4262 183.372 86.3328 182.766 91.0313C182.091 96.8621 180.634 98.9823 178.863 96.9787C178.155 96.1773 178.208 93.2759 179.085 89.2888C179.872 85.7381 180.377 82.6751 180.2 82.4748C179.566 81.4885 173.421 90.0128 171.714 94.1382Z" fill="#094C3B"/>
<path opacity="0.5" d="M190.524 124.431C194.633 123.156 206.267 123.781 212.869 125.624C215.967 126.464 220.404 128.127 222.741 129.29C226.693 131.294 227.106 131.366 229.031 130.188C234.177 127.124 249.076 121.372 258.688 118.723C269.523 115.778 285.342 113.141 287.001 114.031C288.438 114.768 287.635 116.525 285.723 116.731C275.007 117.738 255.862 121.745 250.86 123.984C249.713 124.562 249.437 126.027 249.126 134.067C248.745 144.002 247.236 149.699 244.026 153.67C241.825 156.314 238.352 157.813 235.649 157.322C233.131 156.843 229.953 153.543 229.207 150.625C228.058 145.969 230.388 138.238 234.677 132.528C237.304 128.984 237.022 129.059 227.146 134.472C219.473 138.723 209.137 145.589 204.923 149.313L202.18 151.738L204.653 156.707C209.803 167.076 210.955 176.18 208.042 182.855C204.534 190.93 196.42 193.302 192.854 187.292C190.714 183.686 192.067 170.012 195.537 160.314L196.889 156.414L194.342 158.665C187.777 164.467 177.172 177.941 171.018 188.354C167.505 194.251 167.439 194.571 167 201.677C166.283 213.306 162.426 221.776 154.685 228.617C151.207 231.691 149.858 232.534 147.321 233.119C144.077 233.892 140.197 232.958 138.422 230.949C135.045 227.128 136.936 218.999 143.61 209.174C147.029 204.058 155.709 196.997 161.019 195.009C164.666 193.705 164.862 193.532 166.178 190.973C166.959 189.585 169.228 185.834 171.23 182.669C174.409 177.678 174.634 177.043 173.1 177.875C162.066 184.049 144.589 187.279 137.908 184.459C132.133 181.972 131.94 175.336 137.628 170.221C141.749 166.492 147.758 165.195 158.051 165.783C162.666 166.068 168.999 167.015 172.233 167.909C175.374 168.797 178.423 169.68 179.063 169.812C180.067 170.06 180.753 169.453 184.496 165.099C188.783 160.175 204.891 145.327 209.287 142.402C210.495 141.597 212.529 140.147 213.786 139.299L216.152 137.731L210.443 138.676C203.653 139.878 194.41 140.281 190.28 139.655C180.419 138.074 180.563 127.476 190.524 124.431ZM186.051 131.613C185.002 135.856 190.595 137.544 202.88 136.634C209.207 136.191 218.111 134.517 217.548 133.88C217.158 133.439 208.103 133.065 204.057 133.325C202.194 133.488 201.147 133.192 200.867 132.48C200.673 131.866 200.713 131.22 200.958 131.004C201.496 130.527 208.801 130.005 213.704 130.122L217.173 130.197L214.314 129.233C206.508 126.621 196.829 125.839 191.271 127.349C187.88 128.252 186.612 129.285 186.051 131.613ZM136.697 177.065C136.469 180.757 138.474 182.039 144.669 182.235C150.956 182.438 158.312 181.085 165.199 178.314C172.173 175.641 172.936 174.53 167.526 175.122C160.759 175.956 153.826 175.713 153.655 174.73C153.371 173.323 155.057 172.269 157.082 172.486C159.796 172.793 172.677 171.966 172.755 171.461C172.8 170.723 161.984 168.852 155.795 168.562C144.894 168.075 137.038 171.528 136.697 177.065ZM195.501 172.911C194.33 179.879 194.447 184.75 195.875 186.366C197.088 187.738 200.981 187.7 202.598 186.271C204.655 184.453 206.833 178.427 206.773 174.903C206.652 171.607 204.262 162.288 203.266 161.161C202.92 160.769 202.733 161.545 202.832 162.941C202.937 164.244 203.003 167.676 202.925 170.45C202.793 174.843 202.557 175.662 201.335 175.957C200.112 176.252 199.999 175.828 199.96 170.453C199.901 164.659 199.545 159.913 199.069 159.374C198.593 158.835 196.71 166.083 195.501 172.911ZM143.879 213.823C139.421 221.515 138.751 227.866 142.156 229.743C147.712 232.773 156.24 225.934 161.11 214.562C162.892 210.456 164.782 200.846 163.859 200.789C163.674 200.777 161.575 204.029 159.196 208.051C156.774 212.024 154.576 215.363 154.201 215.432C152.094 215.812 152.741 213.582 156.888 206.427C159.37 202.226 161.265 198.544 161.091 198.348C160.442 197.614 155.513 200.923 150.989 205.183C147.641 208.404 145.543 210.869 143.879 213.823ZM233.564 140.055C231.694 144.85 231.836 150.046 233.871 152.349C237.162 156.072 241.544 154.119 244.212 147.66C245.464 144.634 247.142 127.182 246.176 127.076C245.204 127.063 242.116 134.33 241.672 137.776C241.176 142.053 240.108 143.609 238.809 142.139C238.289 141.551 238.328 139.423 238.971 136.498C239.549 133.893 239.919 131.647 239.789 131.5C239.324 130.776 234.816 137.029 233.564 140.055Z" fill="#094C3B"/>
</svg>
