<svg width="211" height="241" viewBox="0 0 211 241" fill="none" xmlns="http://www.w3.org/2000/svg">
<path opacity="0.5" d="M97.1735 72.8389C91.5727 71.1006 75.7129 71.9525 66.7119 74.4652C62.4887 75.6097 56.4404 77.8771 53.2547 79.4627C47.8665 82.1945 47.3042 82.2924 44.6793 80.6862C37.6653 76.5093 17.3544 68.6693 4.25014 65.0574C-10.5207 61.0432 -32.0852 57.448 -34.3467 58.6609C-36.3054 59.6658 -35.2105 62.0609 -32.6042 62.3421C-17.9964 63.7143 8.10344 69.1767 14.9219 72.2291C16.4859 73.0166 16.8617 75.0141 17.2852 85.9751C17.8048 99.5191 19.8624 107.285 24.2376 112.698C27.2382 116.302 31.9738 118.346 35.658 117.677C39.0907 117.023 43.4228 112.525 44.4403 108.548C46.0063 102.2 42.8305 91.6611 36.983 83.8761C33.4016 79.0455 33.7868 79.148 47.2496 86.5264C57.7102 92.3219 71.8004 101.682 77.5439 106.758L81.2839 110.064L77.9131 116.839C70.8919 130.974 69.321 143.384 73.2921 152.485C78.0754 163.492 89.1356 166.725 93.9976 158.532C96.9148 153.617 95.0705 134.976 90.34 121.755L88.4967 116.439L91.9695 119.508C100.919 127.417 115.375 145.785 123.765 159.98C128.554 168.019 128.644 168.456 129.242 178.143C130.22 193.995 135.478 205.542 146.03 214.868C150.772 219.059 152.611 220.208 156.07 221.005C160.492 222.059 165.781 220.785 168.201 218.047C172.805 212.838 170.227 201.757 161.129 188.363C156.468 181.389 144.635 171.763 137.395 169.053C132.424 167.276 132.156 167.04 130.363 163.551C129.299 161.659 126.205 156.546 123.476 152.231C119.142 145.426 118.836 144.561 120.926 145.695C135.969 154.112 159.793 158.515 168.901 154.67C176.775 151.28 177.038 142.234 169.283 135.261C163.665 130.177 155.473 128.409 141.442 129.212C135.151 129.6 126.517 130.89 122.109 132.109C117.827 133.32 113.67 134.524 112.797 134.704C111.429 135.041 110.494 134.215 105.392 128.278C99.5475 121.566 77.5877 101.325 71.5956 97.3379C69.9493 96.2397 67.1753 94.2639 65.4622 93.1067L62.2363 90.9693L70.0193 92.2573C79.2764 93.8964 91.876 94.4453 97.5064 93.5929C110.95 91.4377 110.753 76.9898 97.1735 72.8389ZM103.271 82.6291C104.701 88.4133 97.0763 90.7148 80.3297 89.4745C71.7047 88.8699 59.5665 86.5876 60.3339 85.7194C60.8651 85.1183 73.21 84.6095 78.7254 84.9639C81.2649 85.1861 82.6923 84.7824 83.0745 83.8116C83.3386 82.9745 83.2842 82.0938 82.9503 81.7987C82.2157 81.1494 72.2581 80.4375 65.5746 80.5972L60.8451 80.6995L64.7422 79.3856C75.3834 75.8247 88.5779 74.7583 96.1559 76.8166C100.778 78.047 102.507 79.4558 103.271 82.6291ZM170.553 144.591C170.863 149.624 168.129 151.371 159.685 151.639C151.114 151.915 141.087 150.071 131.698 146.293C122.191 142.649 121.15 141.135 128.525 141.943C137.751 143.079 147.202 142.748 147.435 141.408C147.822 139.49 145.523 138.053 142.763 138.349C139.063 138.767 121.503 137.64 121.397 136.952C121.335 135.945 136.08 133.394 144.517 133C159.378 132.336 170.087 137.043 170.553 144.591ZM90.3889 138.928C91.9851 148.427 91.8264 155.067 89.8785 157.271C88.2258 159.141 82.9185 159.089 80.7146 157.142C77.9097 154.662 74.9403 146.447 75.0229 141.643C75.1878 137.15 78.4455 124.446 79.803 122.91C80.2752 122.376 80.5299 123.434 80.3947 125.336C80.2517 127.113 80.1614 131.792 80.2684 135.574C80.4483 141.561 80.7697 142.678 82.4363 143.08C84.1029 143.483 84.2566 142.905 84.3098 135.577C84.391 127.679 84.8759 121.208 85.5252 120.474C86.1744 119.739 88.7414 129.621 90.3889 138.928ZM160.762 194.7C166.839 205.186 167.752 213.844 163.111 216.404C155.536 220.533 143.91 211.21 137.271 195.707C134.842 190.111 132.266 177.01 133.524 176.932C133.776 176.916 136.638 181.349 139.881 186.832C143.183 192.249 146.179 196.8 146.69 196.894C149.563 197.412 148.681 194.372 143.028 184.618C139.644 178.891 137.061 173.872 137.297 173.605C138.183 172.603 144.901 177.114 151.069 182.922C155.634 187.313 158.493 190.673 160.762 194.7ZM38.5 94.1382C41.0501 100.674 40.8556 107.758 38.0814 110.897C33.5955 115.973 27.622 113.31 23.9848 104.505C22.278 100.38 19.9898 76.5892 21.3069 76.4448C22.6318 76.4262 26.842 86.3328 27.4476 91.0313C28.1229 96.8621 29.5797 98.9823 31.3505 96.9787C32.0588 96.1773 32.0061 93.2759 31.1287 89.2888C30.3414 85.7381 29.8368 82.6751 30.0139 82.4748C30.6476 81.4885 36.7933 90.0128 38.5 94.1382Z" fill="#094C3B"/>
<path opacity="0.5" d="M19.6897 124.431C15.5812 123.156 3.94721 123.781 -2.65547 125.624C-5.75342 126.464 -10.1902 128.127 -12.527 129.29C-16.4796 131.294 -16.892 131.366 -18.8175 130.188C-23.9627 127.124 -38.8618 121.372 -48.4744 118.723C-59.3096 115.778 -75.1283 113.141 -76.7873 114.031C-78.224 114.768 -77.4209 116.525 -75.509 116.731C-64.7934 117.738 -45.6478 121.745 -40.6462 123.984C-39.4988 124.562 -39.2232 126.027 -38.9125 134.067C-38.5314 144.002 -37.022 149.699 -33.8126 153.67C-31.6115 156.314 -28.1377 157.813 -25.4351 157.322C-22.9171 156.843 -19.7392 153.543 -18.9928 150.625C-17.8441 145.969 -20.1737 138.238 -24.4631 132.528C-27.0903 128.984 -26.8078 129.059 -16.9321 134.472C-9.2587 138.723 1.07722 145.589 5.29039 149.313L8.03384 151.738L5.56119 156.707C0.41078 167.076 -0.741564 176.18 2.17144 182.855C5.68027 190.93 13.7935 193.302 17.36 187.292C19.4999 183.686 18.147 170.012 14.677 160.314L13.3248 156.414L15.8723 158.665C22.437 164.467 33.0415 177.941 39.1958 188.354C42.7092 194.251 42.7753 194.571 43.2136 201.677C43.9308 213.306 47.7883 221.776 55.5288 228.617C59.0071 231.691 60.356 232.534 62.8933 233.119C66.1371 233.892 70.0166 232.958 71.7918 230.949C75.1691 227.128 73.2782 218.999 66.6043 209.174C63.1853 204.058 54.5049 196.997 49.1945 195.009C45.5474 193.705 45.3515 193.532 44.0356 190.973C43.2552 189.585 40.9858 185.834 38.9841 182.669C35.8044 177.678 35.58 177.043 37.1135 177.875C48.1479 184.049 65.6244 187.279 72.3057 184.459C78.0812 181.972 78.2741 175.336 72.5856 170.221C68.4647 166.492 62.4558 165.195 52.1628 165.783C47.5484 166.068 41.2146 167.015 37.9811 167.909C34.8398 168.797 31.7909 169.68 31.1505 169.812C30.1467 170.06 29.4609 169.453 25.7183 165.099C21.4311 160.175 5.32249 145.327 0.926989 142.402C-0.280693 141.597 -2.31552 140.147 -3.57218 139.299L-5.93856 137.731L-0.229275 138.676C6.56124 139.878 15.8037 140.281 19.9339 139.655C29.7951 138.074 29.651 127.476 19.6897 124.431ZM24.1625 131.613C25.2116 135.856 19.6184 137.544 7.33389 136.634C1.00705 136.191 -7.89695 134.517 -7.33408 133.88C-6.9444 133.439 2.11124 133.065 6.15709 133.325C8.01994 133.488 9.06702 133.192 9.34734 132.48C9.54106 131.866 9.50121 131.22 9.25626 131.004C8.71737 130.527 1.41296 130.005 -3.4897 130.122L-6.95905 130.197L-4.10035 129.233C3.70552 126.621 13.3844 125.839 18.9433 127.349C22.334 128.252 23.602 129.285 24.1625 131.613ZM73.5172 177.065C73.7449 180.757 71.7396 182.039 65.5449 182.235C59.2579 182.438 51.9022 181.085 45.015 178.314C38.0411 175.641 37.2778 174.53 42.6874 175.122C49.4552 175.956 56.3882 175.713 56.5591 174.73C56.8429 173.323 55.1567 172.269 53.132 172.486C50.4181 172.793 37.5365 171.966 37.4591 171.461C37.4135 170.723 48.2296 168.852 54.4186 168.562C65.32 168.075 73.1757 171.528 73.5172 177.065ZM14.7129 172.911C15.8838 179.879 15.7673 184.75 14.3385 186.366C13.1261 187.738 9.23295 187.7 7.61627 186.271C5.55868 184.453 3.38052 178.427 3.44109 174.903C3.56202 171.607 5.95171 162.288 6.94757 161.161C7.29395 160.769 7.48077 161.545 7.38158 162.941C7.27669 164.244 7.21044 167.676 7.28892 170.45C7.42087 174.843 7.65667 175.662 8.87919 175.957C10.1017 176.252 10.2145 175.828 10.2535 170.453C10.3131 164.659 10.6688 159.913 11.1451 159.374C11.6213 158.835 13.5043 166.083 14.7129 172.911ZM66.3352 213.823C70.7931 221.515 71.4627 227.866 68.0582 229.743C62.5014 232.773 53.9737 225.934 49.1035 214.562C47.3217 210.456 45.432 200.846 46.3549 200.789C46.5395 200.777 48.6391 204.029 51.0179 208.051C53.44 212.024 55.6376 215.363 56.0125 215.432C58.1203 215.812 57.4732 213.582 53.3263 206.427C50.8439 202.226 48.9493 198.544 49.1225 198.348C49.772 197.614 54.7007 200.923 59.2249 205.183C62.5733 208.404 64.6707 210.869 66.3352 213.823ZM-23.3503 140.055C-21.4798 144.85 -21.6224 150.046 -23.6574 152.349C-26.9481 156.072 -31.33 154.119 -33.998 147.66C-35.25 144.634 -36.9286 127.182 -35.9624 127.076C-34.9905 127.063 -31.9021 134.33 -31.4579 137.776C-30.9625 142.053 -29.8939 143.609 -28.5949 142.139C-28.0753 141.551 -28.114 139.423 -28.7576 136.498C-29.3351 133.893 -29.7053 131.647 -29.5754 131.5C-29.1105 130.776 -24.6024 137.029 -23.3503 140.055Z" fill="#094C3B"/>
</svg>
