<svg width="356" height="322" viewBox="0 0 356 322" fill="none" xmlns="http://www.w3.org/2000/svg">
<path d="M324.359 2.09872C323.842 3.44241 322.189 7.78355 320.638 11.918C316.297 23.7011 306.581 36.2077 295.832 43.9597C293.351 45.7168 293.041 46.337 294.075 47.6807C294.798 48.5076 296.142 49.1277 297.072 49.0244C301.103 48.4042 309.165 50.5748 312.576 53.1588C318.261 57.3966 320.121 62.668 320.121 74.3477C320.121 81.3762 320.535 84.477 321.465 84.7871C324.153 85.8207 325.289 84.3737 325.289 79.4124C325.289 73.004 328.494 62.668 332.421 56.5697C336.556 49.9546 344.204 42.9261 350.82 39.6186C353.817 38.0682 356.194 36.2077 355.988 35.6909C355.781 35.0707 352.577 33.8304 348.856 32.9001C335.936 29.7993 329.01 21.0137 328.804 7.57683C328.7 1.78864 328.39 0.238228 327.047 0.0315094C326.013 -0.175209 324.979 0.651672 324.359 2.09872ZM334.075 30.6262C336.762 32.9001 340.277 35.1741 341.931 35.4842C344.721 36.1043 346.272 38.0682 343.998 38.0682C341.931 38.0682 330.871 49.4378 327.873 54.5025C326.22 57.3966 324.566 59.7739 324.256 59.7739C323.946 59.7739 322.809 58.1201 321.672 56.0529C319.088 51.2983 314.643 47.8874 308.752 46.2336C306.168 45.5101 303.997 44.89 303.79 44.7866C303.687 44.6832 306.271 41.6858 309.682 38.2749C313.093 34.7606 317.848 28.6624 320.225 24.5279L324.669 17.1893L326.943 21.8406C328.287 24.3212 331.491 28.3523 334.075 30.6262Z" fill="white"/>
<path d="M228.648 80.0324C218.415 81.3761 193.298 85.3038 172.833 88.8181C152.368 92.229 124.047 96.9836 109.783 99.3608L83.943 103.702L83.633 106.803C83.3229 109.49 86.1136 145.46 97.4833 287.167C98.9303 305.668 100.584 321.172 100.998 321.689C101.514 322.206 111.334 321.172 123.427 319.312C135.21 317.658 168.905 312.697 198.156 308.356C265.134 298.537 265.651 298.537 267.098 297.296C267.925 296.676 271.026 296.779 276.09 297.503C286.633 299.26 292.628 297.813 299.346 291.715C303.687 287.787 305.961 283.963 317.538 260.603C324.773 245.926 331.285 232.179 332.112 229.905C335.729 219.983 332.628 209.75 324.463 204.065C319.708 200.757 305.031 194.866 280.638 186.494L263.48 180.499L262.86 174.607C262.55 171.403 260.793 149.697 259.139 126.441C257.382 103.082 255.728 82.5131 255.418 80.6526C254.901 77.5518 254.591 77.3451 251.077 77.4484C249.01 77.5518 238.88 78.6888 228.648 80.0324ZM253.868 125.924C255.625 149.491 257.279 170.99 257.589 173.677C257.899 176.468 258.002 178.638 257.795 178.638C257.589 178.638 248.39 176.054 237.33 172.954C213.557 166.132 199.914 163.238 195.366 163.858C192.782 164.271 191.955 164.065 191.955 162.824C191.955 161.997 191.335 161.067 190.714 160.86C188.751 160.137 115.571 172.954 114.331 174.194C113.608 174.917 113.711 175.538 114.744 176.364C115.675 177.191 118.362 177.088 124.77 175.951C157.226 170.266 187.51 165.201 188.854 165.201C189.681 165.201 188.854 166.132 186.993 167.269C184.823 168.612 182.549 171.61 180.482 175.848L177.278 182.359L147.82 188.458C131.696 191.765 118.155 194.969 117.845 195.486C117.535 196.003 117.845 196.933 118.465 197.553C119.706 198.794 120.636 198.69 155.572 191.352C165.288 189.284 173.557 187.837 173.867 188.148C174.28 188.561 168.802 203.652 166.528 208.406C166.528 208.51 156.295 210.473 143.789 212.851C131.386 215.125 120.739 217.502 120.223 218.019C119.602 218.639 119.602 219.362 120.429 220.189C121.36 221.119 126.321 220.499 142.445 217.605C153.918 215.435 163.427 213.884 163.737 214.091C163.944 214.401 162.6 218.949 160.74 224.324L157.432 234.143L139.551 236.52C123.633 238.587 121.67 239.001 121.67 240.758C121.67 243.445 124.047 243.239 152.988 239.104C156.295 238.587 156.812 238.794 156.812 240.655C156.812 245.099 160.223 251.197 164.771 254.608L169.319 258.123L164.357 258.743C141.515 261.637 126.321 264.531 124.564 266.288C124.047 266.805 124.254 267.632 125.081 268.355C126.114 269.182 128.905 268.975 136.243 267.528C147.406 265.254 168.595 262.36 174.073 262.36C176.554 262.36 183.686 264.944 193.919 269.492C202.808 273.317 210.87 276.831 211.903 277.244C213.66 277.761 213.35 278.381 209.733 282.826C207.459 285.513 201.671 291.715 196.916 296.676L188.337 305.565L147.2 311.56C124.667 314.764 105.959 317.245 105.649 316.935C105.029 316.315 102.238 284.066 95.2093 195.176L90.3514 133.677L92.7287 129.542C94.6925 126.131 107.819 105.459 108.75 104.426C109.266 103.805 199.81 88.508 217.278 86.1307C245.599 82.203 249.216 81.7896 250.043 82.4097C250.353 82.7198 252.111 102.358 253.868 125.924ZM98.1034 114.451C94.8993 119.516 91.6951 124.581 90.9716 125.614C89.938 127.268 89.7312 126.958 89.7312 123.444C89.6279 120.653 90.7648 117.656 93.4522 113.108C97.69 105.976 98.5169 105.252 101.721 105.252C103.788 105.252 103.478 106.079 98.1034 114.451ZM91.1783 110.317C89.2144 114.348 88.5943 114.348 88.5943 110.524C88.5943 108.457 89.2144 107.32 90.4548 107.113C93.0388 106.493 93.0388 106.803 91.1783 110.317ZM220.276 172.85C251.284 181.016 297.899 196.313 314.437 203.858C320.949 206.856 327.357 212.334 327.357 214.815C327.357 217.605 299.553 229.905 282.912 234.453C272.473 237.347 255.935 240.655 251.697 240.655C249.733 240.655 249.733 240.551 251.8 237.967C254.178 234.97 254.695 229.388 252.731 227.424C250.56 225.254 244.669 225.977 240.948 228.768C239.087 230.215 237.33 231.352 237.123 231.352C236.813 231.352 236.09 229.078 235.366 226.184C233.919 220.086 232.472 218.742 227.924 219.156C225.237 219.362 224.1 220.189 222.756 222.877L221.102 226.391L217.795 221.843C207.045 207.166 191.645 174.297 193.402 169.749C194.332 167.269 202.084 168.096 220.276 172.85ZM191.231 181.636C194.435 190.628 201.567 205.926 205.805 212.541C207.252 214.918 208.492 217.192 208.492 217.709C208.492 218.122 204.875 219.776 200.534 221.43C191.025 224.944 176.141 232.282 168.389 237.14C162.187 241.171 161.98 241.171 161.98 239.104C161.98 232.799 185.236 173.47 187.717 173.47C188.027 173.47 189.681 177.191 191.231 181.636ZM328.081 225.357C327.667 228.045 322.292 240.241 314.023 256.676C300.587 283.549 295.935 291.301 295.005 288.2C294.798 287.374 293.351 281.689 291.904 275.59C290.354 269.492 287.046 259.156 284.359 252.541C281.775 245.926 279.708 240.448 279.915 240.241C280.121 240.138 286.426 238.071 293.765 235.59C301.207 233.213 311.646 228.975 317.021 226.288C322.396 223.497 327.254 221.223 327.77 221.119C328.287 221.119 328.391 222.98 328.081 225.357ZM216.865 228.665C220.276 233.316 221.826 236.52 222.239 239.931C222.653 242.618 223.583 246.443 224.513 248.51C225.96 252.128 226.27 252.231 229.888 251.714C231.955 251.301 236.09 249.854 239.087 248.407C242.601 246.65 247.563 245.409 253.144 244.789C257.899 244.272 264.307 243.342 267.305 242.722C270.405 242.205 273.196 241.688 273.61 241.688C276.814 241.688 291.491 287.27 289.734 291.818C288.907 294.092 276.71 293.782 267.408 291.301C247.666 285.823 224.927 277.864 205.082 269.492C177.588 257.709 164.047 250.06 164.047 246.339C164.047 244.996 182.652 233.729 190.404 230.319C196.296 227.631 210.87 222.153 211.593 222.153C211.903 222.153 214.281 225.151 216.865 228.665ZM222.239 281.275L225.237 282.516L219.655 288.821C209.629 299.984 205.908 302.878 200.43 303.498C195.779 304.015 195.676 303.911 197.123 302.051C201.671 296.159 217.175 279.932 218.208 279.932C218.828 280.035 220.689 280.552 222.239 281.275ZM233.402 285.306C235.676 285.927 237.433 286.753 237.433 287.063C237.433 287.374 234.643 290.578 231.232 294.092C226.477 299.26 224.513 300.604 222.136 300.604C220.482 300.604 217.485 300.914 215.624 301.327C212.213 301.947 212.317 301.844 220.379 293.058C224.927 288.097 228.751 284.066 228.958 284.066C229.268 284.066 231.232 284.583 233.402 285.306ZM247.046 290.268C247.563 290.681 246.632 292.542 244.979 294.299C242.808 296.779 240.844 297.71 237.02 298.226L231.852 298.847L236.503 293.472C240.327 289.027 241.464 288.2 243.635 288.717C245.082 289.131 246.632 289.751 247.046 290.268ZM260.173 294.505C260.173 295.022 258.829 295.436 257.175 295.436C255.521 295.436 252.627 295.746 250.767 296.056L247.253 296.779L249.63 294.195C251.8 291.818 252.421 291.611 256.142 292.542C258.312 293.162 260.173 293.989 260.173 294.505Z" fill="white"/>
<path d="M17.4818 141.635C16.7583 142.359 16.2415 144.116 16.2415 145.666C16.2415 152.695 10.1433 162.824 3.7349 166.442C-1.7432 169.646 -1.2264 171.713 5.49203 172.54C8.28276 172.954 11.6937 173.78 12.8306 174.607C15.7247 176.364 19.0323 182.359 19.8591 187.424C20.9961 194.246 21.4095 195.176 23.4768 195.176C25.544 195.176 25.854 194.349 27.0944 186.39C28.4381 177.191 30.9187 172.023 36.6035 166.442C42.3917 160.86 42.8052 159 38.3607 159C31.5389 159 25.4406 153.935 22.6499 146.08C20.686 140.705 19.4457 139.671 17.4818 141.635ZM28.128 160.654C29.8851 161.687 31.3322 162.617 31.5389 162.721C31.7456 162.824 30.4019 165.098 28.7481 167.785C26.991 170.576 25.0272 174.401 24.407 176.261L23.27 179.879L21.4095 176.778C19.5491 173.677 15.2079 170.266 11.6937 169.026C10.0399 168.302 10.1433 167.889 13.3474 164.375C15.2079 162.307 17.4818 159 18.2054 157.139L19.6524 153.728L22.3398 156.209C23.7868 157.656 26.4742 159.62 28.128 160.654Z" fill="white"/>
</svg>
