<svg width="207" height="175" viewBox="0 0 207 175" fill="none" xmlns="http://www.w3.org/2000/svg">
<path d="M188.603 -10.9802C188.302 -10.1991 187.34 -7.67548 186.439 -5.27202C183.915 1.57782 178.265 8.84826 172.015 13.3547C170.573 14.3762 170.392 14.7367 170.993 15.5178C171.414 15.9985 172.195 16.359 172.736 16.299C175.08 15.9384 179.768 17.2003 181.751 18.7024C185.057 21.166 186.138 24.2304 186.138 31.0201C186.138 35.106 186.379 36.9086 186.92 37.0888C188.482 37.6897 189.143 36.8485 189.143 33.9643C189.143 30.239 191.007 24.2304 193.29 20.6853C195.694 16.8397 200.142 12.7539 203.988 10.8311C205.731 9.92981 207.113 8.84826 206.993 8.54783C206.873 8.18731 205.01 7.46627 202.846 6.9255C195.334 5.12291 191.307 0.0155716 191.187 -7.79565C191.127 -11.1605 190.946 -12.0618 190.165 -12.1819C189.564 -12.3021 188.963 -11.8214 188.603 -10.9802ZM194.252 5.6036C195.815 6.9255 197.858 8.24739 198.82 8.42765C200.442 8.78817 201.344 9.92981 200.022 9.92981C198.82 9.92981 192.389 16.5393 190.646 19.4835C189.684 21.166 188.723 22.5479 188.542 22.5479C188.362 22.5479 187.701 21.5866 187.04 20.3848C185.537 17.6209 182.953 15.638 179.527 14.6766C178.025 14.256 176.763 13.8955 176.643 13.8354C176.583 13.7753 178.085 12.0328 180.068 10.05C182.052 8.00705 184.816 4.46196 186.199 2.05851L188.783 -2.20762L190.105 0.496262C190.886 1.93834 192.749 4.2817 194.252 5.6036Z" fill="white"/>
<path d="M132.95 34.3248C127 35.1059 112.396 37.3892 100.496 39.4322C88.5959 41.415 72.1285 44.179 63.8347 45.561L48.8097 48.0846L48.6294 49.8872C48.4491 51.4494 50.0718 72.3595 56.6828 154.738C57.5242 165.493 58.4858 174.506 58.7262 174.807C59.0267 175.107 64.7362 174.506 71.7679 173.425C78.6193 172.463 98.2119 169.579 115.22 167.055C154.165 161.347 154.466 161.347 155.307 160.626C155.788 160.266 157.591 160.326 160.536 160.746C166.666 161.768 170.152 160.927 174.058 157.382C176.582 155.098 177.905 152.875 184.636 139.296C188.843 130.763 192.629 122.772 193.11 121.45C195.213 115.682 193.41 109.733 188.662 106.428C185.898 104.506 177.364 101.081 163.18 96.2137L153.203 92.7287L152.843 89.3038C152.663 87.4411 151.641 74.823 150.679 61.3036C149.658 47.7241 148.696 35.7669 148.516 34.6853C148.215 32.8828 148.035 32.7626 145.991 32.8227C144.789 32.8828 138.9 33.5437 132.95 34.3248ZM147.614 61.0031C148.636 74.7028 149.597 87.2008 149.778 88.763C149.958 90.3853 150.018 91.6472 149.898 91.6472C149.778 91.6472 144.429 90.145 137.998 88.3424C124.175 84.3767 116.242 82.6943 113.598 83.0548C112.095 83.2952 111.614 83.175 111.614 82.454C111.614 81.9733 111.254 81.4325 110.893 81.3123C109.751 80.8917 67.2003 88.3424 66.4791 89.0635C66.0584 89.4841 66.1185 89.8446 66.7195 90.3253C67.2604 90.8059 68.823 90.7459 72.5492 90.0849C91.4206 86.7802 109.03 83.8359 109.811 83.8359C110.292 83.8359 109.811 84.3767 108.729 85.0377C107.467 85.8188 106.145 87.5613 104.943 90.0248L103.08 93.8103L85.9515 97.3554C76.5759 99.2781 68.7028 101.141 68.5225 101.441C68.3422 101.742 68.5225 102.282 68.8831 102.643C69.6043 103.364 70.1452 103.304 90.459 99.0378C96.1084 97.8361 100.916 96.9948 101.097 97.1751C101.337 97.4155 98.1518 106.188 96.8296 108.952C96.8296 109.012 90.8797 110.154 83.6076 111.536C76.3956 112.858 70.2053 114.24 69.9048 114.54C69.5442 114.901 69.5442 115.321 70.025 115.802C70.5659 116.343 73.4507 115.982 82.8263 114.3C89.4974 113.038 95.0266 112.137 95.2069 112.257C95.3271 112.437 94.5458 115.081 93.464 118.205L91.5408 123.914L81.1435 125.295C71.8881 126.497 70.7462 126.738 70.7462 127.759C70.7462 129.321 72.1285 129.201 88.9565 126.798C90.8797 126.497 91.1802 126.617 91.1802 127.699C91.1802 130.283 93.1635 133.828 95.8079 135.811L98.4523 137.854L95.5675 138.214C82.2854 139.896 73.4507 141.579 72.429 142.6C72.1285 142.901 72.2487 143.381 72.7295 143.802C73.3305 144.283 74.9532 144.163 79.2203 143.321C85.7111 141.999 98.0316 140.317 101.217 140.317C102.659 140.317 106.806 141.819 112.756 144.463C117.925 146.686 122.613 148.729 123.214 148.969C124.235 149.27 124.055 149.63 121.951 152.214C120.629 153.776 117.264 157.382 114.499 160.266L109.511 165.433L85.5909 168.918C72.4891 170.781 61.611 172.223 61.4307 172.043C61.0701 171.682 59.4474 152.935 55.3606 101.261L52.5359 65.5096L53.9182 63.1062C55.0601 61.1233 62.6928 49.1061 63.2337 48.5052C63.5342 48.1447 116.182 39.2519 126.339 37.8699C142.806 35.5866 144.91 35.3463 145.39 35.7068C145.571 35.8871 146.592 47.3035 147.614 61.0031ZM57.0434 54.3336C55.1803 57.2778 53.3172 60.222 52.8965 60.8229C52.2955 61.7843 52.1753 61.604 52.1753 59.5611C52.1152 57.9387 52.7763 56.1962 54.3389 53.5524C56.803 49.4065 57.2838 48.9859 59.1469 48.9859C60.3489 48.9859 60.1686 49.4666 57.0434 54.3336ZM53.0167 51.9301C51.8748 54.2735 51.5142 54.2735 51.5142 52.0503C51.5142 50.8486 51.8748 50.1876 52.596 50.0674C54.0985 49.7069 54.0985 49.8872 53.0167 51.9301ZM128.082 88.2823C146.112 93.0291 173.217 101.922 182.833 106.308C186.619 108.051 190.345 111.235 190.345 112.677C190.345 114.3 174.178 121.45 164.502 124.094C158.432 125.776 148.816 127.699 146.352 127.699C145.21 127.699 145.21 127.639 146.412 126.137C147.794 124.394 148.095 121.15 146.953 120.008C145.691 118.746 142.265 119.167 140.102 120.789C139.02 121.63 137.998 122.291 137.878 122.291C137.698 122.291 137.277 120.969 136.856 119.287C136.015 115.742 135.173 114.961 132.529 115.201C130.966 115.321 130.305 115.802 129.524 117.364L128.562 119.407L126.639 116.763C120.389 108.231 111.434 89.1235 112.456 86.4797C112.997 85.0377 117.504 85.5184 128.082 88.2823ZM111.194 93.3897C113.057 98.6172 117.204 107.51 119.668 111.355C120.509 112.737 121.23 114.059 121.23 114.36C121.23 114.6 119.127 115.562 116.603 116.523C111.073 118.566 102.419 122.832 97.9114 125.656C94.3054 127.999 94.1852 127.999 94.1852 126.798C94.1852 123.132 107.708 88.6428 109.15 88.6428C109.33 88.6428 110.292 90.806 111.194 93.3897ZM190.766 118.806C190.526 120.368 187.4 127.459 182.592 137.012C174.779 152.635 172.075 157.141 171.534 155.339C171.414 154.858 170.572 151.553 169.731 148.008C168.829 144.463 166.906 138.454 165.344 134.609C163.841 130.763 162.639 127.579 162.759 127.459C162.88 127.399 166.546 126.197 170.813 124.755C175.14 123.373 181.21 120.909 184.335 119.347C187.46 117.725 190.285 116.403 190.586 116.343C190.886 116.343 190.946 117.424 190.766 118.806ZM126.098 120.729C128.082 123.433 128.983 125.295 129.224 127.278C129.464 128.841 130.005 131.064 130.546 132.266C131.387 134.369 131.567 134.429 133.671 134.128C134.873 133.888 137.277 133.047 139.02 132.205C141.063 131.184 143.948 130.463 147.193 130.102C149.958 129.802 153.684 129.261 155.427 128.901C157.23 128.6 158.853 128.3 159.093 128.3C160.956 128.3 169.491 154.798 168.469 157.442C167.988 158.764 160.896 158.583 155.487 157.141C144.008 153.957 130.786 149.33 119.247 144.463C103.26 137.613 95.3872 133.167 95.3872 131.004C95.3872 130.223 106.205 123.673 110.713 121.69C114.138 120.128 122.613 116.943 123.033 116.943C123.214 116.943 124.596 118.686 126.098 120.729ZM129.224 151.313L130.966 152.034L127.721 155.699C121.891 162.188 119.728 163.871 116.542 164.231C113.838 164.532 113.778 164.472 114.619 163.39C117.264 159.965 126.279 150.532 126.88 150.532C127.24 150.592 128.322 150.892 129.224 151.313ZM135.714 153.656C137.037 154.017 138.058 154.497 138.058 154.678C138.058 154.858 136.436 156.721 134.452 158.764C131.688 161.768 130.546 162.549 129.163 162.549C128.202 162.549 126.459 162.729 125.377 162.97C123.394 163.33 123.454 163.27 128.142 158.163C130.786 155.279 133.01 152.935 133.13 152.935C133.31 152.935 134.452 153.236 135.714 153.656ZM143.648 156.54C143.948 156.781 143.407 157.862 142.446 158.884C141.183 160.326 140.042 160.867 137.818 161.167L134.813 161.528L137.517 158.403C139.741 155.819 140.402 155.339 141.664 155.639C142.506 155.879 143.407 156.24 143.648 156.54ZM151.28 159.004C151.28 159.304 150.499 159.545 149.537 159.545C148.576 159.545 146.893 159.725 145.811 159.905L143.768 160.326L145.15 158.824C146.412 157.442 146.773 157.321 148.936 157.862C150.198 158.223 151.28 158.703 151.28 159.004Z" fill="white"/>
<path d="M10.165 70.136C9.74431 70.5566 9.4438 71.5781 9.4438 72.4794C9.4438 76.5653 5.8979 82.4537 2.1717 84.5567C-1.0136 86.4194 -0.713103 87.6212 3.1934 88.1018C4.8161 88.3422 6.7994 88.8229 7.4605 89.3036C9.1433 90.325 11.0665 93.81 11.5473 96.7543C12.2084 100.72 12.4488 101.261 13.6508 101.261C14.8528 101.261 15.0331 100.78 15.7543 96.1534C16.5356 90.8057 17.978 87.8014 21.2835 84.5567C24.6491 81.3121 24.8895 80.2305 22.3052 80.2305C18.3386 80.2305 14.7927 77.2863 13.17 72.7197C12.0281 69.5953 11.3069 68.9944 10.165 70.136ZM16.3553 81.1919C17.377 81.7928 18.2184 82.3336 18.3386 82.3936C18.4588 82.4537 17.6775 83.7756 16.7159 85.3379C15.6942 86.9602 14.5523 89.1834 14.1917 90.2649L13.5306 92.368L12.4488 90.5654C11.367 88.7628 8.8428 86.7799 6.7994 86.0589C5.8378 85.6383 5.8979 85.398 7.761 83.355C8.8428 82.1533 10.165 80.2305 10.5857 79.149L11.4271 77.1661L12.9897 78.6082C13.8311 79.4494 15.3937 80.5911 16.3553 81.1919Z" fill="white"/>
</svg>
