<svg width="207" height="165" viewBox="0 0 207 165" fill="none" xmlns="http://www.w3.org/2000/svg">
<path d="M104.564 145.813V166.438C104.564 169.359 105.554 171.807 107.534 173.78C109.508 175.76 111.955 176.75 114.877 176.75C117.799 176.75 120.25 175.76 122.23 173.78C124.203 171.807 125.189 169.359 125.189 166.438V145.813H145.814C148.736 145.813 151.187 144.823 153.167 142.843C155.14 140.869 156.127 138.422 156.127 135.5C156.127 132.578 155.14 130.127 153.167 128.147C151.187 126.174 148.736 125.188 145.814 125.188H125.189V104.563C125.189 101.641 124.203 99.1898 122.23 97.2098C120.25 95.2367 117.799 94.2501 114.877 94.2501C111.955 94.2501 109.508 95.2367 107.534 97.2098C105.554 99.1898 104.564 101.641 104.564 104.563V125.188H83.9395C81.0176 125.188 78.5701 126.174 76.597 128.147C74.617 130.127 73.627 132.578 73.627 135.5C73.627 138.422 74.617 140.869 76.597 142.843C78.5701 144.823 81.0176 145.813 83.9395 145.813H104.564ZM32.377 218C26.7051 218 21.8513 215.982 17.8157 211.947C13.7732 207.904 11.752 203.047 11.752 197.375V73.6251C11.752 67.9532 13.7732 63.0995 17.8157 59.0639C21.8513 55.0214 26.7051 53.0001 32.377 53.0001H73.627V32.3751C73.627 26.7032 75.6482 21.8461 79.6907 17.8036C83.7263 13.7679 88.5801 11.7501 94.252 11.7501H135.502C141.174 11.7501 146.031 13.7679 150.074 17.8036C154.109 21.8461 156.127 26.7032 156.127 32.3751V53.0001H197.377C203.049 53.0001 207.906 55.0214 211.949 59.0639C215.984 63.0995 218.002 67.9532 218.002 73.6251V197.375C218.002 203.047 215.984 207.904 211.949 211.947C207.906 215.982 203.049 218 197.377 218H32.377ZM94.252 53.0001H135.502V32.3751H94.252V53.0001Z" fill="white" fill-opacity="0.1"/>
</svg>
