<svg width="198" height="162" viewBox="0 0 198 162" fill="none" xmlns="http://www.w3.org/2000/svg">
<path d="M5.43884 138.162C6.51366 139.051 10.2525 141.331 13.7702 143.21C19.8615 146.468 20.1855 146.79 25.2567 152.76C30.8076 159.26 32.6458 160.625 36.5443 161.084C39.229 161.325 42.1916 160.223 45.5349 157.7C50.3185 154.089 52.0591 153.828 60.4136 155.378C64.675 156.21 69.2061 156.758 70.5088 156.666C76.4411 156.075 82.0337 151.611 85.0623 145.034C87.3112 140.098 88.1801 129.482 86.9209 121.93C84.3371 106.633 79.0583 97.499 67.3521 87.8718C66.5359 87.1112 67.3156 85.4701 73.2175 75.1047C89.2453 46.8134 114.146 17.6557 139.846 -2.95505L148.871 -10.2521L143.883 -3.16806C134.959 9.39725 129.328 19.8009 125.928 29.7362C121.711 41.9067 123.74 48.5535 130.89 46.1533C133.067 45.4009 134.045 44.6633 137.293 41.1588C150.634 26.6367 158.801 6.22161 158.986 -13.109L159.03 -17.7576L162.928 -20.2947C176.436 -29.0322 190.555 -36.8539 202.595 -42.2964C208.042 -44.7068 208.955 -45.3151 209.156 -46.4389C209.269 -47.2526 209.06 -47.7429 208.428 -47.8323C206.349 -48.126 184.129 -37.0245 170.373 -28.8289C155.112 -19.74 132.534 -2.05246 119.2 11.088L113.754 16.4942L107.894 15.8966C100.885 15.275 94.0225 15.5958 86.1841 16.977C70.0181 19.9467 51.9579 29.2855 50.9396 35.3173C50.5007 38.1588 51.3865 40.0814 53.8962 41.5882C56.5352 43.1594 60.3015 42.908 68.1745 40.61C79.8873 37.1954 98.6637 29.3405 103.19 25.9243C105.453 24.2162 105.652 25.4426 103.404 27.7059C93.2969 38.1684 75.7199 63.3373 66.8269 80.0088C64.1401 85.1136 63.7426 85.6565 62.6567 85.1805C55.987 82.4407 47.7272 81.8727 39.6581 83.59C33.0585 85.008 29.0658 86.5638 19.7458 91.3305C5.94666 98.5061 2.17398 103.135 4.68159 109.987C6.53551 114.904 6.13547 117.797 3.4608 119.816C1.35192 121.408 -0.37007 125.865 0.0682465 128.692C0.521929 132.075 2.70661 135.932 5.43884 138.162ZM17.6466 124.171C18.536 121.07 23.1124 117.293 27.1594 116.344C36.5298 114.211 51.5332 119.649 61.9743 129.098C66.7672 133.416 68.4471 136.925 67.601 141.046C65.075 153.317 37.8608 149.564 28.6774 135.684C26.6638 132.589 26.4802 131.917 26.9471 129.541C27.5653 126.402 29.467 124.643 32.6772 124.082C36.9703 123.352 48.4993 127.931 51.108 131.388C53.7166 134.844 50.9241 139.381 46.2402 139.272C43.6208 139.225 40.2339 137.732 39.8666 136.39C39.3687 134.66 41.1218 134.309 43.7204 135.506C47.5093 137.424 50.4829 135.908 48.4194 133.174C47.0956 131.42 40.3077 128.202 36.3174 127.408C33.5798 126.883 32.5483 127.014 31.1595 128.062C29.9764 128.955 29.49 129.808 29.6361 130.75C30.2455 134.339 37.1506 140.707 43.3808 143.292C47.1682 144.888 55.5074 145.882 58.5743 145.024C61.2936 144.349 63.8404 142.589 64.6841 140.818C67.2401 135.326 53.9015 124.178 39.9882 120.184C30.6868 117.487 23.2767 119.436 20.5414 125.225C19.5184 127.293 17.7681 128.29 17.298 127.025C17.1673 126.638 17.3034 125.321 17.6466 124.171ZM74.1857 121.744C74.1839 118.425 72.9111 113.637 71.234 110.773C70.675 109.818 70.7236 109.134 71.4437 108.59C72.3181 107.93 72.706 108.123 73.9269 109.955C76.1602 113.128 77.6833 119.104 77.3405 123.25C77.1226 126.491 76.9183 126.969 75.6796 126.932C74.2211 126.819 74.1947 126.677 74.1857 121.744ZM64.0657 100.312C64.5507 99.1361 65.9981 99.6632 67.9809 101.649C69.9248 103.582 69.9695 104.925 68.2428 105.419C67.0833 105.808 63.6195 101.539 64.0657 100.312ZM53.844 35.6355C54.8156 33.6067 60.835 29.3876 67.3371 26.3428C74.0448 23.1427 83.0383 20.4038 90.0912 19.3725C94.8876 18.6676 104.795 18.3162 104.771 18.8198C104.707 18.949 99.038 20.6367 92.0408 22.5976C85.0951 24.5197 79.0907 26.2983 78.7306 26.57C78.422 26.803 78.4249 27.4486 78.8531 28.0161C79.4372 28.7899 81.7061 28.3731 90.2367 25.9836C96.1258 24.3731 100.894 23.2034 100.908 23.4358C100.821 24.0686 93.8433 27.5532 85.3185 31.234C75.7245 35.3167 62.5951 39.3147 58.3894 39.4117C54.7899 39.4562 52.8475 37.8452 53.844 35.6355ZM126.316 41.5894C125.852 38.9431 129.712 27.69 133.855 19.3805C137.538 12.0661 149.443 -6.39215 150.437 -6.25169C150.656 -6.17457 149.611 -3.28046 148.195 0.298612C145.604 6.70743 140.753 15.4699 138.058 18.6378C137.288 19.5429 136.803 20.7188 136.96 21.2479C137.55 23.313 138.965 22.4069 142.156 17.65C147.591 9.66128 152.37 -0.908901 154.677 -10.2614C155.171 -12.1732 155.72 -13.4783 155.954 -13.1688C156.616 -12.2917 154.447 2.05772 152.795 7.67737C149.567 18.697 142.051 31.7379 134.358 39.7301C131.25 42.8858 130.633 43.3516 128.866 43.4706C126.686 43.5774 126.595 43.5646 126.316 41.5894Z" fill="white"/>
</svg>
