<svg width="136" height="128" viewBox="0 0 136 128" fill="none" xmlns="http://www.w3.org/2000/svg">
<path d="M130.789 26.6437C128.234 25.5658 124.695 25.3609 121.324 26.0646C117.269 26.9169 108.659 30.7933 103.77 34.004C100.902 35.8306 100.072 36.0969 99.2485 35.4736C98.0532 34.5874 97.8974 34.7931 102.543 28.8848C106.77 23.5544 108.77 19.0516 108.933 14.6616C108.991 11.2397 107.619 6.63902 105.892 4.49316C102.948 0.835438 97.5269 -0.908857 93.4153 0.471541C87.7017 2.25733 84.4334 7.78047 82.9386 17.9032L82.0954 23.6443L76.3793 21.3338C73.2668 20.062 68.0812 18.6103 64.9222 18.1794C58.1738 17.1819 54.7937 17.9736 51.831 21.0811C50.7297 22.2085 44.9198 27.7682 38.9731 33.3577C33.0657 38.9959 28.0847 43.8884 27.9491 44.319C27.7743 44.7008 27.9622 45.4334 28.394 45.9699C29.2967 47.0916 28.645 48.1786 25.2803 50.8865C18.7461 56.1452 0.207876 74.8414 0.00689653 76.2889C-0.221428 78.4012 4.91671 86.8821 11.9733 96.1495C17.9797 104.012 19.8434 106.128 24.8816 110.591C31.0176 116.019 39.2266 121.627 46.2367 125.146L50.3685 127.285L68.3418 112.579L86.3152 97.8734L88.4869 98.3756L90.6195 98.829L106.593 85.7321C124.957 70.7123 124.548 71.2023 123.063 65.1648C122.174 61.8629 120.689 59.12 116.448 53.0512C115.368 51.5097 114.445 50.1632 114.406 50.1144C114.455 50.0752 116.456 49.2678 118.956 48.3808C124.327 46.4689 132.015 41.246 134.04 38.1705C135.917 35.2127 135.809 31.6838 133.807 29.1965C132.905 28.0748 131.513 26.9447 130.789 26.6437ZM132.663 32.3673C133.927 36.3329 124.095 44.0842 114.513 46.6533L111.719 47.3749L108.709 44.3333C107.022 42.637 104.973 40.5898 104.032 39.8202L102.444 38.4463L105.84 36.276C114.397 30.8356 124.633 27.5803 128.713 28.9569C131.081 29.7029 132.052 30.6093 132.663 32.3673ZM105.686 10.9265C106.854 15.7723 104.254 22.5253 98.4967 29.2482L95.7886 32.4724L90.4793 28.8703L85.1212 25.3074L85.749 19.4985C86.415 13.3375 88.84 6.96625 91.2294 5.0433C93.0336 3.59126 96.384 2.66275 98.526 3.02815C102.028 3.58519 104.49 6.34487 105.686 10.9265ZM120.247 64.86C121.03 68.3283 120.266 71.2732 118.255 72.1685C116.898 72.7785 116.516 72.6036 115.064 70.7992C113.258 68.5558 99.1881 54.5669 96.4537 52.2675L94.7387 50.8352L99.4711 51.1248C102.033 51.313 105.738 51.2243 107.585 51.0235L111.015 50.5933L115.324 56.4468C118.593 60.8075 119.831 62.945 120.247 64.86ZM101.183 44.7653C95.8328 44.0083 94.6386 43.5228 96.2502 43.0294C96.8948 42.8321 98.1341 42.0758 99.0119 41.3694C100.524 40.1528 100.788 40.1814 102.16 41.4875C106.435 45.6009 106.435 45.6009 101.183 44.7653ZM95.0989 40.5007C91.9781 43.0123 90.9504 42.6339 93.3767 39.9581C94.3317 38.9484 95.2665 37.7139 95.5877 37.2144C96.0158 36.5484 96.3679 36.5865 96.9566 37.3181C97.7023 38.2447 97.4883 38.5777 95.0989 40.5007ZM91.2977 37.7741C90.1678 39.1656 89.0189 40.7331 88.6395 41.3598C88.0948 42.2803 87.9675 42.2221 87.4359 40.9624C86.5795 38.9998 85.0451 29.3061 85.484 28.9529C85.9716 28.5605 93.4373 34.0433 93.3611 34.7474C93.3719 35.0602 92.418 36.4707 91.2977 37.7741ZM103.237 48.4158C103.188 48.4551 100.939 48.2562 98.2591 47.9216C95.5795 47.5871 94.0631 47.2004 94.8837 47.0221C96.613 46.675 103.919 47.8664 103.237 48.4158ZM82.8936 32.3233C83.2742 35.392 83.8214 38.5678 84.1663 39.4955C84.8966 41.8006 83.9665 41.3438 78.449 36.7842C73.5881 32.7409 73.6178 32.8777 74.9879 26.7929L75.6539 23.9266L78.7569 25.2864C80.4601 26.005 81.8992 26.695 82.0265 26.7533C82.105 26.8509 82.5034 29.3427 82.8936 32.3233ZM71.8338 31.2599C71.4817 31.2218 70.3649 30.4331 69.3551 29.4779C67.6496 27.9577 67.5211 27.4986 67.8648 24.7309C68.0943 23.0194 68.3738 21.6695 68.5891 21.7373C68.7651 21.7563 69.8902 22.0562 71.1034 22.3656L73.4024 22.926L72.9457 27.1507C72.6984 29.4391 72.2738 31.3075 71.8338 31.2599ZM111.373 72.4032C108.449 71.8641 100.058 67.5278 94.7876 63.9744C90.5166 61.0635 80.0525 53.2527 79.5816 52.6675C78.9143 51.8384 85.5021 48.1437 87.4086 48.2165C88.5623 48.2523 107.885 66.3714 112.397 71.5791L113.379 72.7983L111.373 72.4032ZM101.589 85.9028L89.4467 95.6746L85.0627 94.2207C78.526 92.0885 69.8912 87.9484 63.9848 84.1036C58.4019 80.5609 52.2374 75.397 52.3421 74.4289C52.3314 74.1161 57.7916 69.3199 64.3544 63.7972L76.3001 53.7815L78.3673 55.2519C79.4353 56.0798 82.6882 58.5244 85.5296 60.6573C95.2789 68.0791 105.052 73.6335 110.844 75.2399C112.321 75.5778 113.525 75.9752 113.652 76.0335C113.691 76.0823 108.269 80.5264 101.589 85.9028ZM65.2387 25.9604C65.0924 26.0781 63.9566 25.4655 62.7613 24.5792C60.9487 23.2255 60.5657 22.6498 60.6311 21.6329C60.794 20.5374 61.1651 20.3995 63.4142 20.5984L66.0153 20.8354L65.7977 23.2606C65.655 24.5808 65.4338 25.8034 65.2387 25.9604ZM83.6871 45.9883C82.8962 46.3034 80.954 47.3844 79.3733 48.4154C76.5534 50.2027 76.4654 50.1932 74.5743 48.7419C72.644 47.2418 72.6142 47.1051 73.1172 42.0395C73.4217 39.2231 73.8451 36.9538 74.1091 36.9823C74.5099 36.9812 83.4659 43.9164 84.6719 45.1154C84.9169 45.3201 84.4293 45.7125 83.6871 45.9883ZM71.2047 39.9626C70.4579 45.2244 70.1748 45.3718 67.0967 42.5455C65.3222 40.8397 65.302 40.6149 66.0797 35.8907L66.8765 30.9905L68.6594 32.2075C71.6768 34.3594 71.9135 35.0529 71.2047 39.9626ZM64.1982 34.3514C63.8438 36.8063 63.4097 38.7628 63.2337 38.7437C63.0576 38.7247 61.9503 37.848 60.7348 36.7369C58.6272 34.817 58.676 34.7778 59.3277 30.3961L60.0377 25.8872L62.301 27.6014C63.5844 28.4972 64.6429 29.4131 64.7119 29.5987C64.8296 29.745 64.5525 31.8966 64.1982 34.3514ZM57.6221 28.8759L57.1548 32.7877L55.8988 31.2271C54.0541 28.9349 53.1537 25.3203 54.0778 23.773C54.6712 22.8132 55.1006 22.548 55.8547 22.9858C57.7446 24.0363 58.08 25.052 57.6221 28.8759ZM61.8948 61.8391C53.0306 69.2944 49.5387 71.9439 48.9322 71.7892C47.3765 71.3537 35.7931 55.3634 33.2752 50.238C31.9966 47.6509 31.0022 45.3172 31.0605 45.19C31.0986 44.8379 50.2743 26.834 50.5383 26.8626C50.6263 26.8721 51.2258 27.9165 51.7479 29.2641C53.1752 32.5351 60.7467 40.7452 67.695 46.4836C70.8017 49.0459 73.4968 51.2966 73.6633 51.4036C73.781 51.55 68.4671 56.2284 61.8948 61.8391ZM72.1368 93.534C71.5029 94.0442 64.7367 100.213 57.0643 107.352C49.3919 114.491 42.9766 120.297 42.8006 120.278C42.6245 120.259 42.0465 119.84 41.5172 119.382C40.6252 118.573 41.1319 118.004 55.3266 104.893C68.985 92.2134 70.1553 91.2716 71.3292 91.5322C73.1489 91.9963 73.3559 92.5529 72.1368 93.534ZM58.5721 85.1651C58.0844 85.5575 52.3233 91.078 45.7534 97.4904C30.8296 111.992 30.3907 112.345 29.3702 111.077C28.9385 110.541 28.634 110.063 28.6923 109.935C28.741 109.896 35.0576 103.768 42.7681 96.2769C53.3639 85.9816 56.9129 82.8039 57.5587 83.0074C58.9776 83.4726 59.4498 84.4587 58.5721 85.1651ZM35.2366 62.1595C34.4564 62.7874 28.763 68.0926 22.4655 74.0448C7.84254 87.8221 8.51571 87.3607 7.61178 85.8382C6.85533 84.5987 7.09914 84.4025 19.4017 72.7337C35.8086 57.2795 34.3945 58.4176 35.5719 59.8807C36.3962 60.9048 36.3094 61.2961 35.2366 62.1595ZM46.4679 74.8171C46.0777 75.1311 40.2976 80.8276 33.6016 87.5825C18.8158 102.455 19.4104 101.896 18.5065 100.374C17.7108 99.0856 17.1649 99.6053 42.4395 74.6038C45.1393 71.8685 45.2273 71.878 46.1693 73.0485C46.758 73.78 46.858 74.5032 46.4679 74.8171Z" fill="white"/>
</svg>
