<svg width="167" height="172" viewBox="0 0 167 172" fill="none" xmlns="http://www.w3.org/2000/svg">
<g clip-path="url(#clip0_1_156)">
<path d="M112.5 187.5H18.75V168.75H72.6562C65.8125 142.406 45.0937 121.781 18.75 114.938C24.75 113.438 31.0313 112.5 37.5 112.5C78.9375 112.5 112.5 146.062 112.5 187.5ZM206.25 114.938C200.25 113.438 193.969 112.5 187.5 112.5C160.031 112.5 136.125 127.313 123 149.344C125.719 155.531 127.969 162 129.281 168.75C130.5 174.844 131.156 181.125 131.156 187.5H149.906H206.156V168.75H152.25C159.187 142.406 179.906 121.781 206.25 114.938ZM146.625 103.313C153.938 83.7188 167.531 67.3125 184.969 56.4375C144.75 57.75 112.5 90.6563 112.5 131.25C112.5 131.344 112.5 131.438 112.5 131.438C121.406 119.531 133.125 109.875 146.625 103.313ZM107.063 82.9688C99.1875 62.4375 83.25 45.8437 62.8125 37.5C76.3125 54.9375 84.375 76.6875 84.375 100.406C84.375 102.375 84.0938 104.25 84 106.125C88.0313 108.375 91.7813 111 95.4375 113.813C97.4063 102.75 101.531 92.3438 107.063 82.9688Z" fill="#094C3B" fill-opacity="0.1"/>
</g>
<defs>
<clipPath id="clip0_1_156">
<rect width="225" height="225" fill="white"/>
</clipPath>
</defs>
</svg>
