<svg width="270" height="338" viewBox="0 0 270 338" fill="none" xmlns="http://www.w3.org/2000/svg">
<path d="M176.62 0.72879C141.648 1.85693 90.3803 6.24414 73.2075 9.62857C56.2854 12.8876 46.1321 19.7818 40.8675 31.3139C36.6056 40.5898 36.6056 60.0189 40.7421 77.1917C41.2435 79.3226 40.4914 80.2 37.2324 81.5789C29.9621 84.5872 18.1793 97.6235 12.5386 109.156C2.88676 128.585 -0.121616 155.159 0.00373285 218.711C0.00373285 262.833 1.50792 290.661 4.39095 299.31C7.27397 308.084 15.2963 316.859 24.3214 321.371C32.4691 325.257 51.6475 329.895 75.5891 333.656C99.6561 337.416 153.18 338.294 179.002 335.285C224.754 330.146 240.423 323.126 250.576 303.196C255.59 293.419 257.345 283.516 263.863 224.351C271.259 158.668 271.76 137.735 266.496 115.298C262.484 97.9996 257.596 87.5956 248.571 76.9409L241.927 69.1693L243.306 60.6456C243.933 56.0077 244.309 46.4812 244.058 39.587C243.682 28.1802 243.181 26.1746 239.796 20.0325C235.158 11.8849 227.763 5.74274 219.239 3.23578C212.094 1.10483 195.673 0.227386 176.62 0.72879ZM216.732 8.24973C221.245 9.62857 225.256 12.0102 229.142 15.7707C236.036 22.2888 236.412 21.9128 217.86 28.1802C200.813 33.8209 179.503 37.456 158.57 38.2081C149.545 38.5842 137.261 39.0856 131.369 39.4616L120.589 40.0883L109.684 26.1746C103.667 18.5284 98.904 12.0102 99.2801 11.7595C99.7815 11.1328 138.765 7.62299 150.924 7.12158C155.812 6.87088 170.98 6.62018 184.893 6.49484C204.699 6.24414 211.467 6.62018 216.732 8.24973ZM103.793 25.2972C109.433 32.4421 113.946 38.5842 113.946 39.0856C113.946 39.7123 111.439 40.0883 108.431 40.0883C103.291 40.0883 102.539 39.587 98.0266 34.0716C90.631 25.0465 83.8622 15.52 83.8622 13.8904C83.8622 13.1383 85.9931 12.5116 88.7508 12.5116C93.514 12.5116 94.1408 12.8876 103.793 25.2972ZM86.3692 25.4225C90.8817 31.69 94.7675 37.3307 94.8929 37.8321C95.1436 38.4588 93.3887 38.8349 91.1324 38.8349C87.2466 38.8349 85.9931 37.7067 77.8454 27.6788C72.8315 21.5367 68.8203 16.2721 68.8203 15.896C68.8203 15.1439 72.7061 14.2665 76.3412 14.0158C77.344 13.8904 81.8566 19.0297 86.3692 25.4225ZM72.3301 27.5535C76.5919 32.6928 79.7257 37.08 79.475 37.3307C79.2243 37.5814 76.7173 37.456 73.8343 36.9547C69.447 36.2025 68.1936 35.1998 63.681 28.6816C59.5445 22.5395 58.9177 20.7846 60.1712 19.2804C62.5529 16.3974 64.1824 17.5255 72.3301 27.5535ZM58.0403 27.6788C59.9205 30.4365 61.174 33.0688 60.9233 33.3195C60.4219 33.8209 50.2687 30.3112 48.8898 29.183C48.3884 28.8069 53.7784 22.5395 54.4052 22.5395C54.5305 22.5395 56.2854 24.7958 58.0403 27.6788ZM237.665 30.9379C239.044 35.9518 238.417 55.6316 236.537 64.5314L234.908 72.0523L228.264 74.434C224.629 75.6875 221.37 76.4396 220.869 75.9382C220.367 75.5621 219.991 65.7849 219.991 54.3781L219.866 33.5702L226.76 30.6872C235.785 26.9267 236.537 26.9267 237.665 30.9379ZM53.1517 36.9547L58.1656 38.9602V59.5175C58.1656 70.9242 58.1656 80.2 58.0403 80.2C58.0403 80.2 55.408 79.3226 52.2742 78.1945L46.5082 76.3142L45.1294 68.4172C42.7477 54.5035 43.6252 35.0744 46.6335 35.0744C47.3856 35.0744 50.2687 35.9518 53.1517 36.9547ZM213.473 57.1358C213.849 68.6679 214.1 78.3198 213.724 78.5705C212.596 79.6986 195.423 83.7098 194.921 82.9577C194.671 82.4563 194.044 72.6791 193.542 61.2723L192.54 40.3391L200.562 38.4588C213.724 35.4504 212.47 33.5702 213.473 57.1358ZM78.9736 43.7235C79.851 44.6009 82.6087 84.2112 81.8566 85.0886C81.1045 85.8407 67.1908 82.8324 65.9373 81.5789C64.4331 80.0747 63.1796 49.1135 64.3077 44.4756C65.1852 41.2165 65.3105 41.0912 71.7033 41.9686C75.3384 42.47 78.5975 43.2221 78.9736 43.7235ZM187.024 56.6344C187.526 64.9075 187.902 74.81 187.902 78.4451V84.9633L181.634 86.3421C178.125 87.0942 173.612 87.721 171.732 87.721H168.222L167.345 66.2863C166.843 54.5035 166.843 44.4756 167.219 43.9742C167.721 43.5981 170.98 42.9714 174.489 42.47C187.526 40.9658 186.147 39.3363 187.024 56.6344ZM103.291 45.1023H107.177L108.681 65.7849C109.559 77.1917 110.311 86.9689 110.562 87.4703C111.063 89.0998 108.556 89.2252 98.7787 88.3477L89.1268 87.5956L88.3747 82.331C87.9987 79.4479 87.3719 69.5454 86.8706 60.2695L85.9931 43.4728L92.7619 44.2249C96.5224 44.7263 101.286 45.1023 103.291 45.1023ZM160.826 59.7682C161.328 68.6679 161.829 78.6958 161.955 82.2056L162.331 88.7238L157.943 89.4758C155.436 89.8519 150.422 90.228 146.913 90.228H140.269V67.7905C140.269 42.2193 139.266 44.2249 152.303 43.9742L160.074 43.8488L160.826 59.7682ZM134.002 67.6651V90.228H125.854C118.458 90.228 117.706 89.9772 117.08 87.3449C116.202 83.2084 113.946 57.8879 113.946 50.9937V45.1023H123.974H134.002V67.6651ZM244.685 81.4535C259.601 98.877 267.122 135.354 263.237 171.705C256.969 232.499 252.833 269.101 251.203 279.003C249.448 289.909 246.189 300.814 244.56 300.814C244.183 300.814 237.916 298.934 230.646 296.552C201.816 287.277 176.495 283.892 143.403 284.895C120.213 285.522 116.453 286.148 116.453 288.906C116.453 291.413 118.96 291.789 128.988 290.536C140.144 289.031 180.882 290.034 185.395 291.789C187.526 292.541 192.164 298.433 198.556 308.21C204.949 317.862 209.336 323.377 210.841 323.377C211.969 323.377 212.972 323.126 212.972 322.75C212.972 322.374 208.71 315.731 203.57 308.084C198.431 300.313 194.42 293.92 194.671 293.669C194.921 293.419 197.428 293.544 200.437 294.045C205.451 294.923 206.203 295.55 212.345 305.076C221.871 319.867 222.373 320.995 220.367 322.249C216.857 324.38 201.816 327.263 180.381 329.77C124.977 336.413 43.6252 328.015 22.4412 313.6C18.6807 311.093 15.547 308.335 15.547 307.708C15.547 304.449 42.121 293.795 57.5389 290.786C62.8036 289.658 82.6087 288.279 91.6338 288.279C93.514 288.279 92.6366 284.77 90.631 284.017C87.2466 282.764 72.4554 283.265 60.0459 285.02C46.6335 287.151 28.9593 292.917 18.8061 298.558C10.9091 302.945 10.7837 302.82 8.52746 290.912C6.27118 279.38 6.14583 163.306 8.27676 147.262C12.664 116.175 23.6947 95.4926 41.1182 86.0914L47.2603 82.707L61.4247 86.4675C105.171 97.9996 156.69 98.501 201.063 87.721C209.336 85.7154 220.869 82.4563 226.76 80.3254C232.651 78.3198 238.041 76.5649 238.919 76.5649C239.671 76.4396 242.303 78.6958 244.685 81.4535ZM220.743 298.934C222.999 299.561 225.506 302.068 228.766 307.332L233.403 314.979L230.52 317.36C229.016 318.614 227.387 319.617 226.885 319.617C226.259 319.617 214.476 301.19 213.097 297.931C212.846 297.304 213.724 297.054 214.977 297.43C216.356 297.931 218.863 298.558 220.743 298.934ZM236.788 304.073C239.546 305.201 241.802 306.455 241.802 307.082C241.802 308.21 236.913 312.722 236.412 311.97C234.532 309.714 230.52 302.068 231.022 302.068C231.398 302.068 234.03 302.945 236.788 304.073Z" fill="white"/>
<path d="M92.6369 114.796C90.0046 117.053 88.2497 120.312 86.7455 125.451L84.7399 132.721L80.478 129.462C77.7204 127.331 74.0852 125.952 70.1994 125.576C64.9348 125.075 63.932 125.451 62.0517 127.958C57.4138 134.727 61.6757 147.638 73.4585 162.178C79.4752 169.574 90.0046 177.972 93.5143 177.972C101.035 177.972 107.679 156.537 107.679 132.094C107.679 119.183 107.553 118.807 104.044 115.172C99.5311 110.66 97.6508 110.66 92.6369 114.796Z" fill="white"/>
<path d="M39.9899 119.559C33.4717 128.209 29.7112 138.738 29.4605 149.142C29.3352 156.537 29.5859 157.289 31.9675 157.666C34.3491 158.042 34.7252 157.289 35.3519 149.518C36.2294 138.236 40.2405 128.083 46.3826 121.064C49.1403 117.93 51.1459 114.796 50.6445 114.044C48.7643 111.036 44.8785 113.041 39.9899 119.559Z" fill="white"/>
<path d="M186.649 115.674C181.885 118.055 180.256 124.198 181.133 136.607C182.261 154.407 190.785 175.465 196.802 175.465C201.315 175.465 204.198 172.958 209.713 164.435C216.607 153.529 219.866 145.758 222.248 133.599C224.128 124.699 224.128 123.445 222.373 120.813C219.365 116.175 213.724 116.802 208.209 122.317C205.326 125.2 203.445 126.329 203.069 125.2C202.192 122.568 194.922 115.549 192.289 114.796C190.911 114.42 188.404 114.796 186.649 115.674Z" fill="white"/>
<path d="M29.2105 169.699C27.957 172.958 29.8373 177.972 32.3442 177.972C35.6033 177.972 35.9794 177.095 35.1019 172.582C34.2245 168.195 30.464 166.44 29.2105 169.699Z" fill="white"/>
<path d="M131.746 171.329C126.857 173.209 123.974 186.997 123.974 207.555C123.849 222.973 124.851 226.984 129.489 229.992C134.127 233.126 138.89 231.496 149.67 222.973C168.347 208.181 178.125 190.507 172.108 181.983C169.225 177.847 163.083 178.348 155.562 183.488L149.294 187.875L147.916 182.234C145.534 172.958 138.89 168.446 131.746 171.329Z" fill="white"/>
<path d="M76.3411 199.031C73.2074 202.164 70.0737 211.44 70.0737 217.582C70.0737 218.961 68.9456 218.585 65.6865 216.078C56.536 209.184 45.0039 211.064 45.0039 219.713C45.0039 228.488 59.7951 248.669 72.2046 256.817C79.7256 261.831 86.3691 262.081 89.8788 257.569C93.0126 253.683 95.1435 239.393 95.1435 223.348C95.0181 208.181 93.6393 201.914 89.5028 198.279C85.1156 194.518 80.603 194.769 76.3411 199.031Z" fill="white"/>
<path d="M198.056 224.101C190.033 225.354 176.496 246.663 173.863 262.207C172.108 272.36 173.863 276.12 181.509 278.377C193.668 282.012 220.242 271.357 229.142 259.324C233.529 253.432 233.905 248.92 230.145 245.159C226.384 241.399 220.994 240.897 212.972 243.78C207.707 245.661 207.707 245.661 208.46 242.778C212.345 228.613 208.961 222.471 198.056 224.101Z" fill="white"/>
</svg>
