<svg width="132" height="137" viewBox="0 0 132 137" fill="none" xmlns="http://www.w3.org/2000/svg">
<path opacity="0.5" d="M65.0198 12.0516C69.7016 10.5985 82.9593 11.3107 90.4834 13.4111C94.0137 14.3678 99.0696 16.2631 101.733 17.5886C106.237 19.8722 106.707 19.954 108.901 18.6114C114.764 15.1198 131.743 8.56611 142.697 5.54688C155.044 2.19129 173.07 -0.814007 174.961 0.199922C176.598 1.03988 175.683 3.042 173.504 3.27712C161.293 4.42417 139.476 8.9903 133.776 11.5419C132.469 12.2002 132.154 13.8699 131.8 23.0325C131.366 34.3542 129.646 40.8461 125.989 45.3711C123.48 48.3834 119.522 50.0923 116.442 49.5329C113.573 48.9864 109.951 45.2265 109.101 41.9014C107.792 36.5951 110.446 27.7855 115.334 21.2779C118.328 17.2398 118.006 17.3256 106.752 23.4933C98.0081 28.338 86.2298 36.1625 81.4286 40.4058L78.3023 43.1689L81.12 48.8322C86.9892 60.6483 88.3024 71.0222 84.9829 78.6294C80.9843 87.8311 71.7388 90.5335 67.6746 83.6848C65.2361 79.5756 66.7778 63.9939 70.732 52.942L72.273 48.4976L69.37 51.0633C61.8891 57.675 49.8047 73.0287 42.7915 84.8948C38.7877 91.6154 38.7124 91.9802 38.213 100.078C37.3956 113.329 32.9999 122.982 24.1792 130.777C20.2154 134.281 18.6782 135.241 15.7868 135.908C12.0904 136.788 7.66941 135.724 5.64645 133.435C1.79788 129.08 3.95271 119.818 11.558 108.621C15.4541 102.792 25.3459 94.7451 31.3975 92.4791C35.5535 90.9936 35.7768 90.7962 37.2762 87.88C38.1655 86.2986 40.7517 82.0242 43.0327 78.4173C46.6562 72.729 46.9119 72.0058 45.1643 72.9537C32.59 79.9901 12.6746 83.6707 5.06086 80.4563C-1.52069 77.6223 -1.74048 70.0606 4.74196 64.232C9.43793 59.9822 16.2854 58.5043 28.0149 59.175C33.2733 59.4993 40.4909 60.5779 44.1757 61.5969C47.7554 62.6095 51.2298 63.6155 51.9595 63.7661C53.1034 64.0478 53.885 63.357 58.1499 58.3945C63.0353 52.784 81.3921 35.8641 86.401 32.531C87.7772 31.6129 90.096 29.9613 91.528 28.994L94.2247 27.2073L87.7186 28.2839C79.9804 29.6541 69.4481 30.1129 64.7415 29.4004C53.5041 27.5988 53.6684 15.5214 65.0198 12.0516ZM59.9228 20.2355C58.7273 25.0706 65.101 26.9945 79.1 25.9577C86.3097 25.4523 96.4564 23.5445 95.8149 22.8187C95.3709 22.3163 85.0515 21.8909 80.441 22.1872C78.3182 22.373 77.125 22.0354 76.8055 21.224C76.5848 20.5242 76.6302 19.788 76.9093 19.5413C77.5234 18.9985 85.8472 18.4035 91.434 18.5369L95.3876 18.6224L92.1299 17.5242C83.2347 14.5475 72.205 13.656 65.8704 15.3767C62.0065 16.4052 60.5615 17.5829 59.9228 20.2355ZM3.68028 72.0313C3.42082 76.238 5.70601 77.6985 12.7652 77.9228C19.9296 78.1535 28.3118 76.612 36.1602 73.454C44.1074 70.4076 44.9772 69.1417 38.8126 69.8171C31.1004 70.7666 23.1998 70.4904 23.005 69.37C22.6816 67.7665 24.6031 66.5654 26.9104 66.8133C30.0031 67.1624 44.6823 66.2204 44.7706 65.6452C44.8225 64.8038 32.497 62.6712 25.4443 62.3418C13.0215 61.7867 4.06949 65.7212 3.68028 72.0313ZM70.6912 67.2967C69.3569 75.2376 69.4896 80.7881 71.1178 82.6304C72.4994 84.1935 76.9359 84.1505 78.7782 82.5222C81.1229 80.4499 83.605 73.5828 83.536 69.5669C83.3982 65.8108 80.675 55.1916 79.5402 53.9076C79.1455 53.4609 78.9326 54.3451 79.0456 55.9356C79.1651 57.421 79.2406 61.3316 79.1512 64.4931C79.0008 69.4983 78.7321 70.4319 77.339 70.7682C75.9459 71.1046 75.8173 70.6216 75.7729 64.4959C75.705 57.8937 75.2997 52.4848 74.7569 51.8707C74.2142 51.2566 72.0684 59.5169 70.6912 67.2967ZM11.8647 113.919C6.78459 122.684 6.02151 129.921 9.90112 132.061C16.2334 135.513 25.9513 127.72 31.5011 114.76C33.5316 110.082 35.685 99.1304 34.6333 99.0656C34.423 99.0526 32.0303 102.758 29.3195 107.342C26.5594 111.869 24.0551 115.673 23.6279 115.753C21.226 116.185 21.9633 113.644 26.6889 105.49C29.5179 100.703 31.6768 96.5079 31.4795 96.2846C30.7393 95.4472 25.1228 99.2179 19.9672 104.073C16.1515 107.743 13.7614 110.552 11.8647 113.919ZM114.066 29.8563C111.935 35.3199 112.097 41.2417 114.416 43.8656C118.166 48.1085 123.16 45.8828 126.2 38.5222C127.627 35.0737 129.54 15.1866 128.439 15.0659C127.331 15.0504 123.812 23.3315 123.305 27.2591C122.741 32.1332 121.523 33.9055 120.043 32.2307C119.451 31.5607 119.495 29.1354 120.228 25.8025C120.886 22.8344 121.308 20.274 121.16 20.1065C120.63 19.2821 115.493 26.4077 114.066 29.8563Z" fill="#094C3B"/>
</svg>
