<svg width="151" height="54" viewBox="0 0 151 54" fill="none" xmlns="http://www.w3.org/2000/svg">
<mask id="mask0_1_123" style="mask-type:luminance" maskUnits="userSpaceOnUse" x="0" y="0" width="54" height="54">
<path d="M0 0H54V54H0V0Z" fill="white"/>
</mask>
<g mask="url(#mask0_1_123)">
<mask id="mask1_1_123" style="mask-type:luminance" maskUnits="userSpaceOnUse" x="0" y="0" width="54" height="54">
<path d="M27 0C12.0895 0 0 12.0895 0 27C0 41.9132 12.0895 54 27 54C41.9105 54 54 41.9132 54 27C54 12.0895 41.9105 0 27 0Z" fill="white"/>
</mask>
<g mask="url(#mask1_1_123)">
<path d="M0 0H54V54H0V0Z" fill="#094C3B"/>
</g>
</g>
<mask id="mask2_1_123" style="mask-type:luminance" maskUnits="userSpaceOnUse" x="12" y="11" width="30" height="32">
<path d="M12.9541 11.8578H41.0345V42.0991H12.9541V11.8578Z" fill="white"/>
</mask>
<g mask="url(#mask2_1_123)">
<path d="M33.2422 42.1449H41.0316L33.6329 31.3271C34.9235 30.8502 36.0551 30.1955 37.0278 29.3441C37.995 28.5007 38.7522 27.4634 39.2937 26.2294C39.8407 24.9954 40.1155 23.5674 40.1236 21.9373V21.8511C40.1236 20.4177 39.8999 19.119 39.4581 17.9497C39.0189 16.783 38.3696 15.7807 37.5262 14.9293C36.532 13.927 35.2926 13.1672 33.8134 12.6445C32.3369 12.1218 30.626 11.8578 28.6996 11.8578H12.9619L16.99 17.8716H28.1391C29.2277 17.8716 30.1572 18.0386 30.9359 18.3619C31.7145 18.6853 32.3208 19.1621 32.7384 19.8034C33.156 20.4473 33.3662 21.2476 33.3716 22.1987V22.2849C33.3716 23.1417 33.1722 23.8934 32.768 24.5266C32.3693 25.1678 31.7927 25.6663 31.0356 26.0273C30.2731 26.3803 29.3489 26.5608 28.2685 26.5689H22.8124L33.2422 42.1449Z" fill="white"/>
</g>
<path d="M60.0244 42.3795V9.92883H72.8279C76.5138 9.92883 79.3725 10.8934 81.4067 12.8172C83.4382 14.7355 84.4567 17.3086 84.4567 20.5338C84.4567 22.7485 83.9609 24.6399 82.9694 26.2134C81.9833 27.7869 80.5661 28.9724 78.7124 29.77L85.6099 42.3795H78.0334L71.8903 30.88H66.8788V42.3795H60.0244ZM66.8788 25.362H71.5454C75.4387 25.362 77.3868 23.7535 77.3868 20.5338C77.3868 17.2089 75.428 15.5438 71.5131 15.5438H66.8788V25.362Z" fill="#094C3B"/>
<path d="M91.8731 42.8429C89.5452 42.8429 87.616 42.2367 86.0856 41.0216C84.5552 39.801 83.79 37.9877 83.79 35.579C83.79 33.763 84.2157 32.335 85.0725 31.3004C85.9267 30.2657 87.0475 29.5086 88.4351 29.0263C89.8281 28.5468 91.3261 28.2342 92.9292 28.0887C95.0416 27.8812 96.5504 27.663 97.4557 27.4313C98.3664 27.1942 98.8245 26.685 98.8245 25.9009V25.8039C98.8245 24.807 98.5065 24.0337 97.8761 23.4868C97.251 22.9344 96.3618 22.6569 95.214 22.6569C93.9989 22.6569 93.0316 22.9237 92.3149 23.4544C91.5955 23.9798 91.1213 24.648 90.8923 25.459L84.6415 24.9525C85.1076 22.7324 86.2608 20.973 88.101 19.6716C89.9466 18.3729 92.3284 17.7209 95.2464 17.7209C97.0489 17.7209 98.7382 18.0092 100.312 18.5831C101.891 19.1516 103.162 20.0434 104.127 21.2559C105.097 22.4629 105.582 24.0337 105.582 25.9656V42.3795H99.1801V39.0062H98.9861C98.3961 40.1351 97.5123 41.0593 96.3349 41.776C95.1548 42.4873 93.6675 42.8429 91.8731 42.8429ZM93.8022 38.1763C95.2814 38.1763 96.4966 37.7506 97.445 36.8938C98.3988 36.0316 98.8784 34.962 98.8784 33.6822V31.0956C98.6116 31.2761 98.2021 31.4351 97.6497 31.5698C97.0947 31.7072 96.5019 31.8258 95.8715 31.9255C95.2464 32.0278 94.686 32.1168 94.1902 32.1949C93.0047 32.3619 92.0482 32.6906 91.3234 33.1864C90.5959 33.6822 90.2349 34.4096 90.2349 35.3634C90.2349 36.2903 90.569 36.9908 91.2372 37.465C91.9108 37.9392 92.7676 38.1763 93.8022 38.1763Z" fill="#094C3B"/>
<path d="M113.326 28.3042V42.3795H106.579V9.92883H113.143V22.3336H113.423C113.983 20.8975 114.872 19.7686 116.096 18.9495C117.316 18.1304 118.849 17.7209 120.697 17.7209C123.233 17.7209 125.27 18.5373 126.808 20.1673C128.352 21.792 129.12 24.031 129.115 26.8816V42.3795H122.357V28.0887C122.371 26.5879 121.993 25.4213 121.226 24.5861C120.463 23.7535 119.393 23.3359 118.014 23.3359C116.64 23.3359 115.519 23.7724 114.651 24.6399C113.781 25.5102 113.339 26.7307 113.326 28.3042Z" fill="#094C3B"/>
<path d="M137.131 42.8429C134.803 42.8429 132.874 42.2367 131.343 41.0216C129.813 39.801 129.048 37.9877 129.048 35.579C129.048 33.763 129.474 32.335 130.33 31.3004C131.184 30.2657 132.305 29.5086 133.693 29.0263C135.086 28.5468 136.584 28.2342 138.187 28.0887C140.299 27.8812 141.808 27.663 142.714 27.4313C143.624 27.1942 144.082 26.685 144.082 25.9009V25.8039C144.082 24.807 143.764 24.0337 143.134 23.4868C142.509 22.9344 141.62 22.6569 140.472 22.6569C139.257 22.6569 138.289 22.9237 137.573 23.4544C136.853 23.9798 136.379 24.648 136.15 25.459L129.899 24.9525C130.365 22.7324 131.519 20.973 133.359 19.6716C135.204 18.3729 137.586 17.7209 140.504 17.7209C142.307 17.7209 143.996 18.0092 145.57 18.5831C147.148 19.1516 148.42 20.0434 149.385 21.2559C150.355 22.4629 150.84 24.0337 150.84 25.9656V42.3795H144.438V39.0062H144.244C143.654 40.1351 142.77 41.0593 141.593 41.776C140.413 42.4873 138.925 42.8429 137.131 42.8429ZM139.06 38.1763C140.539 38.1763 141.754 37.7506 142.703 36.8938C143.657 36.0316 144.136 34.962 144.136 33.6822V31.0956C143.869 31.2761 143.46 31.4351 142.908 31.5698C142.353 31.7072 141.76 31.8258 141.129 31.9255C140.504 32.0278 139.944 32.1168 139.448 32.1949C138.263 32.3619 137.306 32.6906 136.581 33.1864C135.854 33.6822 135.493 34.4096 135.493 35.3634C135.493 36.2903 135.827 36.9908 136.495 37.465C137.169 37.9392 138.025 38.1763 139.06 38.1763Z" fill="#094C3B"/>
</svg>
