<svg width="102" height="246" viewBox="0 0 102 246" fill="none" xmlns="http://www.w3.org/2000/svg">
<path d="M66.6164 -89.9826C65.6838 -87.4392 64.4121 -38.7756 63.9035 13.5336L63.3948 70.1665L60.3427 67.284C56.1885 63.2145 54.3233 62.4515 49.2366 62.4515C45.3367 62.4515 44.4889 62.7906 42.0303 65.2492C38.4695 68.81 37.6217 72.9642 38.9782 79.8314C41.352 91.0223 49.3213 102.891 59.6645 110.522L63.8187 113.574L68.8207 108.572C81.4529 96.0243 93.9155 73.4729 92.1351 66.2666C90.0156 57.9582 78.8247 59.2299 70.9402 68.5557L67.8881 72.2012L68.0577 27.6918C68.1425 -14.7829 68.7359 -47.1688 69.9228 -77.2656C70.5163 -90.7456 70.5163 -90.9999 68.7359 -90.9999C67.8033 -90.9999 66.786 -90.4912 66.6164 -89.9826ZM51.1017 75.5924C51.0169 77.4575 51.2713 80.0009 51.6952 81.2726C52.2886 82.9682 52.2038 83.816 51.356 84.4943C49.6605 85.8507 48.5583 84.9182 47.4562 81.1878C46.2693 77.0336 47.7105 71.5229 49.9148 71.9468C51.0169 72.2012 51.2713 73.049 51.1017 75.5924ZM56.782 91.6158C58.9015 93.82 58.5623 95.5156 56.1037 95.5156C53.8994 95.5156 51.5256 91.8701 52.8821 90.5136C54.2386 89.1571 54.5777 89.3267 56.782 91.6158Z" fill="white"/>
<path d="M25.1598 -62.0053C24.7359 -50.1361 23.8881 83.4768 23.7185 153.335C23.7185 165.883 23.5489 176.056 23.2946 176.056C23.0403 176.056 21.8533 174.869 20.6664 173.513C14.6471 166.307 5.2365 166.815 1.33663 174.361C-2.7328 182.16 2.94745 200.982 12.1884 210.647C15.7492 214.377 24.3967 220.142 26.4315 220.142C30.4161 220.142 45.5917 201.066 50.9328 189.367C55.6805 178.769 55.7653 172.919 51.1024 169.189C46.1004 165.289 35.842 168.681 30.7552 176.056C29.4835 177.922 28.2118 179.363 27.8727 179.448C27.5336 179.448 27.4488 177.074 27.6184 174.106C27.7879 170.207 29.1444 -12.2396 29.314 -69.3812C29.314 -74.8071 29.1444 -75.3158 27.5336 -75.5701C25.7532 -75.8244 25.6684 -75.4853 25.1598 -62.0053ZM13.2906 183.263C13.3754 185.636 13.6297 188.434 13.7145 189.621C13.9688 191.062 13.6297 191.741 12.5276 191.995C11.0015 192.334 8.54291 187.841 8.54291 184.619C8.54291 181.482 10.1537 178.43 11.7645 178.769C12.8667 179.024 13.2058 179.956 13.2906 183.263Z" fill="white"/>
<path d="M82.8947 191.062C82.6404 191.401 82.2165 193.097 81.8774 194.708C80.3513 201.829 71.9581 213.02 67.0409 214.631C64.8366 215.309 64.8366 218.192 67.0409 218.87C69.6691 219.718 73.7385 223.448 75.2645 226.331C76.1123 227.941 76.7906 232.265 77.1297 237.522C77.5536 245.152 77.8079 246 79.2492 246C80.6057 246 81.1143 244.982 81.9621 240.743C83.9121 231.078 90.101 222.176 99.6811 215.394C102.479 213.444 101.97 211.664 98.579 211.664C92.7292 211.664 88.9141 206.662 87.0489 196.573C86.3707 192.588 85.6077 190.808 84.6751 190.638C83.9121 190.469 83.1491 190.723 82.8947 191.062ZM91.4575 213.02L94.1704 214.885L91.0336 217.429C89.2532 218.87 86.2859 222.261 84.5055 224.974L81.1143 229.976L78.6557 225.059C77.384 222.346 75.1798 219.379 73.8233 218.446L71.3647 216.75L75.6037 212.766C77.8927 210.646 80.5209 207.594 81.5382 206.068L83.3186 203.186L85.9468 207.17C87.4728 209.375 89.9314 212.003 91.4575 213.02Z" fill="white"/>
</svg>
