<svg width="175" height="197" viewBox="0 0 175 197" fill="none" xmlns="http://www.w3.org/2000/svg">
<path d="M113.847 0.0886078C91.3046 0.815628 58.258 3.64291 47.1886 5.82397C36.2809 7.92426 29.7362 12.3671 26.3427 19.7989C23.5955 25.7766 23.5955 38.2975 26.2619 49.3643C26.5851 50.7376 26.1003 51.3031 23.9995 52.1916C19.3132 54.1304 11.7182 62.5315 8.08224 69.9632C1.86077 82.4841 -0.0783922 99.6094 0.00240615 140.565C0.00240615 168.999 0.971987 186.932 2.83035 192.506C4.68871 198.161 9.85981 203.815 15.6773 206.724C20.9292 209.228 33.2913 212.217 48.7238 214.64C64.2371 217.063 98.738 217.629 115.382 215.69C144.874 212.378 154.974 207.854 161.518 195.01C164.75 188.71 165.881 182.328 170.083 144.2C174.85 101.871 175.173 88.381 171.78 73.9214C169.194 62.7738 166.043 56.0691 160.226 49.2028L155.943 44.1944L156.832 38.7014C157.236 35.7125 157.478 29.5733 157.317 25.1304C157.074 17.7794 156.751 16.4869 154.57 12.5287C151.58 7.27802 146.813 3.31981 141.319 1.70421C136.713 0.330948 126.129 -0.234512 113.847 0.0886078ZM139.703 4.93539C142.612 5.82397 145.197 7.3588 147.702 9.7822C152.146 13.9827 152.388 13.7404 140.43 17.7794C129.441 21.4145 115.706 23.7571 102.212 24.2418C96.3948 24.4841 88.4766 24.8073 84.6791 25.0496L77.7304 25.4535L70.701 16.4869C66.8226 11.5594 63.7523 7.3588 63.9947 7.19724C64.3179 6.79333 89.4462 4.53149 97.2836 4.20837C100.435 4.04681 110.211 3.88525 119.18 3.80447C131.946 3.64291 136.309 3.88525 139.703 4.93539ZM66.9035 15.9215C70.5394 20.5259 73.4481 24.4841 73.4481 24.8073C73.4481 25.2112 71.8321 25.4535 69.893 25.4535C66.5803 25.4535 66.0955 25.1304 63.1867 21.576C58.4196 15.7599 54.0565 9.62064 54.0565 8.5705C54.0565 8.08582 55.4301 7.68192 57.2076 7.68192C60.278 7.68192 60.682 7.92426 66.9035 15.9215ZM55.6725 16.0022C58.5812 20.0412 61.086 23.6763 61.1668 23.9995C61.3284 24.4034 60.1972 24.6457 58.7428 24.6457C56.2381 24.6457 55.4301 23.9187 50.1782 17.4563C46.9463 13.4981 44.3607 10.1053 44.3607 9.86298C44.3607 9.3783 46.8655 8.81284 49.2086 8.65128C49.855 8.5705 52.7637 11.8825 55.6725 16.0022ZM46.6231 17.3755C49.3702 20.6875 51.3902 23.5148 51.2286 23.6763C51.067 23.8379 49.451 23.7571 47.5926 23.434C44.7647 22.9493 43.9567 22.3031 41.048 18.1025C38.3816 14.1443 37.9776 13.0134 38.7856 12.044C40.3208 10.1861 41.3712 10.9131 46.6231 17.3755ZM37.412 17.4563C38.624 19.2334 39.432 20.9298 39.2704 21.0914C38.9472 21.4145 32.4025 19.1527 31.5138 18.4256C31.1906 18.1833 34.6649 14.1443 35.0689 14.1443C35.1497 14.1443 36.2809 15.5983 37.412 17.4563ZM153.196 19.5566C154.085 22.7878 153.681 35.4702 152.469 41.2056L151.419 46.0524L147.136 47.5872C144.793 48.395 142.692 48.8797 142.369 48.5565C142.046 48.3142 141.804 42.0134 141.804 34.6624L141.723 21.2529L146.167 19.395C151.984 16.9716 152.469 16.9716 153.196 19.5566ZM34.2609 23.434L37.4928 24.7265V37.9744C37.4928 45.3253 37.4928 51.3031 37.412 51.3031C37.412 51.3031 35.7153 50.7376 33.6953 50.0106L29.9786 48.7989L29.0898 43.7097C27.5546 34.7432 28.1202 22.2223 30.0594 22.2223C30.5442 22.2223 32.4025 22.7878 34.2609 23.434ZM137.602 36.4396C137.844 43.8713 138.006 50.0914 137.764 50.2529C137.036 50.9799 125.967 53.5649 125.644 53.0802C125.482 52.7571 125.078 46.4563 124.755 39.1053L124.109 25.6151L129.28 24.4034C137.764 22.4646 136.956 21.2529 137.602 36.4396ZM50.9054 27.7961C51.471 28.3616 53.2485 53.888 52.7637 54.4535C52.2789 54.9382 43.3103 52.9994 42.5023 52.1916C41.5328 51.2223 40.7248 31.2696 41.452 28.2808C42.0176 26.1805 42.0984 26.0997 46.2191 26.6652C48.5622 26.9883 50.663 27.473 50.9054 27.7961ZM120.554 36.1164C120.877 41.4479 121.119 47.8295 121.119 50.1721V54.3727L117.079 55.2613C114.817 55.746 111.908 56.1498 110.696 56.1498H108.434L107.868 42.3365C107.545 34.7432 107.545 28.2808 107.787 27.9577C108.111 27.7153 110.211 27.3114 112.474 26.9883C120.877 26.019 119.988 24.9688 120.554 36.1164ZM66.5803 28.6847H69.085L70.0546 42.0134C70.6202 49.3643 71.105 55.6652 71.2666 55.9883C71.5898 57.0384 69.9738 57.1192 63.6715 56.5537L57.45 56.0691L56.9652 52.6763C56.7229 50.8184 56.3189 44.4368 55.9957 38.459L55.4301 27.6346L59.7932 28.1192C62.2171 28.4424 65.2875 28.6847 66.5803 28.6847ZM103.667 38.1359C103.99 43.8713 104.313 50.3337 104.394 52.5955L104.636 56.7961L101.808 57.2808C100.192 57.5231 96.9604 57.7654 94.6981 57.7654H90.4158V43.3058C90.4158 26.8268 89.7694 28.1192 98.1724 27.9577L103.182 27.8769L103.667 38.1359ZM86.3759 43.2251V57.7654H81.124C76.3569 57.7654 75.8721 57.6039 75.4681 55.9075C74.9025 53.2418 73.4481 36.9242 73.4481 32.4813V28.6847H79.912H86.3759V43.2251ZM157.721 52.1109C167.336 63.3393 172.184 86.8462 169.679 110.272C165.639 149.451 162.973 173.038 161.922 179.42C160.791 186.448 158.69 193.476 157.64 193.476C157.398 193.476 153.358 192.264 148.671 190.729C130.088 184.751 113.766 182.57 92.4357 183.217C77.488 183.621 75.0641 184.024 75.0641 185.802C75.0641 187.417 76.68 187.66 83.1439 186.852C90.335 185.882 116.594 186.529 119.503 187.66C120.877 188.144 123.866 191.941 127.987 198.242C132.108 204.462 134.936 208.016 135.905 208.016C136.632 208.016 137.279 207.854 137.279 207.612C137.279 207.37 134.532 203.088 131.219 198.161C127.906 193.153 125.321 189.033 125.482 188.871C125.644 188.71 127.26 188.79 129.199 189.114C132.431 189.679 132.916 190.083 136.875 196.222C143.016 205.754 143.339 206.481 142.046 207.289C139.784 208.662 130.088 210.52 116.271 212.136C80.5584 216.417 28.1202 211.005 14.4653 201.715C12.0414 200.1 10.0214 198.322 10.0214 197.919C10.0214 195.818 27.1507 188.952 37.0889 187.013C40.4824 186.286 53.2485 185.398 59.066 185.398C60.278 185.398 59.7124 183.136 58.4196 182.651C56.2381 181.843 46.7039 182.166 38.7048 183.297C30.0594 184.671 18.6668 188.387 12.1222 192.022C7.03186 194.849 6.95106 194.768 5.49669 187.094C4.04232 179.662 3.96153 104.86 5.3351 94.5203C8.16304 74.4869 15.2733 61.1582 26.5043 55.0997L30.4634 52.9187L39.5936 55.3421C67.7922 62.7738 101 63.0969 129.603 56.1498C134.936 54.8574 142.369 52.7571 146.167 51.3838C149.964 50.0914 153.438 48.9604 154.004 48.9604C154.489 48.8797 156.186 50.3337 157.721 52.1109ZM142.288 192.264C143.743 192.668 145.359 194.283 147.459 197.676L150.449 202.604L148.591 204.139C147.621 204.946 146.571 205.593 146.247 205.593C145.843 205.593 138.248 193.718 137.36 191.618C137.198 191.214 137.764 191.052 138.572 191.295C139.46 191.618 141.076 192.022 142.288 192.264ZM152.631 195.576C154.408 196.303 155.862 197.111 155.862 197.515C155.862 198.242 152.711 201.15 152.388 200.665C151.176 199.211 148.591 194.283 148.914 194.283C149.156 194.283 150.853 194.849 152.631 195.576Z" fill="white"/>
<path d="M59.712 73.5985C58.0152 75.0525 56.884 77.1528 55.9144 80.4648L54.6217 85.15L51.8745 83.0497C50.097 81.6765 47.7538 80.7879 45.2491 80.5455C41.8555 80.2224 41.2091 80.4648 39.9972 82.0804C37.0076 86.4425 39.7548 94.7628 47.3498 104.133C51.2281 108.899 58.0152 114.312 60.2776 114.312C65.1255 114.312 69.4078 100.498 69.4078 84.7461C69.4078 76.4258 69.327 76.1834 67.0646 73.8408C64.1559 70.9327 62.9439 70.9327 59.712 73.5985Z" fill="white"/>
<path d="M25.7774 76.6679C21.5759 82.2418 19.152 89.0273 18.9904 95.732C18.9096 100.498 19.0712 100.983 20.6063 101.225C22.1415 101.467 22.3839 100.983 22.7879 95.9743C23.3535 88.7041 25.939 82.161 29.8981 77.6373C31.6757 75.6178 32.9685 73.5983 32.6453 73.1136C31.4333 71.1749 28.9286 72.4674 25.7774 76.6679Z" fill="white"/>
<path d="M120.311 74.1643C117.241 75.6991 116.19 79.6573 116.756 87.6545C117.483 99.1253 122.977 112.696 126.856 112.696C129.764 112.696 131.623 111.081 135.178 105.588C139.622 98.5598 141.722 93.5515 143.258 85.7158C144.47 79.9804 144.47 79.1726 143.338 77.4763C141.399 74.4874 137.763 74.8913 134.208 78.4456C132.35 80.3036 131.138 81.0306 130.895 80.3036C130.33 78.6072 125.644 74.0835 123.947 73.5988C123.058 73.3565 121.442 73.5988 120.311 74.1643Z" fill="white"/>
<path d="M18.8285 108.98C18.0205 111.08 19.2325 114.312 20.8484 114.312C22.9492 114.312 23.1916 113.746 22.626 110.838C22.0604 108.011 19.6365 106.88 18.8285 108.98Z" fill="white"/>
<path d="M84.9213 110.03C81.7701 111.242 79.9118 120.127 79.9118 133.375C79.831 143.311 80.4773 145.896 83.4669 147.835C86.4564 149.854 89.5268 148.804 96.4754 143.311C108.514 133.779 114.817 122.389 110.938 116.896C109.08 114.23 105.121 114.553 100.273 117.865L96.233 120.693L95.3442 117.058C93.8091 111.08 89.5268 108.172 84.9213 110.03Z" fill="white"/>
<path d="M49.2084 127.882C47.1884 129.902 45.1685 135.88 45.1685 139.838C45.1685 140.726 44.4413 140.484 42.3405 138.868C36.4422 134.426 29.0088 135.637 29.0088 141.211C29.0088 146.866 38.543 159.871 46.542 165.122C51.3899 168.353 55.6722 168.515 57.9346 165.607C59.9546 163.102 61.3281 153.894 61.3281 143.554C61.2473 133.779 60.3585 129.74 57.6922 127.398C54.8643 124.974 51.9555 125.136 49.2084 127.882Z" fill="white"/>
<path d="M127.664 144.039C122.493 144.846 113.767 158.579 112.07 168.596C110.939 175.139 112.07 177.562 116.999 179.016C124.836 181.359 141.965 174.493 147.702 166.738C150.53 162.941 150.772 160.033 148.348 157.61C145.924 155.186 142.45 154.863 137.279 156.721C133.885 157.933 133.885 157.933 134.37 156.075C136.875 146.947 134.693 142.988 127.664 144.039Z" fill="white"/>
</svg>
