<svg width="119" height="81" viewBox="0 0 119 81" fill="none" xmlns="http://www.w3.org/2000/svg">
<path d="M27.3655 80.2C12.1926 80.2 0 68.0074 0 52.8345C0 30.8878 15.173 14.3601 31.9716 0L41.4547 9.48311C36.3068 14.3601 31.7007 19.7791 27.9074 25.4689C42.8095 25.7399 54.7311 37.9324 54.7311 52.8345C54.7311 68.0074 42.5385 80.2 27.3655 80.2ZM91.0378 80.2C76.1358 80.2 63.6723 68.0074 63.6723 52.8345C63.6723 30.8878 78.8453 14.3601 95.6439 0L105.127 9.48311C99.9791 14.3601 95.373 19.7791 91.5797 25.4689C106.482 25.7399 118.403 37.9324 118.403 52.8345C118.403 68.0074 106.211 80.2 91.0378 80.2Z" fill="#F2F2F2"/>
</svg>
