<svg width="151" height="54" viewBox="0 0 151 54" fill="none" xmlns="http://www.w3.org/2000/svg">
<mask id="mask0_1_559" style="mask-type:luminance" maskUnits="userSpaceOnUse" x="0" y="0" width="54" height="54">
<path d="M0 0H54V54H0V0Z" fill="white"/>
</mask>
<g mask="url(#mask0_1_559)">
<mask id="mask1_1_559" style="mask-type:luminance" maskUnits="userSpaceOnUse" x="0" y="0" width="54" height="54">
<path d="M27 0C12.0895 0 0 12.0895 0 27C0 41.9132 12.0895 54 27 54C41.9105 54 54 41.9132 54 27C54 12.0895 41.9105 0 27 0Z" fill="white"/>
</mask>
<g mask="url(#mask1_1_559)">
<path d="M0 0H54V54H0V0Z" fill="white"/>
</g>
</g>
<mask id="mask2_1_559" style="mask-type:luminance" maskUnits="userSpaceOnUse" x="12" y="11" width="30" height="32">
<path d="M12.9541 11.8574H41.0345V42.0987H12.9541V11.8574Z" fill="white"/>
</mask>
<g mask="url(#mask2_1_559)">
<path d="M33.2422 42.1445H41.0316L33.6329 31.3267C34.9235 30.8498 36.0551 30.1951 37.0278 29.3437C37.995 28.5004 38.7522 27.463 39.2937 26.229C39.8407 24.995 40.1155 23.567 40.1236 21.937V21.8507C40.1236 20.4173 39.8999 19.1187 39.4581 17.9493C39.0189 16.7827 38.3696 15.7804 37.5262 14.929C36.532 13.9267 35.2926 13.1669 33.8134 12.6442C32.3369 12.1215 30.626 11.8574 28.6996 11.8574H12.9619L16.99 17.8712H28.1391C29.2277 17.8712 30.1572 18.0382 30.9359 18.3616C31.7145 18.6849 32.3208 19.1618 32.7384 19.803C33.156 20.447 33.3662 21.2472 33.3716 22.1983V22.2845C33.3716 23.1413 33.1722 23.893 32.768 24.5262C32.3693 25.1675 31.7927 25.6659 31.0356 26.027C30.2731 26.3799 29.3489 26.5604 28.2685 26.5685H22.8124L33.2422 42.1445Z" fill="#094C3B"/>
</g>
<path d="M60.0244 42.3794V9.92871H72.8279C76.5138 9.92871 79.3725 10.8933 81.4067 12.817C83.4382 14.7354 84.4567 17.3085 84.4567 20.5336C84.4567 22.7484 83.9609 24.6398 82.9694 26.2133C81.9833 27.7868 80.5661 28.9723 78.7124 29.7698L85.6099 42.3794H78.0334L71.8903 30.8799H66.8788V42.3794H60.0244ZM66.8788 25.3619H71.5454C75.4387 25.3619 77.3868 23.7534 77.3868 20.5336C77.3868 17.2088 75.428 15.5437 71.5131 15.5437H66.8788V25.3619Z" fill="white"/>
<path d="M91.8731 42.8427C89.5452 42.8427 87.616 42.2365 86.0856 41.0214C84.5552 39.8008 83.79 37.9875 83.79 35.5788C83.79 33.7628 84.2157 32.3348 85.0725 31.3002C85.9267 30.2656 87.0475 29.5084 88.4351 29.0262C89.8281 28.5466 91.3261 28.234 92.9292 28.0885C95.0416 27.8811 96.5504 27.6628 97.4557 27.4311C98.3664 27.194 98.8245 26.6848 98.8245 25.9007V25.8037C98.8245 24.8068 98.5065 24.0335 97.8761 23.4866C97.251 22.9343 96.3618 22.6567 95.214 22.6567C93.9989 22.6567 93.0316 22.9235 92.3149 23.4543C91.5955 23.9797 91.1213 24.6479 90.8923 25.4589L84.6415 24.9523C85.1076 22.7322 86.2608 20.9728 88.101 19.6714C89.9466 18.3727 92.3284 17.7207 95.2464 17.7207C97.0489 17.7207 98.7382 18.009 100.312 18.5829C101.891 19.1514 103.162 20.0432 104.127 21.2557C105.097 22.4627 105.582 24.0335 105.582 25.9654V42.3793H99.1801V39.006H98.9861C98.3961 40.1349 97.5123 41.0591 96.3349 41.7758C95.1548 42.4871 93.6675 42.8427 91.8731 42.8427ZM93.8022 38.1761C95.2814 38.1761 96.4966 37.7504 97.445 36.8936C98.3988 36.0315 98.8784 34.9618 98.8784 33.682V31.0954C98.6116 31.2759 98.2021 31.4349 97.6497 31.5696C97.0947 31.707 96.5019 31.8256 95.8715 31.9253C95.2464 32.0277 94.686 32.1166 94.1902 32.1947C93.0047 32.3618 92.0482 32.6905 91.3234 33.1862C90.5959 33.682 90.2349 34.4095 90.2349 35.3633C90.2349 36.2901 90.569 36.9906 91.2372 37.4648C91.9108 37.939 92.7676 38.1761 93.8022 38.1761Z" fill="white"/>
<path d="M113.326 28.3041V42.3794H106.579V9.92871H113.143V22.3335H113.423C113.983 20.8974 114.872 19.7684 116.096 18.9494C117.316 18.1303 118.849 17.7207 120.697 17.7207C123.233 17.7207 125.27 18.5371 126.808 20.1672C128.352 21.7919 129.12 24.0309 129.115 26.8815V42.3794H122.357V28.0886C122.371 26.5878 121.993 25.4212 121.226 24.5859C120.463 23.7534 119.393 23.3358 118.014 23.3358C116.64 23.3358 115.519 23.7722 114.651 24.6398C113.781 25.5101 113.339 26.7306 113.326 28.3041Z" fill="white"/>
<path d="M137.131 42.8427C134.803 42.8427 132.874 42.2365 131.343 41.0214C129.813 39.8008 129.048 37.9875 129.048 35.5788C129.048 33.7628 129.474 32.3348 130.33 31.3002C131.184 30.2656 132.305 29.5084 133.693 29.0262C135.086 28.5466 136.584 28.234 138.187 28.0885C140.299 27.8811 141.808 27.6628 142.714 27.4311C143.624 27.194 144.082 26.6848 144.082 25.9007V25.8037C144.082 24.8068 143.764 24.0335 143.134 23.4866C142.509 22.9343 141.62 22.6567 140.472 22.6567C139.257 22.6567 138.289 22.9235 137.573 23.4543C136.853 23.9797 136.379 24.6479 136.15 25.4589L129.899 24.9523C130.365 22.7322 131.519 20.9728 133.359 19.6714C135.204 18.3727 137.586 17.7207 140.504 17.7207C142.307 17.7207 143.996 18.009 145.57 18.5829C147.148 19.1514 148.42 20.0432 149.385 21.2557C150.355 22.4627 150.84 24.0335 150.84 25.9654V42.3793H144.438V39.006H144.244C143.654 40.1349 142.77 41.0591 141.593 41.7758C140.413 42.4871 138.925 42.8427 137.131 42.8427ZM139.06 38.1761C140.539 38.1761 141.754 37.7504 142.703 36.8936C143.657 36.0315 144.136 34.9618 144.136 33.682V31.0954C143.869 31.2759 143.46 31.4349 142.908 31.5696C142.353 31.707 141.76 31.8256 141.129 31.9253C140.504 32.0277 139.944 32.1166 139.448 32.1947C138.263 32.3618 137.306 32.6905 136.581 33.1862C135.854 33.682 135.493 34.4095 135.493 35.3633C135.493 36.2901 135.827 36.9906 136.495 37.4648C137.169 37.939 138.025 38.1761 139.06 38.1761Z" fill="white"/>
</svg>
