<svg width="85" height="106" viewBox="0 0 85 106" fill="none" xmlns="http://www.w3.org/2000/svg">
<path d="M70.1439 100.151C70.4603 99.7829 70.7033 98.3788 70.6231 97.0625C70.2711 91.1721 74.044 80.287 77.5093 76.9506C79.8135 74.7045 79.3701 73.8391 75.3389 72.5404C68.3238 70.2218 63.7066 65.4908 61.5875 58.461C60.5424 54.8717 60.2884 54.4477 59.1252 54.7639C58.0265 55.0626 57.9352 56.0029 58.403 61.2985C59.3343 72.3837 56.9297 80.6432 51.071 85.8979C48.8604 87.9777 48.5974 88.5422 49.393 89.171C49.9879 89.5727 51.5813 89.5621 53.003 89.1756C58.69 87.6298 64.1674 90.9297 66.8793 97.5872C68.1583 100.761 69.0363 101.438 70.1439 100.151ZM65.139 89.398C63.7775 88.2187 61.3574 86.9751 59.5925 86.6098C57.8922 86.2268 56.4037 85.8568 56.2566 85.8264C56.0917 85.7303 57.0388 83.8531 58.2556 81.6913C59.6595 79.1969 60.7961 75.7189 61.2285 72.7139C61.6675 69.9889 62.1489 67.6749 62.3428 67.6222C62.6013 67.5519 63.35 68.2639 64.1054 69.2558C64.843 70.1821 67.4235 72.0159 69.8792 73.3907L74.2781 75.7866L71.7042 80.3596C70.318 82.9196 68.8405 86.4199 68.4282 88.2222C68.0159 90.0245 67.6616 91.5293 67.6616 91.5293C67.597 91.5468 66.5006 90.5772 65.139 89.398Z" fill="white"/>
<path d="M26.122 44.4161C26.4356 43.4938 26.6305 42.3945 26.4893 41.8749C25.6594 38.8221 29.6061 29.7277 33.7024 25.3358C34.9963 23.868 35.9921 22.3417 35.8862 21.952C35.7626 21.4973 34.2498 20.8623 32.4615 20.5113C27.3771 19.452 24.3642 17.9692 22.0894 15.3091C20.2538 13.2272 19.7566 12.1766 19.1796 8.49701C18.5624 4.40985 18.4261 4.16789 17.1781 4.50712C15.7331 4.89992 15.6088 6.25902 16.0332 12.4912C16.1059 13.7967 15.7711 17.2359 15.2294 20.1733C14.2675 25.457 12.4601 28.6686 8.49797 32.2568C7.49225 33.2277 6.78456 34.2571 7.1052 34.6582C7.34251 35.0122 9.32781 35.3096 11.5709 35.2579C14.5061 35.1575 16.5267 35.5848 18.9259 36.8858C22.2241 38.6398 22.3075 38.6869 22.8011 42.3194C23.4361 46.4715 24.9715 47.4492 26.122 44.4161ZM16.442 32.6782L13.3126 32.0641L15.3826 28.781C17.1165 26.0776 17.8525 23.8547 19.1026 18.0741C19.133 17.9264 20.5497 18.7271 22.2518 19.799C23.9539 20.8708 26.6158 22.1004 28.0756 22.5406L30.8286 23.3268L28.2557 27.0953C26.8403 29.1541 25.2908 32.0167 24.9214 33.5122L24.0767 36.1134L21.7912 34.7118C20.6068 33.9875 18.1646 33.047 16.442 32.6782Z" fill="#FFE353"/>
</svg>
