<svg width="84" height="105" viewBox="0 0 84 105" fill="none" xmlns="http://www.w3.org/2000/svg">
<path d="M14.7577 4.59998C14.4345 4.96181 14.1658 6.36121 14.2218 7.67873C14.4654 13.5746 10.493 24.3885 6.96695 27.6606C4.6218 29.864 5.04926 30.7374 9.0559 32.11C16.0271 34.5571 20.5566 39.3723 22.5461 46.4399C23.525 50.0478 23.7712 50.4763 24.94 50.1815C26.044 49.9032 26.1526 48.9646 25.7822 43.6614C25.0549 32.5609 27.611 24.347 33.5652 19.201C35.8138 17.1621 36.0871 16.6026 35.3032 15.9592C34.7157 15.5467 33.1225 15.528 31.6939 15.8882C25.9794 17.3293 20.5636 13.9292 17.9746 7.22297C16.7541 4.02644 15.8887 3.33355 14.7577 4.59998ZM19.564 15.4428C20.9036 16.6469 23.3004 17.9348 25.0583 18.3325C26.7512 18.7466 28.2328 19.144 28.3793 19.1771C28.5424 19.2762 27.5609 21.1356 26.3046 23.2747C24.855 25.7428 23.6547 29.1994 23.1671 32.1959C22.678 34.9124 22.1542 37.2172 21.9594 37.2664C21.6996 37.3319 20.9641 36.6062 20.2271 35.6006C19.5066 34.6609 16.9603 32.7799 14.5303 31.3602L10.1762 28.8838L12.8338 24.3589C14.2667 21.8248 15.8084 18.3523 16.2537 16.5579C16.6991 14.7635 17.081 13.2655 17.081 13.2655C17.146 13.2491 18.2243 14.2387 19.564 15.4428Z" fill="white"/>
<path d="M57.7471 61.1345C57.4166 62.0508 57.2015 63.1463 57.3331 63.6685C58.1067 66.7361 53.9935 75.7564 49.8171 80.0722C48.4964 81.5159 47.4727 83.0236 47.5715 83.4152C47.6867 83.8721 49.1875 84.5349 50.969 84.9186C56.0331 86.0712 59.0182 87.6092 61.2438 90.3106C63.0408 92.426 63.5186 93.4856 64.0278 97.1751C64.5698 101.273 64.7016 101.517 65.9556 101.201C67.4076 100.835 67.5569 99.4784 67.2471 93.2395C67.1984 91.9328 67.5964 88.5004 68.192 85.5735C69.251 80.3084 71.1171 77.1305 75.1445 73.6158C76.1679 72.6635 76.8944 71.6473 76.5812 71.2404C76.3504 70.8821 74.3709 70.5482 72.1273 70.5587C69.1907 70.605 67.1783 70.1407 64.8034 68.7959C61.538 66.9814 61.4556 66.9328 61.0288 63.2919C60.4703 59.1288 58.9531 58.123 57.7471 61.1345ZM67.2096 73.0483L70.3272 73.7199L68.1971 76.9644C66.4138 79.6355 65.6371 81.8444 64.2809 87.601C64.2478 87.7482 62.846 86.9216 61.164 85.8186C59.4819 84.7156 56.843 83.4374 55.3915 82.9704L52.6534 82.1337L55.2952 78.4131C56.7482 76.3806 58.3501 73.547 58.747 72.0586L59.6393 69.4734L61.8986 70.9167C63.0695 71.6627 65.4941 72.6479 67.2096 73.0483Z" fill="#FFE353"/>
</svg>
