<svg width="1432" height="42" viewBox="0 0 1432 42" fill="none" xmlns="http://www.w3.org/2000/svg">
<g clip-path="url(#clip0_1_280)">
<path d="M122.355 29.5236H127.018V11.935H122.355V29.5236ZM122.355 9.19214H127.018V5.00928H122.355V9.19214Z" fill="#828282"/>
<path d="M130.023 35.2837H134.686V27.5351H134.754C135.748 29.0437 137.36 30.038 139.828 30.038C144.354 30.038 147.44 26.438 147.44 20.7466C147.44 15.2608 144.457 11.4551 139.794 11.4551C137.394 11.4551 135.748 12.5866 134.617 14.1294H134.514V11.9351H130.023V35.2837ZM138.834 26.1637C136.057 26.1637 134.583 24.0723 134.583 20.8837C134.583 17.7294 135.748 15.2266 138.663 15.2266C141.543 15.2266 142.708 17.558 142.708 20.8837C142.708 24.2094 141.2 26.1637 138.834 26.1637Z" fill="#828282"/>
<path d="M156.741 30.038C161.13 30.038 164.147 27.9123 164.147 24.3808C164.147 20.2666 160.89 19.4437 157.941 18.8266C155.438 18.3123 153.107 18.1751 153.107 16.6666C153.107 15.398 154.307 14.7123 156.124 14.7123C158.113 14.7123 159.313 15.398 159.518 17.2837H163.735C163.393 13.7523 160.821 11.4551 156.193 11.4551C152.181 11.4551 149.027 13.2723 149.027 17.078C149.027 20.918 152.113 21.7751 155.267 22.3923C157.667 22.8723 159.895 23.0437 159.895 24.7237C159.895 25.958 158.73 26.7466 156.673 26.7466C154.581 26.7466 153.141 25.8551 152.833 23.8323H148.513C148.787 27.5694 151.633 30.038 156.741 30.038Z" fill="#828282"/>
<path d="M181.85 29.5237V11.9351H177.187V22.0837C177.187 24.4151 175.85 26.0608 173.656 26.0608C171.667 26.0608 170.742 24.9294 170.742 22.8723V11.9351H166.113V23.6608C166.113 27.5008 168.307 30.0037 172.216 30.0037C174.685 30.0037 176.056 29.078 177.256 27.4666H177.359V29.5237H181.85Z" fill="#828282"/>
<path d="M184.866 29.5237H189.529V19.3066C189.529 16.9751 190.798 15.4666 192.684 15.4666C194.398 15.4666 195.392 16.4951 195.392 18.4837V29.5237H200.055V19.3066C200.055 16.9751 201.255 15.4666 203.209 15.4666C204.924 15.4666 205.918 16.4951 205.918 18.4837V29.5237H210.581V17.6951C210.581 13.8551 208.489 11.4551 204.786 11.4551C202.558 11.4551 200.706 12.6208 199.506 14.5408H199.438C198.581 12.6894 196.798 11.4551 194.569 11.4551C192.135 11.4551 190.421 12.6894 189.461 14.3008H189.358V11.9351H184.866V29.5237Z" fill="#828282"/>
<path d="M0.824219 29.5236H5.48707V5.00928H0.824219V29.5236Z" fill="#828282"/>
<path d="M16.8888 30.038C22.3402 30.038 26.0773 25.9923 26.0773 20.7466C26.0773 15.5008 22.3402 11.4551 16.8888 11.4551C11.4373 11.4551 7.7002 15.5008 7.7002 20.7466C7.7002 25.9923 11.4373 30.038 16.8888 30.038ZM16.8888 26.4723C14.0088 26.4723 12.4316 24.1751 12.4316 20.7466C12.4316 17.318 14.0088 14.9866 16.8888 14.9866C19.7345 14.9866 21.3459 17.318 21.3459 20.7466C21.3459 24.1751 19.7345 26.4723 16.8888 26.4723Z" fill="#828282"/>
<path d="M35.9934 35.5237C38.5991 35.5237 40.862 34.9066 42.3362 33.5351C43.6391 32.3351 44.4277 30.6551 44.4277 28.1866V11.9351H39.9363V13.7866H39.8677C38.8048 12.3123 37.1934 11.4551 34.9991 11.4551C30.542 11.4551 27.3877 14.8151 27.3877 20.0608C27.3877 25.3751 31.2277 28.4608 35.1363 28.4608C37.3648 28.4608 38.702 27.5694 39.7305 26.4037H39.8334V28.3237C39.8334 30.7237 38.5648 31.9923 35.9248 31.9923C33.7648 31.9923 32.7705 31.1351 32.3934 30.038H27.7648C28.2448 33.4666 31.1934 35.5237 35.9934 35.5237ZM35.9248 24.7237C33.5248 24.7237 31.9477 22.9751 31.9477 19.9923C31.9477 17.0437 33.5248 15.1923 35.8905 15.1923C38.702 15.1923 40.0734 17.3866 40.0734 19.958C40.0734 22.5637 38.8734 24.7237 35.9248 24.7237Z" fill="#828282"/>
<path d="M55.7609 30.038C61.2123 30.038 64.9495 25.9923 64.9495 20.7466C64.9495 15.5008 61.2123 11.4551 55.7609 11.4551C50.3095 11.4551 46.5723 15.5008 46.5723 20.7466C46.5723 25.9923 50.3095 30.038 55.7609 30.038ZM55.7609 26.4723C52.8809 26.4723 51.3038 24.1751 51.3038 20.7466C51.3038 17.318 52.8809 14.9866 55.7609 14.9866C58.6066 14.9866 60.2181 17.318 60.2181 20.7466C60.2181 24.1751 58.6066 26.4723 55.7609 26.4723Z" fill="#828282"/>
<path d="M212.275 9.04771C212.275 8.25873 212.915 7.61914 213.704 7.61914H216.561C217.35 7.61914 217.99 8.25873 217.99 9.04771C217.99 9.83669 217.35 10.4763 216.561 10.4763H213.704C212.915 10.4763 212.275 9.83669 212.275 9.04771Z" fill="#828282"/>
<path fill-rule="evenodd" clip-rule="evenodd" d="M93.2275 0C104.273 0 113.228 8.95431 113.228 20C113.228 31.0457 104.273 40 93.2275 40C82.1818 40 73.2275 31.0457 73.2275 20C73.2275 8.95431 82.1818 0 93.2275 0ZM92.5046 1.49659C90.2229 1.81769 88.0503 3.65108 86.3638 6.7174C85.8746 7.60683 85.4332 8.58946 85.0486 9.65044C87.3418 9.07417 89.8609 8.73442 92.5046 8.68187V1.49659ZM83.3582 10.1308C83.8366 8.62958 84.4217 7.2484 85.097 6.02065C85.933 4.50059 86.9252 3.18795 88.0431 2.17977C81.9642 3.94523 77.1727 8.73679 75.4072 14.8157C76.4154 13.6978 77.728 12.7056 79.2481 11.8696C80.4759 11.1943 81.857 10.6091 83.3582 10.1308ZM82.8779 11.8211C82.3016 14.1143 81.9619 16.6334 81.9093 19.2771H74.724C75.0451 16.9954 76.8785 14.8228 79.9449 13.1364C80.8343 12.6472 81.8169 12.2058 82.8779 11.8211ZM83.3554 19.2771C83.4151 16.392 83.8305 13.6834 84.5177 11.2902C86.9109 10.603 89.6195 10.1876 92.5046 10.1279V13.2508C91.4283 16.0062 89.2331 18.2012 86.4776 19.2771H83.3554ZM81.9093 20.7229H74.724C75.0451 23.0046 76.8785 25.1771 79.9449 26.8636C80.8343 27.3528 81.8169 27.7942 82.8779 28.1789C82.3016 25.8857 81.9619 23.3666 81.9093 20.7229ZM84.5177 28.7098C83.8305 26.3166 83.4151 23.608 83.3554 20.7229H86.4776C89.2331 21.7988 91.4283 23.9938 92.5046 26.7492V29.8721C89.6195 29.8124 86.9109 29.397 84.5177 28.7098ZM83.3582 29.8692C81.857 29.3909 80.4759 28.8057 79.2481 28.1304C77.728 27.2944 76.4154 26.3022 75.4072 25.1843C77.1727 31.2632 81.9642 36.0548 88.0431 37.8202C86.9252 36.812 85.933 35.4994 85.097 33.9793C84.4217 32.7516 83.8366 31.3704 83.3582 29.8692ZM92.5046 38.5034C90.2229 38.1823 88.0503 36.3489 86.3638 33.2826C85.8746 32.3932 85.4332 31.4105 85.0486 30.3496C87.3418 30.9258 89.8609 31.2656 92.5046 31.3181V38.5034ZM98.4118 37.8202C99.5297 36.812 100.522 35.4994 101.358 33.9793C102.033 32.7516 102.619 31.3704 103.097 29.8692C104.598 29.3909 105.979 28.8057 107.207 28.1304C108.727 27.2944 110.04 26.3022 111.048 25.1843C109.282 31.2632 104.491 36.0548 98.4118 37.8202ZM101.407 30.3496C101.022 31.4105 100.58 32.3932 100.091 33.2826C98.4046 36.3489 96.232 38.1823 93.9503 38.5034V31.3181C96.594 31.2656 99.1131 30.9258 101.407 30.3496ZM103.577 28.1789C104.638 27.7942 105.621 27.3528 106.51 26.8636C109.577 25.1772 111.41 23.0046 111.731 20.7229H104.546C104.493 23.3666 104.153 25.8857 103.577 28.1789ZM103.1 20.7229C103.04 23.608 102.625 26.3166 101.937 28.7098C99.544 29.397 96.8354 29.8124 93.9503 29.8721V26.7515C95.0263 23.9951 97.222 21.7991 99.9782 20.7229H103.1ZM104.546 19.2771H111.731C111.41 16.9954 109.577 14.8228 106.51 13.1364C105.621 12.6472 104.638 12.2058 103.577 11.8211C104.153 14.1143 104.493 16.6334 104.546 19.2771ZM101.937 11.2902C102.625 13.6834 103.04 16.392 103.1 19.2771H99.9783C97.222 18.2009 95.0263 16.0049 93.9503 13.2485V10.1279C96.8354 10.1876 99.544 10.603 101.937 11.2902ZM103.097 10.1308C104.598 10.6091 105.979 11.1943 107.207 11.8696C108.727 12.7056 110.04 13.6978 111.048 14.8157C109.282 8.73679 104.491 3.94523 98.4118 2.17977C99.5297 3.18795 100.522 4.50059 101.358 6.02065C102.033 7.2484 102.619 8.62958 103.097 10.1308ZM93.9503 1.49659C96.232 1.81769 98.4046 3.65108 100.091 6.7174C100.58 7.60684 101.022 8.58946 101.407 9.65044C99.1131 9.07417 96.594 8.73442 93.9503 8.68187V1.49659Z" fill="#828282"/>
</g>
<g clip-path="url(#clip1_1_280)">
<path d="M308 40C319.046 40 328 31.046 328 20V6C328 4.4087 327.368 2.88258 326.243 1.75736C325.118 0.632141 323.592 0 322 0L309 0V8.774C309 10.776 309.122 12.85 310.172 14.554C310.924 15.7752 311.93 16.8204 313.121 17.6188C314.312 18.4171 315.661 18.9499 317.076 19.181L317.459 19.243C317.617 19.297 317.754 19.399 317.851 19.5347C317.948 19.6704 318.001 19.8331 318.001 20C318.001 20.1669 317.948 20.3296 317.851 20.4653C317.754 20.601 317.617 20.703 317.459 20.757L317.076 20.819C315.009 21.1568 313.099 22.1356 311.618 23.6171C310.136 25.0987 309.157 27.0082 308.819 29.076L308.757 29.459C308.703 29.6169 308.601 29.754 308.466 29.851C308.33 29.9481 308.167 30.0003 308 30.0003C307.834 30.0003 307.671 29.9481 307.535 29.851C307.399 29.754 307.297 29.6169 307.243 29.459L307.181 29.076C306.95 27.6607 306.417 26.3118 305.619 25.1205C304.821 23.9293 303.776 22.9237 302.554 22.172C300.85 21.122 298.776 21 296.774 21H288.024C288.547 31.581 297.29 40 308 40Z" fill="#828282"/>
<path d="M288 19H296.774C298.776 19 300.85 18.878 302.554 17.828C303.886 17.0073 305.007 15.886 305.828 14.554C306.878 12.85 307 10.776 307 8.774V0H294C292.409 0 290.883 0.632141 289.757 1.75736C288.632 2.88258 288 4.4087 288 6V19ZM334.455 2C334.455 2.53043 334.244 3.03914 333.869 3.41421C333.494 3.78929 332.985 4 332.455 4C331.925 4 331.416 3.78929 331.041 3.41421C330.666 3.03914 330.455 2.53043 330.455 2C330.455 1.46957 330.666 0.960859 331.041 0.585786C331.416 0.210714 331.925 0 332.455 0C332.985 0 333.494 0.210714 333.869 0.585786C334.244 0.960859 334.455 1.46957 334.455 2ZM499.711 12.104C505.302 12.104 508 16.009 508 20.532V29.027H502.149V21.54C502.149 19.49 501.401 17.798 499.256 17.798C497.111 17.798 496.396 19.49 496.396 21.54V29.026H490.545V21.54C490.545 19.49 489.83 17.798 487.684 17.798C485.539 17.798 484.791 19.49 484.791 21.54V29.026H478.941V20.531C478.941 16.008 481.638 12.103 487.229 12.103C490.285 12.103 492.495 13.307 493.503 15.292C494.575 13.307 496.916 12.102 499.711 12.102V12.104ZM468.427 23.82C470.312 23.82 471.125 22.095 471.125 20.044V12.754H476.975V20.76C476.975 25.544 474.18 29.515 468.427 29.515C462.673 29.515 459.878 25.545 459.878 20.76V12.754H465.729V20.044C465.729 22.094 466.541 23.82 468.427 23.82ZM451.275 29.547C447.602 29.547 445.229 28.278 443.831 25.805L448.057 23.429C448.642 24.47 449.519 24.991 450.982 24.991C452.185 24.991 452.737 24.568 452.737 24.047C452.737 22.062 444.156 24.08 444.156 17.767C444.156 14.707 446.756 12.234 451.177 12.234C455.045 12.234 457.158 14.121 458.101 15.944L453.875 18.352C453.518 17.376 452.412 16.79 451.307 16.79C450.462 16.79 450.007 17.148 450.007 17.636C450.007 19.654 458.588 17.799 458.588 23.917C458.588 27.334 455.24 29.547 451.275 29.547ZM430.833 36.512H424.982V20.858C424.982 15.878 428.72 12.266 433.921 12.266C438.992 12.266 442.86 16.139 442.86 20.858C442.86 26.065 439.414 29.515 434.246 29.515C433.043 29.515 431.841 29.157 430.833 28.603V36.512ZM433.921 24.015C435.774 24.015 437.009 22.583 437.009 20.89C437.009 19.166 435.774 17.766 433.921 17.766C432.068 17.766 430.833 19.166 430.833 20.891C430.833 22.583 432.068 24.015 433.921 24.015ZM419.121 11.03C417.203 11.03 415.611 9.435 415.611 7.515C415.611 5.595 417.203 4 419.121 4C421.039 4 422.632 5.595 422.632 7.515C422.632 9.435 421.039 11.03 419.121 11.03ZM416.196 12.754H422.047V29.027H416.196V12.754ZM404.97 29.515C399.899 29.515 396.031 25.61 396.031 20.858C396.031 16.139 399.899 12.234 404.97 12.234C410.041 12.234 413.909 16.139 413.909 20.858C413.909 25.61 410.041 29.515 404.97 29.515ZM404.97 24.015C406.823 24.015 408.058 22.583 408.058 20.89C408.058 19.166 406.823 17.734 404.97 17.734C403.117 17.734 401.882 19.166 401.882 20.89C401.882 22.583 403.117 24.015 404.97 24.015ZM384.983 37C380.953 37 378.027 35.21 376.532 32.02L381.375 29.417C381.895 30.524 382.87 31.663 384.885 31.663C386.999 31.663 388.396 30.328 388.559 27.985C387.779 28.669 386.543 29.189 384.691 29.189C380.172 29.189 376.531 25.707 376.531 20.825C376.531 16.107 380.4 12.266 385.471 12.266C390.672 12.266 394.41 15.879 394.41 20.858V27.302C394.41 33.16 390.346 37 384.983 37ZM385.373 23.69C387.128 23.69 388.461 22.485 388.461 20.695C388.461 18.938 387.129 17.766 385.373 17.766C383.65 17.766 382.285 18.938 382.285 20.696C382.285 22.486 383.65 23.689 385.373 23.689V23.69ZM366.607 29.515C361.536 29.515 357.667 25.61 357.667 20.858C357.667 16.139 361.536 12.234 366.607 12.234C371.677 12.234 375.546 16.139 375.546 20.858C375.546 25.61 371.678 29.515 366.607 29.515ZM366.607 24.015C368.46 24.015 369.695 22.583 369.695 20.89C369.695 19.166 368.46 17.734 366.607 17.734C364.754 17.734 363.519 19.166 363.519 20.89C363.519 22.583 364.754 24.015 366.607 24.015ZM347.013 7.06V23.494H356.7V29.027H346.2C342.495 29.027 341 27.074 341 23.982V7.06H347.013Z" fill="#828282"/>
</g>
<g clip-path="url(#clip2_1_280)">
<path d="M628.86 29.3534H640.812V25.7534H633.108V12.1934H628.86V29.3534Z" fill="#828282"/>
<path d="M647.893 26.953C646.189 26.953 645.301 25.465 645.301 23.233C645.301 21.001 646.189 19.489 647.893 19.489C649.597 19.489 650.509 21.001 650.509 23.233C650.509 25.465 649.597 26.953 647.893 26.953ZM647.917 29.737C651.877 29.737 654.469 26.929 654.469 23.233C654.469 19.537 651.877 16.729 647.917 16.729C643.981 16.729 641.341 19.537 641.341 23.233C641.341 26.929 643.981 29.737 647.917 29.737Z" fill="#828282"/>
<path d="M661.324 33.6011C663.148 33.6011 664.756 33.1931 665.836 32.2331C666.82 31.3451 667.468 30.0011 667.468 28.1531V17.0651H663.724V18.3851H663.676C662.956 17.3531 661.852 16.7051 660.22 16.7051C657.172 16.7051 655.06 19.2491 655.06 22.8491C655.06 26.6171 657.628 28.6811 660.388 28.6811C661.876 28.6811 662.812 28.0811 663.532 27.2651H663.628V28.4891C663.628 29.9771 662.932 30.8411 661.276 30.8411C659.98 30.8411 659.332 30.2891 659.116 29.6411H655.324C655.708 32.2091 657.94 33.6011 661.324 33.6011ZM661.3 25.7771C659.836 25.7771 658.876 24.5771 658.876 22.7291C658.876 20.8571 659.836 19.6571 661.3 19.6571C662.932 19.6571 663.796 21.0491 663.796 22.7051C663.796 24.4331 663.004 25.7771 661.3 25.7771Z" fill="#828282"/>
<path d="M675.166 26.953C673.462 26.953 672.574 25.465 672.574 23.233C672.574 21.001 673.462 19.489 675.166 19.489C676.87 19.489 677.782 21.001 677.782 23.233C677.782 25.465 676.87 26.953 675.166 26.953ZM675.19 29.737C679.15 29.737 681.742 26.929 681.742 23.233C681.742 19.537 679.15 16.729 675.19 16.729C671.254 16.729 668.614 19.537 668.614 23.233C668.614 26.929 671.254 29.737 675.19 29.737Z" fill="#828282"/>
<path d="M682.884 29.3534H686.796V17.0654H682.884V29.3534ZM682.884 15.3614H686.796V12.1934H682.884V15.3614Z" fill="#828282"/>
<path d="M688.494 33.4091H692.406V28.0811H692.454C693.222 29.1131 694.35 29.7371 695.934 29.7371C699.15 29.7371 701.286 27.1931 701.286 23.2091C701.286 19.5131 699.294 16.7051 696.03 16.7051C694.35 16.7051 693.15 17.4491 692.31 18.5531H692.238V17.0651H688.494V33.4091ZM694.926 26.7131C693.246 26.7131 692.286 25.3451 692.286 23.3531C692.286 21.3611 693.15 19.8491 694.854 19.8491C696.534 19.8491 697.326 21.2411 697.326 23.3531C697.326 25.4411 696.414 26.7131 694.926 26.7131Z" fill="#828282"/>
<path d="M707.655 29.7371C710.871 29.7371 713.247 28.3451 713.247 25.6571C713.247 22.5131 710.703 21.9611 708.543 21.6011C706.983 21.3131 705.591 21.1931 705.591 20.3291C705.591 19.5611 706.335 19.2011 707.295 19.2011C708.375 19.2011 709.119 19.5371 709.263 20.6411H712.863C712.671 18.2171 710.799 16.7051 707.319 16.7051C704.415 16.7051 702.015 18.0491 702.015 20.6411C702.015 23.5211 704.295 24.0971 706.431 24.4571C708.063 24.7451 709.551 24.8651 709.551 25.9691C709.551 26.7611 708.807 27.1931 707.631 27.1931C706.335 27.1931 705.519 26.5931 705.375 25.3691H701.679C701.799 28.0811 704.055 29.7371 707.655 29.7371Z" fill="#828282"/>
<path d="M718.561 29.7134C720.265 29.7134 721.345 29.0414 722.233 27.8414H722.305V29.3534H726.049V17.0654H722.137V23.9294C722.137 25.3934 721.321 26.4014 719.977 26.4014C718.729 26.4014 718.129 25.6574 718.129 24.3134V17.0654H714.241V25.1294C714.241 27.8654 715.729 29.7134 718.561 29.7134Z" fill="#828282"/>
<path d="M727.75 29.3531H731.662V22.4651C731.662 21.0011 732.382 19.9691 733.606 19.9691C734.782 19.9691 735.334 20.7371 735.334 22.0571V29.3531H739.246V22.4651C739.246 21.0011 739.942 19.9691 741.19 19.9691C742.366 19.9691 742.918 20.7371 742.918 22.0571V29.3531H746.83V21.3611C746.83 18.6011 745.438 16.7051 742.654 16.7051C741.07 16.7051 739.75 17.3771 738.79 18.8651H738.742C738.118 17.5451 736.894 16.7051 735.286 16.7051C733.51 16.7051 732.334 17.5451 731.566 18.8171H731.494V17.0651H727.75V29.3531Z" fill="#828282"/>
<path fill-rule="evenodd" clip-rule="evenodd" d="M598.684 0.961914C609.946 0.961914 619.076 10.0914 619.076 21.3532C619.076 32.6151 609.946 41.7446 598.684 41.7446C587.422 41.7446 578.293 32.6151 578.293 21.3532C578.293 10.0914 587.422 0.961914 598.684 0.961914ZM618.293 21.3532C618.293 10.5237 609.514 1.74454 598.684 1.74454C597.811 1.74454 596.951 1.80165 596.107 1.91237C596.652 1.86472 597.204 1.84041 597.761 1.84041C608.109 1.84041 616.498 10.2293 616.498 20.5775C616.498 30.9256 608.109 39.3145 597.761 39.3145C587.964 39.3145 579.923 31.7956 579.094 22.2135C579.544 32.6439 588.143 40.9619 598.684 40.9619C609.514 40.9619 618.293 32.1828 618.293 21.3532ZM615.715 20.5775C615.715 10.6615 607.677 2.62303 597.761 2.62303C596.956 2.62303 596.163 2.67603 595.386 2.77872C595.864 2.73846 596.348 2.71793 596.837 2.71793C606.272 2.71793 613.92 10.3662 613.92 19.8007C613.92 29.2353 606.272 36.8835 596.837 36.8835C587.917 36.8835 580.593 30.0458 579.822 21.3256C580.214 30.8946 588.095 38.5319 597.761 38.5319C607.677 38.5319 615.715 30.4934 615.715 20.5775ZM596.837 3.50056C605.84 3.50056 613.137 10.7984 613.137 19.8007C613.137 28.803 605.84 36.1008 596.837 36.1008C588.044 36.1008 580.876 29.1372 580.549 20.4235C581.256 28.2885 587.865 34.4524 595.914 34.4524C604.434 34.4524 611.341 27.5453 611.341 19.0249C611.341 10.5045 604.434 3.59739 595.914 3.59739C595.473 3.59739 595.037 3.61588 594.605 3.65211C595.335 3.55218 596.08 3.50056 596.837 3.50056ZM610.559 19.0249C610.559 10.9368 604.002 4.38003 595.914 4.38003C595.23 4.38003 594.558 4.42682 593.9 4.5174C594.259 4.48926 594.622 4.47493 594.989 4.47493C602.596 4.47493 608.763 10.6414 608.763 18.2482C608.763 25.8549 602.596 32.0214 594.989 32.0214C587.83 32.0214 581.946 26.5585 581.279 19.5736C581.568 27.4075 588.009 33.6698 595.914 33.6698C604.002 33.6698 610.559 27.1131 610.559 19.0249ZM594.989 5.25756C602.164 5.25756 607.98 11.0737 607.98 18.2482C607.98 25.4227 602.164 31.2388 594.989 31.2388C587.956 31.2388 582.228 25.6496 582.005 18.6706C582.608 24.8008 587.777 29.5904 594.066 29.5904C600.759 29.5904 606.185 24.1645 606.185 17.4714C606.185 10.7783 600.759 5.35245 594.066 5.35245C593.759 5.35245 593.455 5.36386 593.153 5.38628C593.753 5.30144 594.366 5.25756 594.989 5.25756ZM605.402 17.4714C605.402 11.2105 600.327 6.13508 594.066 6.13508C593.494 6.13508 592.933 6.17736 592.384 6.25899C592.634 6.24104 592.887 6.23191 593.142 6.23191C598.921 6.23191 603.606 10.9167 603.606 16.6956C603.606 22.4746 598.921 27.1593 593.142 27.1593C587.727 27.1593 583.273 23.0458 582.733 17.773C582.893 23.8945 587.906 28.8078 594.066 28.8078C600.327 28.8078 605.402 23.7323 605.402 17.4714ZM593.142 7.01455C598.489 7.01455 602.823 11.3489 602.823 16.6956C602.823 22.0424 598.489 26.3767 593.142 26.3767C587.864 26.3767 583.572 22.152 583.463 16.8993C583.951 21.3032 587.685 24.7283 592.219 24.7283C597.084 24.7283 601.028 20.7842 601.028 15.9189C601.028 11.0536 597.084 7.10944 592.219 7.10944C592.033 7.10944 591.848 7.1152 591.665 7.12657C592.147 7.0528 592.64 7.01455 593.142 7.01455ZM600.246 15.9189C600.246 11.4858 596.652 7.89207 592.219 7.89207C591.774 7.89207 591.337 7.92831 590.911 7.998C591.038 7.99132 591.166 7.98794 591.294 7.98794C595.246 7.98794 598.449 11.1914 598.449 15.1431C598.449 19.0948 595.246 22.2983 591.294 22.2983C587.64 22.2983 584.626 19.5593 584.193 16.0225C584.248 20.4079 587.82 23.9457 592.219 23.9457C596.652 23.9457 600.246 20.352 600.246 15.9189ZM591.294 8.77056C594.814 8.77056 597.667 11.6236 597.667 15.1431C597.667 18.6626 594.814 21.5156 591.294 21.5156C587.775 21.5156 584.922 18.6626 584.922 15.1431C584.922 15.1347 584.922 15.1262 584.922 15.1178C585.288 17.7998 587.588 19.8663 590.371 19.8663C593.408 19.8663 595.871 17.4039 595.871 14.3664C595.871 11.3288 593.408 8.86645 590.371 8.86645C590.302 8.86645 590.234 8.86769 590.166 8.87019C590.532 8.80472 590.909 8.77056 591.294 8.77056ZM595.088 14.3664C595.088 11.7611 592.976 9.64907 590.371 9.64907C587.766 9.64907 585.654 11.7611 585.654 14.3664C585.654 16.9716 587.766 19.0836 590.371 19.0836C592.976 19.0836 595.088 16.9716 595.088 14.3664Z" fill="#828282"/>
</g>
<g clip-path="url(#clip3_1_280)">
<path d="M868.582 10.2837H865V26.447H874.916V23.2799H868.582V10.2837Z" fill="#828282"/>
<path d="M875.259 20.9646C875.259 24.4157 877.574 26.7091 881.069 26.7091C884.542 26.7091 886.857 24.4157 886.857 20.9646C886.857 17.5135 884.542 15.1982 881.069 15.1982C877.574 15.1982 875.259 17.5135 875.259 20.9646ZM878.644 20.9427C878.644 19.3046 879.605 18.2125 881.069 18.2125C882.51 18.2125 883.471 19.3046 883.471 20.9427C883.471 22.6028 882.51 23.6949 881.069 23.6949C879.605 23.6949 878.644 22.6028 878.644 20.9427Z" fill="#828282"/>
<path d="M887.398 20.7901C887.398 24.0882 889.539 26.3161 892.575 26.3161C894.038 26.3161 895.305 25.7919 895.938 24.9401V26.4472C895.938 27.9543 894.999 28.959 893.339 28.959C891.854 28.959 890.827 28.2601 890.762 27.0151H887.354C887.66 30.0075 889.976 32.0169 893.143 32.0169C896.878 32.0169 899.237 29.5925 899.237 25.7482V15.5261H896.201L896.026 16.64C895.414 15.7445 894.126 15.1548 892.64 15.1548C889.582 15.1548 887.398 17.4482 887.398 20.7901ZM890.806 20.7027C890.806 19.13 891.854 18.0816 893.186 18.0816C894.737 18.0816 895.873 19.1082 895.873 20.7027C895.873 22.2972 894.759 23.3893 893.208 23.3893C891.876 23.3893 890.806 22.2972 890.806 20.7027Z" fill="#828282"/>
<path d="M900.217 20.9646C900.217 24.4157 902.532 26.7091 906.027 26.7091C909.5 26.7091 911.815 24.4157 911.815 20.9646C911.815 17.5135 909.5 15.1982 906.027 15.1982C902.532 15.1982 900.217 17.5135 900.217 20.9646ZM903.602 20.9427C903.602 19.3046 904.563 18.2125 906.027 18.2125C907.468 18.2125 908.429 19.3046 908.429 20.9427C908.429 22.6028 907.468 23.6949 906.027 23.6949C904.563 23.6949 903.602 22.6028 903.602 20.9427Z" fill="#828282"/>
<path d="M914.715 13.8224C915.763 13.8224 916.615 12.9705 916.615 11.9003C916.615 10.83 915.763 10 914.715 10C913.645 10 912.793 10.83 912.793 11.9003C912.793 12.9705 913.645 13.8224 914.715 13.8224ZM913.011 26.4472H916.397V15.5261H913.011V26.4472Z" fill="#828282"/>
<path d="M918.368 31.6895H921.688V25.3553C922.321 26.1853 923.763 26.7532 925.27 26.7532C928.524 26.7532 930.49 24.2632 930.403 20.8121C930.315 17.2955 928.284 15.1768 925.248 15.1768C923.697 15.1768 922.234 15.8539 921.622 16.8587L921.447 15.5263H918.368V31.6895ZM921.753 20.9868C921.753 19.3487 922.845 18.2566 924.418 18.2566C926.012 18.2566 927.017 19.3705 927.017 20.9868C927.017 22.6032 926.012 23.7171 924.418 23.7171C922.845 23.7171 921.753 22.625 921.753 20.9868Z" fill="#828282"/>
<path d="M930.761 22.9963C930.848 25.2024 932.596 26.7313 935.348 26.7313C937.991 26.7313 939.826 25.3334 939.826 23.0837C939.826 21.4674 938.865 20.3971 937.073 19.9602L935.13 19.4797C934.431 19.305 933.994 19.1302 933.994 18.5623C933.994 17.9944 934.452 17.6231 935.13 17.6231C935.894 17.6231 936.396 18.1255 936.375 18.8681H939.411C939.323 16.5965 937.598 15.1768 935.195 15.1768C932.771 15.1768 930.958 16.6184 930.958 18.8026C930.958 20.266 931.766 21.4674 933.928 22.0353L935.85 22.5376C936.418 22.6905 936.658 22.9526 936.658 23.3239C936.658 23.87 936.156 24.2195 935.304 24.2195C934.321 24.2195 933.797 23.7608 933.797 22.9963H930.761Z" fill="#828282"/>
<path d="M944.974 26.7309C946.307 26.7309 947.639 26.1193 948.316 25.2238L948.535 26.447H951.702V15.5259H948.338V21.2049C948.338 22.843 947.858 23.7385 946.307 23.7385C945.105 23.7385 944.319 23.1925 944.319 21.1612V15.5259H940.955V22.3843C940.955 24.9836 942.397 26.7309 944.974 26.7309Z" fill="#828282"/>
<path d="M957.036 26.4472V20.4843C957.036 18.6495 958.019 18.1253 958.98 18.1253C960.05 18.1253 960.749 18.7806 960.749 20.1348V26.4472H964.069V20.4843C964.069 18.6277 965.03 18.1035 965.991 18.1035C967.061 18.1035 967.782 18.7587 967.782 20.1348V26.4472H971.059V19.3048C971.059 16.8148 969.748 15.1548 966.93 15.1548C965.358 15.1548 964.069 15.9192 963.501 17.0987C962.846 15.9192 961.71 15.1548 959.897 15.1548C958.696 15.1548 957.582 15.7008 956.927 16.5745L956.796 15.5261H953.65V26.4472H957.036Z" fill="#828282"/>
<path d="M817 20C817 10.5719 817 5.85786 819.929 2.92893C822.858 0 827.572 0 837 0C846.428 0 851.142 0 854.071 2.92893C857 5.85786 857 10.5719 857 20C857 29.4281 857 34.1421 854.071 37.0711C851.142 40 846.428 40 837 40C827.572 40 822.858 40 819.929 37.0711C817 34.1421 817 29.4281 817 20Z" fill="#828282"/>
<path d="M841 26C841.552 26 842.01 26.4521 841.9 26.9934C841.706 27.9494 841.235 28.8355 840.535 29.5355C839.598 30.4732 838.326 31 837 31C835.674 31 834.402 30.4732 833.464 29.5355C832.764 28.8355 832.293 27.9494 832.099 26.9934C831.99 26.4521 832.447 26 833 26H841Z" fill="#828282"/>
<path d="M843.103 17.7765C842.569 17.9194 842.243 18.4775 842.513 18.959C842.798 19.4658 843.192 19.9081 843.671 20.2514C844.423 20.7904 845.339 21.052 846.262 20.9914C847.186 20.9309 848.059 20.5521 848.735 19.9195C849.41 19.2869 849.845 18.4396 849.966 17.5221C850.087 16.6046 849.886 15.6736 849.397 14.8877C848.909 14.1019 848.163 13.5098 847.286 13.2123C846.41 12.9148 845.458 12.9304 844.592 13.2564C844.04 13.464 843.545 13.7893 843.139 14.2051C842.753 14.6002 842.924 15.2239 843.402 15.5L843.91 15.7929C844.681 16.2384 844.529 17.3943 843.669 17.6249L843.103 17.7765Z" fill="#828282"/>
<path d="M830.898 17.7765C831.431 17.9194 831.758 18.4775 831.487 18.959C831.203 19.4658 830.809 19.9081 830.33 20.2514C829.578 20.7904 828.662 21.052 827.738 20.9914C826.815 20.9309 825.941 20.5521 825.266 19.9195C824.59 19.2869 824.155 18.4396 824.034 17.5221C823.913 16.6046 824.115 15.6736 824.603 14.8877C825.092 14.1019 825.838 13.5098 826.714 13.2123C827.591 12.9148 828.543 12.9304 829.409 13.2564C829.961 13.464 830.455 13.7893 830.862 14.2051C831.248 14.6002 831.076 15.2239 830.598 15.5L830.091 15.7929C829.319 16.2384 829.471 17.3943 830.332 17.6249L830.898 17.7765Z" fill="#828282"/>
</g>
<g clip-path="url(#clip4_1_280)">
<path d="M1090.63 28.7938H1102.58V25.1938H1094.88V11.6338H1090.63V28.7938Z" fill="#828282"/>
<path d="M1109.66 26.3934C1107.96 26.3934 1107.07 24.9054 1107.07 22.6734C1107.07 20.4414 1107.96 18.9294 1109.66 18.9294C1111.37 18.9294 1112.28 20.4414 1112.28 22.6734C1112.28 24.9054 1111.37 26.3934 1109.66 26.3934ZM1109.69 29.1774C1113.65 29.1774 1116.24 26.3694 1116.24 22.6734C1116.24 18.9774 1113.65 16.1694 1109.69 16.1694C1105.75 16.1694 1103.11 18.9774 1103.11 22.6734C1103.11 26.3694 1105.75 29.1774 1109.69 29.1774Z" fill="#828282"/>
<path d="M1123.09 33.0415C1124.92 33.0415 1126.53 32.6335 1127.61 31.6735C1128.59 30.7855 1129.24 29.4415 1129.24 27.5935V16.5055H1125.49V17.8255H1125.45C1124.73 16.7935 1123.62 16.1455 1121.99 16.1455C1118.94 16.1455 1116.83 18.6895 1116.83 22.2895C1116.83 26.0575 1119.4 28.1215 1122.16 28.1215C1123.65 28.1215 1124.58 27.5215 1125.3 26.7055H1125.4V27.9295C1125.4 29.4175 1124.7 30.2815 1123.05 30.2815C1121.75 30.2815 1121.1 29.7295 1120.89 29.0815H1117.09C1117.48 31.6495 1119.71 33.0415 1123.09 33.0415ZM1123.07 25.2175C1121.61 25.2175 1120.65 24.0175 1120.65 22.1695C1120.65 20.2975 1121.61 19.0975 1123.07 19.0975C1124.7 19.0975 1125.57 20.4895 1125.57 22.1455C1125.57 23.8735 1124.77 25.2175 1123.07 25.2175Z" fill="#828282"/>
<path d="M1136.94 26.3934C1135.23 26.3934 1134.34 24.9054 1134.34 22.6734C1134.34 20.4414 1135.23 18.9294 1136.94 18.9294C1138.64 18.9294 1139.55 20.4414 1139.55 22.6734C1139.55 24.9054 1138.64 26.3934 1136.94 26.3934ZM1136.96 29.1774C1140.92 29.1774 1143.51 26.3694 1143.51 22.6734C1143.51 18.9774 1140.92 16.1694 1136.96 16.1694C1133.02 16.1694 1130.38 18.9774 1130.38 22.6734C1130.38 26.3694 1133.02 29.1774 1136.96 29.1774Z" fill="#828282"/>
<path d="M1144.66 28.7938H1148.57V16.5058H1144.66V28.7938ZM1144.66 14.8018H1148.57V11.6338H1144.66V14.8018Z" fill="#828282"/>
<path d="M1150.26 32.8495H1154.18V27.5215H1154.22C1154.99 28.5535 1156.12 29.1775 1157.7 29.1775C1160.92 29.1775 1163.06 26.6335 1163.06 22.6495C1163.06 18.9535 1161.06 16.1455 1157.8 16.1455C1156.12 16.1455 1154.92 16.8895 1154.08 17.9935H1154.01V16.5055H1150.26V32.8495ZM1156.7 26.1535C1155.02 26.1535 1154.06 24.7855 1154.06 22.7935C1154.06 20.8015 1154.92 19.2895 1156.62 19.2895C1158.3 19.2895 1159.1 20.6815 1159.1 22.7935C1159.1 24.8815 1158.18 26.1535 1156.7 26.1535Z" fill="#828282"/>
<path d="M1169.43 29.1775C1172.64 29.1775 1175.02 27.7855 1175.02 25.0975C1175.02 21.9535 1172.47 21.4015 1170.31 21.0415C1168.75 20.7535 1167.36 20.6335 1167.36 19.7695C1167.36 19.0015 1168.11 18.6415 1169.07 18.6415C1170.15 18.6415 1170.89 18.9775 1171.03 20.0815H1174.63C1174.44 17.6575 1172.57 16.1455 1169.09 16.1455C1166.19 16.1455 1163.79 17.4895 1163.79 20.0815C1163.79 22.9615 1166.07 23.5375 1168.2 23.8975C1169.83 24.1855 1171.32 24.3055 1171.32 25.4095C1171.32 26.2015 1170.58 26.6335 1169.4 26.6335C1168.11 26.6335 1167.29 26.0335 1167.15 24.8095H1163.45C1163.57 27.5215 1165.83 29.1775 1169.43 29.1775Z" fill="#828282"/>
<path d="M1180.33 29.1534C1182.03 29.1534 1183.11 28.4814 1184 27.2814H1184.07V28.7934H1187.82V16.5054H1183.91V23.3694C1183.91 24.8334 1183.09 25.8414 1181.75 25.8414C1180.5 25.8414 1179.9 25.0974 1179.9 23.7534V16.5054H1176.01V24.5694C1176.01 27.3054 1177.5 29.1534 1180.33 29.1534Z" fill="#828282"/>
<path d="M1189.52 28.7935H1193.43V21.9055C1193.43 20.4415 1194.15 19.4095 1195.38 19.4095C1196.55 19.4095 1197.11 20.1775 1197.11 21.4975V28.7935H1201.02V21.9055C1201.02 20.4415 1201.71 19.4095 1202.96 19.4095C1204.14 19.4095 1204.69 20.1775 1204.69 21.4975V28.7935H1208.6V20.8015C1208.6 18.0415 1207.21 16.1455 1204.43 16.1455C1202.84 16.1455 1201.52 16.8175 1200.56 18.3055H1200.51C1199.89 16.9855 1198.67 16.1455 1197.06 16.1455C1195.28 16.1455 1194.11 16.9855 1193.34 18.2575H1193.27V16.5055H1189.52V28.7935Z" fill="#828282"/>
<path fill-rule="evenodd" clip-rule="evenodd" d="M1050.65 3.89132C1049.22 4.89168 1047.93 6.07443 1046.81 7.40585C1051.4 6.97978 1057.23 7.6755 1064 11.0601C1071.22 14.6743 1077.05 14.7965 1081.1 14.0151C1080.73 12.9022 1080.27 11.8326 1079.72 10.8158C1075.08 11.3049 1069.14 10.6575 1062.21 7.19343C1057.81 4.99363 1053.93 4.08746 1050.65 3.89132ZM1077.01 6.9601C1073.35 2.86845 1068.02 0.293457 1062.1 0.293457C1060.36 0.293457 1058.67 0.515564 1057.07 0.932937C1059.24 1.52754 1061.56 2.39744 1064 3.61572C1069.07 6.15198 1073.45 6.96861 1077.01 6.9601ZM1081.96 17.9215C1077.07 18.8879 1070.31 18.6894 1062.21 14.6378C1054.63 10.85 1048.6 10.8977 1044.54 11.8014C1044.33 11.848 1044.12 11.897 1043.92 11.948C1043.39 13.1059 1042.96 14.3235 1042.66 15.5879C1042.98 15.5009 1043.32 15.4182 1043.67 15.341C1048.6 14.2447 1055.57 14.2923 1064 18.5045C1071.57 22.2923 1077.6 22.2446 1081.67 21.3409C1081.81 21.31 1081.94 21.278 1082.08 21.245C1082.09 20.9297 1082.1 20.6124 1082.1 20.2934C1082.1 19.4909 1082.05 18.6994 1081.96 17.9215ZM1081.43 25.4657C1076.58 26.313 1070.02 25.9878 1062.21 22.0822C1054.63 18.2944 1048.6 18.3421 1044.54 19.2458C1043.63 19.4463 1042.82 19.6906 1042.1 19.9485C1042.1 20.0632 1042.1 20.1782 1042.1 20.2934C1042.1 31.3391 1051.06 40.2934 1062.1 40.2934C1071.36 40.2934 1079.15 34.0043 1081.43 25.4657Z" fill="#828282"/>
</g>
<path d="M1303.61 19.0251C1304.86 17.9795 1305.65 16.409 1305.65 14.653C1305.65 12.8971 1304.86 11.3266 1303.61 10.281C1303.75 10.2117 1303.89 10.1365 1304.02 10.055C1304.85 9.54008 1305.83 9.24268 1306.87 9.24268C1309.86 9.24268 1312.28 11.665 1312.28 14.653C1312.28 17.6411 1309.86 20.0634 1306.87 20.0634C1305.83 20.0634 1304.85 19.766 1304.02 19.2511C1303.89 19.1696 1303.75 19.0944 1303.61 19.0251Z" fill="#828282"/>
<path d="M1302.11 15.5047C1302.66 13.9749 1302.57 12.2178 1301.69 10.6971C1300.81 9.17644 1299.34 8.21335 1297.73 7.93214C1297.82 7.80061 1297.91 7.66662 1297.98 7.53044C1298.44 6.67039 1299.14 5.92406 1300.04 5.40056C1302.63 3.90652 1305.94 4.79315 1307.43 7.3809C1308.93 9.96866 1308.04 13.2776 1305.45 14.7716C1304.55 15.2951 1303.55 15.5263 1302.58 15.4945C1302.42 15.4894 1302.26 15.4932 1302.11 15.5047Z" fill="#828282"/>
<path d="M1299.04 13.2073C1298.76 11.6032 1297.8 10.1303 1296.28 9.25236C1294.76 8.37438 1293 8.27678 1291.47 8.83529C1291.48 8.67675 1291.49 8.51988 1291.48 8.36556C1291.45 7.39083 1291.68 6.39555 1292.2 5.48881C1293.7 2.90106 1297.01 2.01443 1299.6 3.50847C1302.18 5.00251 1303.07 8.31146 1301.58 10.8992C1301.05 11.8059 1300.31 12.5038 1299.45 12.9636C1299.31 13.0364 1299.18 13.118 1299.04 13.2073Z" fill="#828282"/>
<path d="M1295.24 12.7489C1294.2 11.5003 1292.63 10.7063 1290.87 10.7063C1289.12 10.7063 1287.55 11.5003 1286.5 12.7489C1286.43 12.6058 1286.36 12.4681 1286.27 12.3369C1285.76 11.5087 1285.46 10.5312 1285.46 9.48414C1285.46 6.49605 1287.88 4.07373 1290.87 4.07373C1293.86 4.07373 1296.28 6.49605 1296.28 9.48414C1296.28 10.5312 1295.99 11.5087 1295.47 12.3369C1295.39 12.4681 1295.31 12.6058 1295.24 12.7489Z" fill="#828282"/>
<path d="M1291.72 14.2518C1290.19 13.6933 1288.44 13.7909 1286.92 14.6688C1285.4 15.5468 1284.43 17.0197 1284.15 18.6238C1284.02 18.5345 1283.89 18.4529 1283.75 18.3801C1282.89 17.9203 1282.14 17.2224 1281.62 16.3157C1280.13 13.7279 1281.01 10.419 1283.6 8.92498C1286.19 7.43093 1289.5 8.31756 1290.99 10.9053C1291.51 11.812 1291.75 12.8073 1291.71 13.782C1291.71 13.9363 1291.71 14.0932 1291.72 14.2518Z" fill="#828282"/>
<path d="M1289.42 17.3135C1287.82 17.5947 1286.35 18.5578 1285.47 20.0785C1284.59 21.5992 1284.49 23.3563 1285.05 24.8861C1284.89 24.8745 1284.74 24.8708 1284.58 24.8758C1283.61 24.9077 1282.61 24.6765 1281.71 24.153C1279.12 22.6589 1278.23 19.35 1279.73 16.7622C1281.22 14.1745 1284.53 13.2878 1287.12 14.7819C1288.02 15.3054 1288.72 16.0517 1289.18 16.9117C1289.25 17.0479 1289.34 17.1819 1289.42 17.3135Z" fill="#828282"/>
<path d="M1288.97 21.1146C1287.72 22.1602 1286.92 23.7307 1286.92 25.4866C1286.92 27.2426 1287.72 28.8131 1288.97 29.8587C1288.82 29.9279 1288.68 30.0032 1288.55 30.0847C1287.72 30.5996 1286.75 30.897 1285.7 30.897C1282.71 30.897 1280.29 28.4747 1280.29 25.4866C1280.29 22.4985 1282.71 20.0762 1285.7 20.0762C1286.75 20.0762 1287.72 20.3736 1288.55 20.8886C1288.68 20.9701 1288.82 21.0453 1288.97 21.1146Z" fill="#828282"/>
<path d="M1290.47 24.6357C1289.91 26.1655 1290.01 27.9226 1290.88 29.4433C1291.76 30.9641 1293.24 31.9271 1294.84 32.2083C1294.75 32.3399 1294.67 32.4739 1294.6 32.6101C1294.14 33.4701 1293.44 34.2164 1292.53 34.7399C1289.94 36.234 1286.63 35.3473 1285.14 32.7596C1283.65 30.1718 1284.53 26.8629 1287.12 25.3688C1288.03 24.8453 1289.02 24.6141 1290 24.646C1290.15 24.651 1290.31 24.6473 1290.47 24.6357Z" fill="#828282"/>
<path d="M1293.53 26.9341C1293.81 28.5382 1294.77 30.0111 1296.29 30.889C1297.82 31.767 1299.57 31.8646 1301.1 31.3061C1301.09 31.4647 1301.09 31.6215 1301.09 31.7759C1301.12 32.7506 1300.89 33.7459 1300.37 34.6526C1298.88 37.2404 1295.57 38.127 1292.98 36.6329C1290.39 35.1389 1289.5 31.83 1291 29.2422C1291.52 28.3355 1292.27 27.6376 1293.13 27.1778C1293.26 27.105 1293.4 27.0233 1293.53 26.9341Z" fill="#828282"/>
<path d="M1297.33 27.3936C1298.38 28.6422 1299.95 29.4362 1301.7 29.4362C1303.46 29.4362 1305.03 28.6422 1306.07 27.3936C1306.14 27.5367 1306.22 27.6744 1306.3 27.8055C1306.82 28.6337 1307.11 29.6113 1307.11 30.6583C1307.11 33.6464 1304.69 36.0687 1301.7 36.0687C1298.71 36.0687 1296.29 33.6464 1296.29 30.6583C1296.29 29.6113 1296.59 28.6337 1297.1 27.8055C1297.19 27.6744 1297.26 27.5367 1297.33 27.3936Z" fill="#828282"/>
<path d="M1300.85 25.8915C1302.38 26.45 1304.14 26.3524 1305.66 25.4745C1307.18 24.5965 1308.14 23.1236 1308.42 21.5195C1308.56 21.6087 1308.69 21.6904 1308.83 21.7632C1309.69 22.223 1310.43 22.9209 1310.96 23.8276C1312.45 26.4154 1311.56 29.7243 1308.98 31.2184C1306.39 32.7124 1303.08 31.8258 1301.58 29.238C1301.06 28.3313 1300.83 27.336 1300.86 26.3613C1300.87 26.207 1300.86 26.0501 1300.85 25.8915Z" fill="#828282"/>
<path d="M1307.11 20.0587C1307.11 20.0606 1307.11 20.0625 1307.1 20.0644C1306.23 21.5851 1304.75 22.5482 1303.15 22.8294C1303.24 22.961 1303.32 23.095 1303.39 23.2311C1303.85 24.0912 1304.55 24.8375 1305.46 25.361C1308.05 26.8551 1311.35 25.9684 1312.85 23.3807C1314.13 21.1621 1313.66 18.4135 1311.87 16.7329C1311.08 18.6206 1309.26 19.9671 1307.11 20.0587Z" fill="#828282"/>
<path d="M1326.26 9.84101V26H1322.68V9.84101H1326.26ZM1323.25 26L1323.31 22.8337H1332.59V26H1323.25ZM1333.15 20.519C1333.15 19.369 1333.39 18.3645 1333.87 17.5056C1334.35 16.6321 1335.03 15.9552 1335.91 15.4748C1336.78 14.9944 1337.8 14.7542 1338.96 14.7542C1340.13 14.7542 1341.14 14.9944 1342 15.4748C1342.87 15.9552 1343.55 16.6321 1344.03 17.5056C1344.51 18.3645 1344.75 19.369 1344.75 20.519C1344.75 21.6691 1344.51 22.6736 1344.03 23.5325C1343.55 24.3914 1342.87 25.061 1342 25.5414C1341.14 26.0218 1340.13 26.262 1338.96 26.262C1337.8 26.262 1336.78 26.0218 1335.91 25.5414C1335.03 25.061 1334.35 24.3914 1333.87 23.5325C1333.39 22.6736 1333.15 21.6691 1333.15 20.519ZM1336.54 20.4972C1336.54 21.0504 1336.64 21.5381 1336.84 21.9603C1337.05 22.3679 1337.33 22.6881 1337.7 22.9211C1338.06 23.1394 1338.48 23.2486 1338.96 23.2486C1339.44 23.2486 1339.86 23.1394 1340.23 22.9211C1340.59 22.6881 1340.87 22.3679 1341.06 21.9603C1341.26 21.5381 1341.36 21.0504 1341.36 20.4972C1341.36 19.944 1341.26 19.4636 1341.06 19.056C1340.87 18.6484 1340.59 18.3354 1340.23 18.117C1339.86 17.8841 1339.44 17.7676 1338.96 17.7676C1338.48 17.7676 1338.06 17.8841 1337.7 18.117C1337.33 18.3354 1337.05 18.6484 1336.84 19.056C1336.64 19.4636 1336.54 19.944 1336.54 20.4972ZM1345.51 20.3444C1345.51 19.2234 1345.73 18.2408 1346.19 17.3964C1346.64 16.5521 1347.26 15.897 1348.04 15.4311C1348.83 14.9507 1349.73 14.7105 1350.75 14.7105C1351.61 14.7105 1352.36 14.8852 1353.02 15.2346C1353.69 15.584 1354.14 16.0426 1354.37 16.6103L1354.05 16.8287L1354.31 15.0818H1357.34V25.3012C1357.34 26.5823 1357.1 27.6887 1356.6 28.6204C1356.11 29.5666 1355.4 30.2945 1354.48 30.804C1353.58 31.3135 1352.5 31.5683 1351.25 31.5683C1350.2 31.5683 1349.26 31.3572 1348.41 30.935C1347.58 30.5274 1346.91 29.9451 1346.38 29.1881C1345.87 28.4311 1345.57 27.5577 1345.46 26.5677H1348.87C1348.9 27.1937 1349.15 27.6741 1349.61 28.009C1350.09 28.3438 1350.71 28.5112 1351.45 28.5112C1352.28 28.5112 1352.92 28.2783 1353.37 27.8124C1353.82 27.3611 1354.05 26.757 1354.05 26V23.6853L1354.35 23.9692C1354.12 24.537 1353.67 24.9955 1353 25.3449C1352.33 25.6943 1351.56 25.869 1350.68 25.869C1349.68 25.869 1348.78 25.6361 1348 25.1702C1347.23 24.7044 1346.61 24.0566 1346.16 23.2268C1345.73 22.397 1345.51 21.4362 1345.51 20.3444ZM1348.91 20.257C1348.91 20.7811 1349.02 21.2469 1349.24 21.6545C1349.46 22.0622 1349.75 22.3824 1350.12 22.6153C1350.48 22.8337 1350.88 22.9429 1351.32 22.9429C1351.84 22.9429 1352.3 22.8337 1352.69 22.6153C1353.1 22.3824 1353.41 22.0622 1353.63 21.6545C1353.86 21.2469 1353.98 20.7811 1353.98 20.257C1353.98 19.7184 1353.86 19.2598 1353.63 18.8813C1353.4 18.4883 1353.08 18.1825 1352.67 17.9642C1352.28 17.7458 1351.82 17.6366 1351.29 17.6366C1350.86 17.6366 1350.46 17.7458 1350.09 17.9642C1349.73 18.1825 1349.44 18.4883 1349.22 18.8813C1349.02 19.2744 1348.91 19.7329 1348.91 20.257ZM1358.54 20.519C1358.54 19.369 1358.78 18.3645 1359.26 17.5056C1359.74 16.6321 1360.42 15.9552 1361.29 15.4748C1362.17 14.9944 1363.19 14.7542 1364.35 14.7542C1365.52 14.7542 1366.53 14.9944 1367.39 15.4748C1368.26 15.9552 1368.94 16.6321 1369.42 17.5056C1369.9 18.3645 1370.14 19.369 1370.14 20.519C1370.14 21.6691 1369.9 22.6736 1369.42 23.5325C1368.94 24.3914 1368.26 25.061 1367.39 25.5414C1366.53 26.0218 1365.52 26.262 1364.35 26.262C1363.19 26.262 1362.17 26.0218 1361.29 25.5414C1360.42 25.061 1359.74 24.3914 1359.26 23.5325C1358.78 22.6736 1358.54 21.6691 1358.54 20.519ZM1361.93 20.4972C1361.93 21.0504 1362.03 21.5381 1362.23 21.9603C1362.44 22.3679 1362.72 22.6881 1363.08 22.9211C1363.45 23.1394 1363.87 23.2486 1364.35 23.2486C1364.83 23.2486 1365.25 23.1394 1365.62 22.9211C1365.98 22.6881 1366.26 22.3679 1366.45 21.9603C1366.65 21.5381 1366.75 21.0504 1366.75 20.4972C1366.75 19.944 1366.65 19.4636 1366.45 19.056C1366.26 18.6484 1365.98 18.3354 1365.62 18.117C1365.25 17.8841 1364.83 17.7676 1364.35 17.7676C1363.87 17.7676 1363.45 17.8841 1363.08 18.117C1362.72 18.3354 1362.44 18.6484 1362.23 19.056C1362.03 19.4636 1361.93 19.944 1361.93 20.4972ZM1371.55 26V15.0818H1374.94V26H1371.55ZM1373.25 13.3785C1372.72 13.3785 1372.26 13.1965 1371.88 12.8326C1371.52 12.4541 1371.33 11.9955 1371.33 11.4569C1371.33 10.9183 1371.52 10.467 1371.88 10.103C1372.26 9.7391 1372.72 9.55713 1373.25 9.55713C1373.78 9.55713 1374.22 9.7391 1374.59 10.103C1374.97 10.467 1375.15 10.9183 1375.15 11.4569C1375.15 11.9955 1374.97 12.4541 1374.59 12.8326C1374.22 13.1965 1373.78 13.3785 1373.25 13.3785ZM1377.12 31.2408V15.0818H1380.2L1380.38 16.4138C1380.68 15.9043 1381.17 15.4967 1381.84 15.1909C1382.51 14.8852 1383.23 14.7324 1384 14.7324C1385.02 14.7324 1385.91 14.958 1386.67 15.4093C1387.42 15.8606 1388.02 16.5084 1388.46 17.3528C1388.89 18.1825 1389.13 19.187 1389.16 20.3662C1389.19 21.5162 1389 22.5426 1388.59 23.4451C1388.18 24.3331 1387.59 25.0319 1386.82 25.5414C1386.05 26.051 1385.12 26.3057 1384.03 26.3057C1383.27 26.3057 1382.56 26.1747 1381.91 25.9127C1381.25 25.6506 1380.76 25.3158 1380.44 24.9082V31.2408H1377.12ZM1380.51 20.5409C1380.51 21.0795 1380.62 21.5599 1380.84 21.9821C1381.07 22.3897 1381.38 22.71 1381.78 22.9429C1382.18 23.1613 1382.65 23.2704 1383.17 23.2704C1383.71 23.2704 1384.17 23.154 1384.55 22.9211C1384.94 22.6881 1385.24 22.3679 1385.44 21.9603C1385.66 21.5526 1385.77 21.0795 1385.77 20.5409C1385.77 20.0022 1385.66 19.5291 1385.44 19.1215C1385.24 18.7139 1384.94 18.3936 1384.55 18.1607C1384.17 17.9278 1383.71 17.8113 1383.17 17.8113C1382.65 17.8113 1382.18 17.9278 1381.78 18.1607C1381.38 18.3791 1381.07 18.6921 1380.84 19.0997C1380.62 19.5073 1380.51 19.9877 1380.51 20.5409ZM1389.73 22.5498H1392.77C1392.77 22.9283 1392.89 23.2268 1393.14 23.4451C1393.4 23.6635 1393.78 23.7727 1394.28 23.7727C1394.57 23.7727 1394.81 23.7363 1395 23.6635C1395.2 23.5907 1395.35 23.4888 1395.45 23.3578C1395.57 23.2122 1395.63 23.0521 1395.63 22.8774C1395.63 22.6881 1395.56 22.528 1395.43 22.397C1395.32 22.266 1395.11 22.1641 1394.82 22.0913L1392.9 21.589C1391.82 21.2979 1391.06 20.8684 1390.61 20.3007C1390.16 19.7329 1389.93 19.0851 1389.93 18.3572C1389.93 17.6293 1390.11 16.9961 1390.48 16.4575C1390.85 15.9043 1391.36 15.4821 1392 15.1909C1392.65 14.8852 1393.37 14.7324 1394.17 14.7324C1395.37 14.7324 1396.36 15.0672 1397.14 15.7369C1397.92 16.3919 1398.34 17.2872 1398.38 18.4227H1395.35C1395.36 18.0442 1395.25 17.7458 1395.02 17.5274C1394.79 17.2945 1394.48 17.1781 1394.1 17.1781C1393.77 17.1781 1393.49 17.2654 1393.27 17.4401C1393.07 17.6002 1392.97 17.8259 1392.97 18.117C1392.97 18.3936 1393.07 18.5974 1393.27 18.7285C1393.48 18.8449 1393.75 18.9468 1394.1 19.0342L1396.04 19.5146C1396.95 19.7329 1397.63 20.1042 1398.1 20.6282C1398.56 21.1523 1398.8 21.822 1398.8 22.6372C1398.8 23.7581 1398.38 24.6461 1397.55 25.3012C1396.72 25.9563 1395.64 26.2839 1394.32 26.2839C1392.95 26.2839 1391.85 25.9418 1391.02 25.2576C1390.21 24.5588 1389.78 23.6562 1389.73 22.5498ZM1404.16 26.2839C1402.88 26.2839 1401.89 25.8835 1401.19 25.0829C1400.49 24.2822 1400.14 23.234 1400.14 21.9384V15.0818H1403.51V20.7156C1403.51 21.7346 1403.69 22.4188 1404.05 22.7682C1404.42 23.1176 1404.9 23.2923 1405.49 23.2923C1406.27 23.2923 1406.8 23.0739 1407.09 22.6372C1407.38 22.2005 1407.52 21.5745 1407.52 20.7592V15.0818H1410.89V26H1407.72L1407.5 24.7772C1407.17 25.2284 1406.69 25.5924 1406.08 25.869C1405.47 26.1456 1404.83 26.2839 1404.16 26.2839ZM1416.44 26H1413.05V15.0818H1416.2L1416.44 16.9597L1416.07 16.5666C1416.36 16.0134 1416.8 15.5694 1417.38 15.2346C1417.97 14.8852 1418.61 14.7105 1419.3 14.7105C1420.38 14.7105 1421.22 14.9507 1421.83 15.4311C1422.46 15.9115 1422.91 16.5448 1423.19 17.3309H1422.66C1422.84 16.5448 1423.26 15.9115 1423.93 15.4311C1424.6 14.9507 1425.4 14.7105 1426.33 14.7105C1427.74 14.7105 1428.78 15.089 1429.45 15.846C1430.12 16.603 1430.46 17.6075 1430.46 18.8595V26H1427.18V19.6893C1427.18 19.005 1427.01 18.4955 1426.68 18.1607C1426.36 17.8259 1425.93 17.6585 1425.39 17.6585C1425.07 17.6585 1424.77 17.7313 1424.47 17.8768C1424.18 18.0078 1423.94 18.248 1423.75 18.5974C1423.56 18.9323 1423.47 19.4127 1423.47 20.0386V26H1420.15V19.6893C1420.15 19.005 1419.99 18.5028 1419.67 18.1825C1419.35 17.8477 1418.92 17.6803 1418.38 17.6803C1418.06 17.6803 1417.75 17.7531 1417.44 17.8987C1417.15 18.0297 1416.91 18.2699 1416.72 18.6193C1416.53 18.9541 1416.44 19.4272 1416.44 20.0386V26Z" fill="#828282"/>
<defs>
<clipPath id="clip0_1_280">
<rect width="218" height="40" fill="white"/>
</clipPath>
<clipPath id="clip1_1_280">
<rect width="220" height="40" fill="white" transform="translate(288)"/>
</clipPath>
<clipPath id="clip2_1_280">
<rect width="169" height="42" fill="white" transform="translate(578)"/>
</clipPath>
<clipPath id="clip3_1_280">
<rect width="155" height="40" fill="white" transform="translate(817)"/>
</clipPath>
<clipPath id="clip4_1_280">
<rect width="167" height="41" fill="white" transform="translate(1042)"/>
</clipPath>
</defs>
</svg>
