<svg width="158" height="172" viewBox="0 0 158 172" fill="none" xmlns="http://www.w3.org/2000/svg">
<g clip-path="url(#clip0_1_146)">
<path d="M112.5 18.75C62.5313 61.4063 37.5 98.25 37.5 129.375C37.5 176.063 73.125 206.25 112.5 206.25C151.875 206.25 187.5 176.063 187.5 129.375C187.5 98.25 162.469 61.4063 112.5 18.75ZM73.4062 131.25C76.875 131.25 79.6875 133.687 80.3437 137.062C84.1875 157.875 101.719 165 114.469 163.969C118.5 163.781 121.875 166.969 121.875 171C121.875 174.75 118.875 177.844 115.125 178.031C95.1562 179.25 71.8125 167.812 66.4688 139.406C65.7188 135.187 69.0937 131.25 73.4062 131.25Z" fill="#094C3B" fill-opacity="0.1"/>
</g>
<defs>
<clipPath id="clip0_1_146">
<rect width="225" height="225" fill="white"/>
</clipPath>
</defs>
</svg>
